<svg width="36" height="36" viewBox="0 0 36 36" fill="none" xmlns="http://www.w3.org/2000/svg">
<path d="M0 9C0 7.80653 0.474106 6.66193 1.31802 5.81802C2.16193 4.97411 3.30653 4.5 4.5 4.5H31.5C32.6935 4.5 33.8381 4.97411 34.682 5.81802C35.5259 6.66193 36 7.80653 36 9V11.25H0V9ZM0 15.75V27C0 28.1935 0.474106 29.3381 1.31802 30.182C2.16193 31.0259 3.30653 31.5 4.5 31.5H31.5C32.6935 31.5 33.8381 31.0259 34.682 30.182C35.5259 29.3381 36 28.1935 36 27V15.75H0ZM6.75 20.25H9C9.59674 20.25 10.169 20.4871 10.591 20.909C11.0129 21.331 11.25 21.9033 11.25 22.5V24.75C11.25 25.3467 11.0129 25.919 10.591 26.341C10.169 26.7629 9.59674 27 9 27H6.75C6.15326 27 5.58097 26.7629 5.15901 26.341C4.73705 25.919 4.5 25.3467 4.5 24.75V22.5C4.5 21.9033 4.73705 21.331 5.15901 20.909C5.58097 20.4871 6.15326 20.25 6.75 20.25Z" fill="white"/>
</svg>
