<svg width="82" height="193" viewBox="0 0 82 193" fill="none" xmlns="http://www.w3.org/2000/svg">
<path d="M24.768 168.427L61.1134 154.007L64.0747 161.471L27.7293 175.891L24.768 168.427ZM20.331 157.244L26.1972 154.917L37.9632 184.572L32.097 186.9L20.331 157.244Z" fill="white"/>
<path d="M18.5744 150.548L15.7875 136.234C15.2161 133.299 15.1645 130.692 15.6326 128.412C16.0972 126.115 17.0795 124.227 18.5793 122.749C20.0791 121.272 22.0855 120.288 24.5985 119.799C26.6547 119.399 28.4892 119.406 30.1023 119.822C31.6944 120.223 33.1056 120.961 34.3361 122.034C35.5456 123.094 36.6045 124.411 37.5129 125.985L39.3185 128.233L41.741 140.675L35.5829 141.929L33.7815 132.676C33.5112 131.288 33.041 130.184 32.371 129.366C31.701 128.548 30.8822 127.997 29.9146 127.711C28.9435 127.407 27.8781 127.368 26.7182 127.594C25.488 127.834 24.4693 128.269 23.662 128.901C22.8547 129.532 22.3045 130.36 22.0114 131.383C21.7182 132.407 21.7085 133.622 21.9822 135.028L23.2294 141.434L55.4156 135.167L56.9553 143.075L18.5744 150.548ZM52.7775 121.618L37.3735 133.7L35.6938 125.354L50.761 113.228L51.13 113.156L52.7775 121.618Z" fill="white"/>
<path d="M18.7346 94.5523L51.0661 105.437L50.9999 114.004L12.0117 99.1734L12.0538 93.7219L18.7346 94.5523ZM51.2164 85.9673L18.7205 96.3784L12.027 97.1861L12.0695 91.6809L51.2827 77.3738L51.2164 85.9673ZM36.6574 86.3383L42.9683 86.3871L42.8088 107.038L36.498 106.99L36.6574 86.3383Z" fill="white"/>
<path d="M54.0424 65.7823L52.3198 74.1194L46.1765 72.7953L47.8882 64.5108C48.3157 62.4418 48.2115 60.6013 47.5757 58.9891C46.9223 57.3733 45.767 56.0193 44.1096 54.9273C42.4558 53.8178 40.349 52.9986 37.7891 52.4697L35.9218 52.0838C33.9581 51.6781 32.1876 51.5317 30.6103 51.6445C29.0367 51.7399 27.658 52.0857 26.4745 52.6821C25.2909 53.2786 24.3235 54.1116 23.5723 55.1813C22.8036 56.2473 22.2616 57.543 21.9465 59.0684L20.175 67.6422L13.9945 66.3652L15.766 57.7914C16.2949 55.2316 17.2169 52.9814 18.5319 51.0411C19.833 49.0795 21.4513 47.4851 23.3868 46.258C25.3222 45.0308 27.4991 44.2283 29.9172 43.8504C32.3215 43.4513 34.8912 43.5344 37.6264 44.0995L39.4411 44.4745C42.1587 45.036 44.5509 45.9782 46.6177 47.301C48.6881 48.6063 50.3686 50.2058 51.6592 52.0996C52.9359 53.9722 53.7898 56.0774 54.2209 58.4151C54.6381 60.7317 54.5786 63.1874 54.0424 65.7823ZM14.9509 61.7364L53.2436 69.6484L51.6134 77.5384L13.3207 69.6264L14.9509 61.7364Z" fill="white"/>
<path d="M63.0352 18.5697L68.8501 20.9527L60.9577 40.2112L55.1429 37.8283L63.0352 18.5697ZM25.7745 22.9485L61.9557 37.776L58.9006 45.2309L22.7194 30.4035L25.7745 22.9485ZM46.3762 14.674L52.0419 16.9959L45.1781 33.7446L39.5124 31.4227L46.3762 14.674ZM32.6587 6.15012L38.4983 8.54328L30.6162 27.777L24.7765 25.3838L32.6587 6.15012Z" fill="white"/>
</svg>
