<svg width="19" height="17" viewBox="0 0 19 17" fill="none" xmlns="http://www.w3.org/2000/svg">
<path d="M17.3435 6.03004C16.997 5.97971 16.6663 5.85188 16.3761 5.65605C16.0859 5.46022 15.8436 5.20145 15.6673 4.899C15.491 4.59655 15.3851 4.25822 15.3577 3.9092C15.3302 3.56018 15.3819 3.20946 15.5088 2.88316C15.5894 2.66985 15.6013 2.43663 15.5427 2.21622C15.4842 1.99581 15.3581 1.79925 15.1822 1.6541C14.4056 1.00196 13.5216 0.489664 12.5697 0.140039C12.3529 0.0595162 12.1163 0.0494555 11.8935 0.11129C11.6707 0.173124 11.473 0.3037 11.3288 0.484414C11.1116 0.762083 10.8341 0.986659 10.5172 1.14111C10.2004 1.29556 9.85251 1.37583 9.50001 1.37583C9.14752 1.37583 8.79965 1.29556 8.48279 1.14111C8.16594 0.986659 7.88841 0.762083 7.67126 0.484414C7.52699 0.3037 7.32937 0.173124 7.10656 0.11129C6.88374 0.0494555 6.64709 0.0595162 6.43033 0.140039C5.55138 0.462826 4.72958 0.923833 3.99595 1.50566C3.81102 1.65206 3.67782 1.85382 3.61585 2.08139C3.55389 2.30897 3.5664 2.55041 3.65158 2.77035C3.78859 3.10528 3.84519 3.46766 3.81686 3.82841C3.78852 4.18917 3.67603 4.53827 3.48841 4.8477C3.30079 5.15713 3.04326 5.41828 2.73648 5.6102C2.4297 5.80213 2.08221 5.91948 1.72189 5.95285C1.48796 5.97786 1.26823 6.07732 1.09507 6.23659C0.921912 6.39586 0.804461 6.60651 0.760013 6.83754C0.649455 7.3848 0.593763 7.94172 0.593763 8.50004C0.59295 8.96745 0.630682 9.43414 0.706575 9.89535C0.744347 10.1338 0.859612 10.3531 1.03455 10.5195C1.20949 10.6858 1.43436 10.7899 1.67439 10.8157C2.04263 10.8502 2.39723 10.9725 2.70853 11.1722C3.01982 11.3719 3.27874 11.6433 3.46361 11.9637C3.64849 12.284 3.75394 12.644 3.77115 13.0134C3.78836 13.3829 3.71682 13.7511 3.56251 14.0872C3.46153 14.3059 3.43648 14.552 3.49135 14.7865C3.54621 15.021 3.67783 15.2304 3.86533 15.3816C4.63727 16.0219 5.51273 16.5259 6.45408 16.8719C6.57445 16.9136 6.70076 16.9357 6.82814 16.9372C7.0028 16.9368 7.17483 16.8946 7.32979 16.814C7.48476 16.7334 7.61814 16.6169 7.71876 16.4741C7.93039 16.1658 8.21406 15.9138 8.54517 15.7399C8.87627 15.5661 9.2448 15.4757 9.61876 15.4766C9.9811 15.4771 10.3383 15.5621 10.662 15.725C10.9857 15.8878 11.2668 16.124 11.4831 16.4147C11.627 16.6081 11.8308 16.7485 12.0628 16.814C12.2947 16.8795 12.5419 16.8665 12.7656 16.7769C13.6264 16.4305 14.4277 15.9517 15.1406 15.3579C15.3197 15.2098 15.4472 15.0087 15.5049 14.7836C15.5625 14.5585 15.5472 14.3209 15.4613 14.105C15.3216 13.7744 15.2607 13.4159 15.2834 13.0577C15.3061 12.6995 15.4117 12.3515 15.5919 12.0412C15.7721 11.7308 16.0221 11.4666 16.3219 11.2694C16.6218 11.0721 16.9633 10.9473 17.3197 10.9047C17.5508 10.8728 17.7657 10.7681 17.9333 10.6058C18.1009 10.4436 18.2125 10.2322 18.2519 10.0022C18.3472 9.50699 18.3989 9.00432 18.4063 8.50004C18.4064 7.96813 18.3567 7.43737 18.2578 6.91473C18.2177 6.68987 18.1078 6.48337 17.9437 6.32456C17.7795 6.16574 17.5695 6.06269 17.3435 6.03004ZM12.4688 8.50004C12.4688 9.0872 12.2947 9.66118 11.9684 10.1494C11.6422 10.6376 11.1786 11.0181 10.6361 11.2428C10.0936 11.4675 9.49672 11.5263 8.92084 11.4117C8.34496 11.2972 7.81598 11.0145 7.40079 10.5993C6.9856 10.1841 6.70286 9.6551 6.58831 9.07922C6.47376 8.50333 6.53255 7.90642 6.75725 7.36395C6.98194 6.82148 7.36246 6.35782 7.85066 6.03161C8.33887 5.7054 8.91285 5.53129 9.50001 5.53129C10.2874 5.53129 11.0425 5.84407 11.5992 6.40082C12.156 6.95756 12.4688 7.71268 12.4688 8.50004Z" fill="#363C43"/>
</svg>
