<svg width="81" height="63" viewBox="0 0 81 63" fill="none" xmlns="http://www.w3.org/2000/svg">
<path d="M23.8855 46.2466C23.7225 46.466 23.7743 46.772 24.004 46.9257C30.182 51.0585 37.7847 52.7169 45.2114 51.5387C52.8047 50.334 59.592 46.2626 64.0801 40.2201C68.5682 34.1775 70.3895 26.6589 69.1434 19.3182C67.9246 12.1385 63.8691 5.70429 57.8438 1.36594C57.6197 1.20461 57.3032 1.25499 57.1403 1.47438C56.9773 1.69377 57.0296 1.99907 57.2536 2.16054C63.061 6.34748 66.9697 12.5529 68.145 19.4766C69.3477 26.5613 67.5899 33.8178 63.2583 39.6496C58.9267 45.4814 52.3761 49.4108 45.0476 50.5735C37.8857 51.7098 30.5542 50.1126 24.5942 46.1311C24.3644 45.9775 24.0484 46.0272 23.8855 46.2466Z" fill="#363C43"/>
<path opacity="0.31" d="M55.9931 47.0027C56.1448 47.2295 56.0776 47.5327 55.8404 47.6754C49.4616 51.5125 41.7844 52.8111 34.4259 51.2847C26.9023 49.724 20.3281 45.3379 16.1496 39.0913C11.9712 32.8447 10.5307 25.2493 12.1451 17.9759C13.724 10.8622 18.0987 4.62643 24.3354 0.576839C24.5673 0.426246 24.8809 0.491469 25.0326 0.718269C25.1844 0.945068 25.1167 1.24754 24.8849 1.39827C18.8735 5.3069 14.6569 11.321 13.1343 18.1811C11.5762 25.2009 12.9665 32.5314 16.9992 38.5602C21.032 44.589 27.3769 48.8221 34.6381 50.3284C41.7343 51.8004 49.1375 50.5502 55.291 46.8539C55.5283 46.7114 55.8413 46.7759 55.9931 47.0027Z" fill="#363C43"/>
<path d="M68.7616 34.7842C68.7616 35.7897 67.9184 36.6048 66.8783 36.6048C65.8383 36.6048 64.9951 35.7897 64.9951 34.7842C64.9951 33.7787 65.8383 32.9636 66.8783 32.9636C67.9184 32.9636 68.7616 33.7787 68.7616 34.7842Z" fill="#363C43"/>
</svg>
