<svg width="27" height="37" viewBox="0 0 27 37" fill="none" xmlns="http://www.w3.org/2000/svg">
<path d="M13.2348 0.747803C5.94524 0.747803 0.0136719 6.71926 0.0136719 14.0688C0.0136719 24.5138 11.9966 35.2785 12.4958 35.7378C12.7155 35.9176 12.9752 36.0174 13.2348 36.0174C13.4944 36.0174 13.754 35.9176 13.9737 35.7378C14.493 35.2785 26.4559 24.5138 26.4559 14.0688C26.4559 6.71926 20.5244 0.747803 13.2348 0.747803ZM13.2348 21.3184C9.18061 21.3184 5.88526 18.0231 5.88526 13.9689C5.88526 9.9147 9.18061 6.6194 13.2348 6.6194C17.289 6.6194 20.5843 9.9147 20.5843 13.9689C20.5843 18.0231 17.2691 21.3184 13.2348 21.3184Z" fill="black"/>
</svg>
