<svg width="30" height="30" viewBox="0 0 30 30" fill="none" xmlns="http://www.w3.org/2000/svg">
<path d="M25.5469 13.8867H8.40531L18.6651 4.98047C18.8291 4.83691 18.7295 4.57031 18.5127 4.57031H15.92C15.8057 4.57031 15.6973 4.61133 15.6123 4.68457L4.54105 14.291C4.43965 14.3789 4.35833 14.4876 4.3026 14.6096C4.24686 14.7317 4.21802 14.8643 4.21802 14.9985C4.21802 15.1327 4.24686 15.2654 4.3026 15.3874C4.35833 15.5095 4.43965 15.6182 4.54105 15.7061L15.6768 25.3711C15.7207 25.4092 15.7735 25.4297 15.8291 25.4297H18.5098C18.7266 25.4297 18.8262 25.1602 18.6621 25.0195L8.40531 16.1133H25.5469C25.6758 16.1133 25.7813 16.0078 25.7813 15.8789V14.1211C25.7813 13.9922 25.6758 13.8867 25.5469 13.8867Z" fill="#363C43"/>
</svg>
