<svg width="30" height="30" viewBox="0 0 30 30" fill="none" xmlns="http://www.w3.org/2000/svg">
<g clip-path="url(#clip0_29_82)">
<path d="M9.50813 2.4558C9.63593 2.24246 9.84324 2.08864 10.0845 2.02816C10.3257 1.96767 10.581 2.0055 10.7944 2.1333C11.0077 2.2611 11.1615 2.46841 11.222 2.70963C11.2825 2.95085 11.2447 3.20621 11.1169 3.41955L6.34312 11.3752H23.6569L18.8812 3.41955C18.7534 3.20621 18.7156 2.95085 18.7761 2.70963C18.8366 2.46841 18.9904 2.2611 19.2037 2.1333C19.4171 2.0055 19.6724 1.96767 19.9137 2.02816C20.1549 2.08864 20.3622 2.24246 20.49 2.4558L25.8431 11.3752H29.0625C29.3111 11.3752 29.5496 11.4739 29.7254 11.6498C29.9012 11.8256 30 12.064 30 12.3127V16.0627C30 16.3113 29.9012 16.5498 29.7254 16.7256C29.5496 16.9014 29.3111 17.0002 29.0625 17.0002H28.125V26.3752C28.125 27.3697 27.7299 28.3236 27.0266 29.0268C26.3234 29.7301 25.3696 30.1252 24.375 30.1252H5.625C4.63044 30.1252 3.67661 29.7301 2.97335 29.0268C2.27009 28.3236 1.875 27.3697 1.875 26.3752V17.0002H0.9375C0.68886 17.0002 0.450403 16.9014 0.274587 16.7256C0.098772 16.5498 0 16.3113 0 16.0627V12.3127C0 12.064 0.098772 11.8256 0.274587 11.6498C0.450403 11.4739 0.68886 11.3752 0.9375 11.3752H4.15688L9.50625 2.4558H9.50813ZM6.5625 19.8127C6.5625 19.564 6.46373 19.3256 6.28791 19.1498C6.1121 18.9739 5.87364 18.8752 5.625 18.8752C5.37636 18.8752 5.1379 18.9739 4.96209 19.1498C4.78627 19.3256 4.6875 19.564 4.6875 19.8127V25.4377C4.6875 25.6863 4.78627 25.9248 4.96209 26.1006C5.1379 26.2764 5.37636 26.3752 5.625 26.3752C5.87364 26.3752 6.1121 26.2764 6.28791 26.1006C6.46373 25.9248 6.5625 25.6863 6.5625 25.4377V19.8127ZM11.25 19.8127C11.25 19.564 11.1512 19.3256 10.9754 19.1498C10.7996 18.9739 10.5611 18.8752 10.3125 18.8752C10.0639 18.8752 9.8254 18.9739 9.64959 19.1498C9.47377 19.3256 9.375 19.564 9.375 19.8127V25.4377C9.375 25.6863 9.47377 25.9248 9.64959 26.1006C9.8254 26.2764 10.0639 26.3752 10.3125 26.3752C10.5611 26.3752 10.7996 26.2764 10.9754 26.1006C11.1512 25.9248 11.25 25.6863 11.25 25.4377V19.8127ZM15.9375 19.8127C15.9375 19.564 15.8387 19.3256 15.6629 19.1498C15.4871 18.9739 15.2486 18.8752 15 18.8752C14.7514 18.8752 14.5129 18.9739 14.3371 19.1498C14.1613 19.3256 14.0625 19.564 14.0625 19.8127V25.4377C14.0625 25.6863 14.1613 25.9248 14.3371 26.1006C14.5129 26.2764 14.7514 26.3752 15 26.3752C15.2486 26.3752 15.4871 26.2764 15.6629 26.1006C15.8387 25.9248 15.9375 25.6863 15.9375 25.4377V19.8127ZM20.625 19.8127C20.625 19.564 20.5262 19.3256 20.3504 19.1498C20.1746 18.9739 19.9361 18.8752 19.6875 18.8752C19.4389 18.8752 19.2004 18.9739 19.0246 19.1498C18.8488 19.3256 18.75 19.564 18.75 19.8127V25.4377C18.75 25.6863 18.8488 25.9248 19.0246 26.1006C19.2004 26.2764 19.4389 26.3752 19.6875 26.3752C19.9361 26.3752 20.1746 26.2764 20.3504 26.1006C20.5262 25.9248 20.625 25.6863 20.625 25.4377V19.8127ZM25.3125 19.8127C25.3125 19.564 25.2137 19.3256 25.0379 19.1498C24.8621 18.9739 24.6236 18.8752 24.375 18.8752C24.1264 18.8752 23.8879 18.9739 23.7121 19.1498C23.5363 19.3256 23.4375 19.564 23.4375 19.8127V25.4377C23.4375 25.6863 23.5363 25.9248 23.7121 26.1006C23.8879 26.2764 24.1264 26.3752 24.375 26.3752C24.6236 26.3752 24.8621 26.2764 25.0379 26.1006C25.2137 25.9248 25.3125 25.6863 25.3125 25.4377V19.8127Z" fill="white"/>
</g>
<defs>
<clipPath id="clip0_29_82">
<rect width="30" height="30" fill="white"/>
</clipPath>
</defs>
</svg>
