<svg width="20" height="22" viewBox="0 0 20 22" fill="none" xmlns="http://www.w3.org/2000/svg">
<path d="M10.3786 5.48682H4.56463C4.37189 5.48682 4.18704 5.56338 4.05075 5.69967C3.91446 5.83596 3.83789 6.02081 3.83789 6.21356C3.83789 6.4063 3.91446 6.59115 4.05075 6.72744C4.18704 6.86373 4.37189 6.9403 4.56463 6.9403H10.3786C10.5713 6.9403 10.7562 6.86373 10.8924 6.72744C11.0287 6.59115 11.1053 6.4063 11.1053 6.21356C11.1053 6.02081 11.0287 5.83596 10.8924 5.69967C10.7562 5.56338 10.5713 5.48682 10.3786 5.48682Z" fill="white"/>
<path d="M10.3786 9.37451H4.56463C4.37189 9.37451 4.18704 9.45108 4.05075 9.58737C3.91446 9.72366 3.83789 9.90851 3.83789 10.1013C3.83789 10.294 3.91446 10.4788 4.05075 10.6151C4.18704 10.7514 4.37189 10.828 4.56463 10.828H10.3786C10.5713 10.828 10.7562 10.7514 10.8924 10.6151C11.0287 10.4788 11.1053 10.294 11.1053 10.1013C11.1053 9.90851 11.0287 9.72366 10.8924 9.58737C10.7562 9.45108 10.5713 9.37451 10.3786 9.37451Z" fill="white"/>
<path d="M10.3786 13.3501H4.56463C4.37189 13.3501 4.18704 13.4267 4.05075 13.563C3.91446 13.6992 3.83789 13.8841 3.83789 14.0768C3.83789 14.2696 3.91446 14.4544 4.05075 14.5907C4.18704 14.727 4.37189 14.8036 4.56463 14.8036H10.3786C10.5713 14.8036 10.7562 14.727 10.8924 14.5907C11.0287 14.4544 11.1053 14.2696 11.1053 14.0768C11.1053 13.8841 11.0287 13.6992 10.8924 13.563C10.7562 13.4267 10.5713 13.3501 10.3786 13.3501Z" fill="white"/>
<path d="M17.1729 0H2.82706C2.45424 0.00095104 2.08527 0.0754462 1.74129 0.219218C1.39731 0.36299 1.08507 0.573215 0.822461 0.837849C0.559852 1.10248 0.352033 1.41633 0.210908 1.7614C0.0697826 2.10648 -0.00187579 2.47601 3.73196e-05 2.84883V20.574C-0.000438203 20.7559 0.0475098 20.9347 0.138957 21.0919C0.230404 21.2491 0.362055 21.3792 0.520388 21.4687C0.678722 21.5582 0.858031 21.604 1.0399 21.6013C1.22177 21.5986 1.39965 21.5476 1.55526 21.4534L4.22967 19.8473C4.27002 19.8222 4.31659 19.8089 4.36412 19.8089C4.41165 19.8089 4.45822 19.8222 4.49857 19.8473L7.47094 21.6278C7.62728 21.7275 7.8088 21.7804 7.99419 21.7804C8.18074 21.7795 8.36373 21.7293 8.52471 21.6351L11.5116 19.8473C11.552 19.8222 11.5985 19.8089 11.6461 19.8089C11.6936 19.8089 11.7402 19.8222 11.7805 19.8473L14.4404 21.4534C14.5965 21.5462 14.7748 21.5951 14.9564 21.5951C15.138 21.5951 15.3162 21.5462 15.4724 21.4534C15.6287 21.364 15.7587 21.235 15.8493 21.0793C15.9399 20.9237 15.9878 20.7469 15.9883 20.5668V8.31392H18.2703C18.7285 8.31201 19.1673 8.12917 19.4912 7.80521C19.8152 7.48125 19.998 7.04242 20 6.58428V2.84883C20.0019 2.47601 19.9302 2.10648 19.7891 1.7614C19.648 1.41633 19.4401 1.10248 19.1775 0.837849C18.9149 0.573215 18.6027 0.36299 18.2587 0.219218C17.9147 0.0754462 17.5458 0.00095104 17.1729 0ZM14.5349 19.811L12.5291 18.6046C12.2618 18.4459 11.9568 18.3622 11.6461 18.3622C11.3353 18.3622 11.0303 18.4459 10.7631 18.6046L8.00146 20.2616L5.24711 18.5973C4.97672 18.4356 4.66728 18.3508 4.35221 18.3521C4.03714 18.3533 3.7284 18.4407 3.45933 18.6046L1.45352 19.8182V2.84883C1.45063 2.66662 1.48402 2.48567 1.55175 2.3165C1.61948 2.14733 1.7202 1.99332 1.84803 1.86346C1.97587 1.7336 2.12826 1.63047 2.29634 1.56008C2.46443 1.4897 2.64484 1.45346 2.82706 1.45348H14.8328C14.6409 1.81911 14.5388 2.22516 14.5349 2.63807V19.7892V19.811ZM18.5465 6.58428C18.5465 6.65752 18.5174 6.72776 18.4656 6.77955C18.4138 6.83134 18.3436 6.86044 18.2703 6.86044H15.9883V2.65987C15.9855 2.50249 16.014 2.3461 16.0722 2.19985C16.1304 2.05361 16.2172 1.92043 16.3275 1.80811C16.4378 1.69579 16.5694 1.60658 16.7145 1.54569C16.8597 1.4848 17.0155 1.45346 17.1729 1.45348C17.5372 1.45348 17.8866 1.59819 18.1442 1.85578C18.4018 2.11337 18.5465 2.46274 18.5465 2.82702V6.58428Z" fill="white"/>
</svg>
