<svg width="24" height="22" viewBox="0 0 24 22" fill="none" xmlns="http://www.w3.org/2000/svg">
<path d="M0 8.7999L8.66339 13.7599L10.9141 10.9361L1.79174 6.11938L0 8.7999Z" fill="white"/>
<path d="M13.0615 10.9256L15.3206 13.76L23.9998 8.79085L22.1837 5.92383L13.0615 10.9256Z" fill="white"/>
<path d="M3.10645 5.22445L11.9858 9.91281L20.8778 5.03727L12.0051 0.846191L3.10645 5.22445Z" fill="white"/>
<path d="M2.26172 16.3874L11.2892 21.154V12.7194L9.38593 15.1074C9.16993 15.3785 8.78865 15.4515 8.48783 15.2792L2.26172 11.7146V16.3874Z" fill="white"/>
<path d="M12.6943 12.7192V21.1319L21.7218 16.1752V11.7144L15.4957 15.279C15.195 15.4511 14.8136 15.3782 14.5977 15.1072L12.6943 12.7192Z" fill="white"/>
</svg>
