<svg width="22" height="22" viewBox="0 0 22 22" fill="none" xmlns="http://www.w3.org/2000/svg">
<path d="M16.9062 2.40625H1.09375C0.713477 2.40625 0.40625 2.71348 0.40625 3.09375V18.9062C0.40625 19.2865 0.713477 19.5938 1.09375 19.5938H16.9062C17.2865 19.5938 17.5938 19.2865 17.5938 18.9062V3.09375C17.5938 2.71348 17.2865 2.40625 16.9062 2.40625ZM7.45742 16.4355H6.36602C6.31875 16.4355 6.26934 16.4119 6.23926 16.3732L5.47656 15.4387L4.71387 16.3732C4.69899 16.3927 4.6798 16.4085 4.65781 16.4193C4.63582 16.4301 4.61162 16.4357 4.58711 16.4355H3.4957C3.35391 16.4355 3.27656 16.2658 3.37109 16.1541L4.71816 14.5041L3.40332 12.8949C3.31094 12.7832 3.38828 12.6135 3.53008 12.6135H4.62363C4.6709 12.6135 4.72031 12.6371 4.75039 12.6758L5.48086 13.5695L6.21133 12.6758C6.24356 12.635 6.28867 12.6135 6.33809 12.6135H7.42949C7.57129 12.6135 7.64863 12.7832 7.55625 12.8949L6.23926 14.502L7.58633 16.152C7.67656 16.2658 7.59922 16.4355 7.45742 16.4355ZM7.625 8.22852C7.625 8.27578 7.59492 8.31445 7.55625 8.31445H6.07812V9.79043C6.07812 9.83125 6.03945 9.86133 5.99219 9.86133H4.96094C4.91367 9.86133 4.875 9.83125 4.875 9.79258V8.31445H3.39687C3.3582 8.31445 3.32812 8.27578 3.32812 8.22852V7.19727C3.32812 7.15 3.3582 7.11133 3.39687 7.11133H4.875V5.6332C4.875 5.59453 4.91367 5.56445 4.96094 5.56445H5.99219C6.03945 5.56445 6.07812 5.59453 6.07812 5.6332V7.11133H7.5541C7.59492 7.11133 7.625 7.15 7.625 7.19727V8.22852ZM14.6719 16.1562C14.6719 16.2035 14.6418 16.2422 14.6031 16.2422H10.4438C10.4051 16.2422 10.375 16.2035 10.375 16.1562V15.125C10.375 15.0777 10.4051 15.0391 10.4438 15.0391H14.601C14.6418 15.0391 14.6719 15.0777 14.6719 15.125V16.1562ZM14.6719 13.9219C14.6719 13.9691 14.6418 14.0078 14.6031 14.0078H10.4438C10.4051 14.0078 10.375 13.9691 10.375 13.9219V12.8906C10.375 12.8434 10.4051 12.8047 10.4438 12.8047H14.601C14.6418 12.8047 14.6719 12.8434 14.6719 12.8906V13.9219ZM14.6719 8.22852C14.6719 8.27578 14.6418 8.31445 14.6031 8.31445H10.4438C10.4051 8.31445 10.375 8.27578 10.375 8.22852V7.19727C10.375 7.15 10.4051 7.11133 10.4438 7.11133H14.601C14.6418 7.11133 14.6719 7.15 14.6719 7.19727V8.22852Z" fill="#363C43"/>
</svg>
