<svg width="30" height="30" viewBox="0 0 30 30" fill="none" xmlns="http://www.w3.org/2000/svg">
<path d="M29.9539 26.6795C29.8395 25.871 26.9545 7.25918 26.6432 4.96113C26.4875 3.80268 25.4925 2.91656 24.303 2.91656H21.4615V1.56281C21.4615 0.931875 20.9482 0.418535 20.3173 0.418535H20.0825C19.4515 0.418535 18.9383 0.931875 18.9383 1.56281V2.9165H14.185V1.56281C14.185 0.931875 13.6717 0.418535 13.0407 0.418535H12.806C12.175 0.418535 11.6617 0.931875 11.6617 1.56281V2.9165H6.9085V1.56281C6.9085 0.931875 6.39516 0.418535 5.76422 0.418535H5.52949C4.8985 0.418535 4.38521 0.931875 4.38521 1.56281V2.9165H2.36203C1.05961 2.9165 0 3.97611 0 5.27848C0 5.94914 0 26.8866 0 27.2194C0 28.5218 1.05961 29.5814 2.36203 29.5814C2.75285 29.5814 27.2114 29.5814 27.6695 29.5814C28.6539 29.5814 29.5444 28.9612 29.8844 28.0414C29.9307 27.9189 30.0723 27.4595 29.9539 26.6795ZM19.8185 1.56281C19.8185 1.41721 19.9369 1.29873 20.0826 1.29873H20.3173C20.4629 1.29873 20.5814 1.41721 20.5814 1.56281V5.47494C20.5814 5.62055 20.4629 5.73902 20.3173 5.73902H20.0826C19.9369 5.73902 19.8185 5.62055 19.8185 5.47494V1.56281ZM19.2036 6.20672C19.2238 6.23103 19.2454 6.25418 19.2675 6.27668C19.2711 6.28037 19.2747 6.28412 19.2784 6.28775C19.301 6.31014 19.3245 6.33141 19.3489 6.3518C19.3533 6.35555 19.3578 6.35918 19.3623 6.36287C19.387 6.38303 19.4125 6.40219 19.4389 6.42018C19.443 6.42293 19.4471 6.42557 19.4513 6.42826C19.479 6.4466 19.5073 6.46418 19.5366 6.48012C19.5381 6.48094 19.5397 6.48164 19.5412 6.48252C19.5704 6.49822 19.6003 6.51264 19.631 6.52582C19.6342 6.52723 19.6374 6.52875 19.6407 6.53016C19.671 6.54287 19.7021 6.55412 19.7337 6.56426C19.7389 6.56596 19.7442 6.56771 19.7495 6.5693C19.7806 6.57879 19.8123 6.58687 19.8445 6.59379C19.8502 6.59502 19.8558 6.59613 19.8616 6.59725C19.8943 6.60369 19.9275 6.60891 19.9612 6.61248C19.9656 6.61295 19.9701 6.61318 19.9746 6.61365C20.0102 6.61699 20.0461 6.6191 20.0825 6.6191H20.3173C20.3537 6.6191 20.3896 6.61699 20.4253 6.61365C20.4297 6.61324 20.4342 6.61301 20.4386 6.61248C20.4723 6.60891 20.5055 6.60369 20.5382 6.59725C20.544 6.59613 20.5496 6.59502 20.5553 6.59379C20.5876 6.58693 20.6193 6.57885 20.6503 6.5693C20.6556 6.56766 20.6609 6.5659 20.6661 6.56426C20.6977 6.55412 20.7288 6.54287 20.7591 6.53016C20.7624 6.52875 20.7656 6.52723 20.7688 6.52582C20.7995 6.51264 20.8295 6.49822 20.8586 6.48252C20.8601 6.4817 20.8617 6.481 20.8632 6.48012C20.8926 6.46418 20.9208 6.4466 20.9486 6.42826C20.9527 6.42557 20.9568 6.42293 20.9609 6.42018C20.9873 6.40219 21.0127 6.38297 21.0375 6.36287C21.042 6.35918 21.0465 6.35555 21.0509 6.3518C21.0753 6.33135 21.0988 6.31014 21.1214 6.28775C21.1251 6.28412 21.1287 6.28037 21.1323 6.27668C21.1543 6.25418 21.1758 6.23103 21.1961 6.20672C21.1969 6.2226 21.1973 6.23848 21.1973 6.25441C21.1973 6.80449 20.7498 7.25197 20.1997 7.25197C19.6496 7.25197 19.2021 6.80449 19.2021 6.25441C19.2024 6.23848 19.2028 6.2226 19.2036 6.20672ZM12.5421 1.56281C12.5421 1.41721 12.6605 1.29873 12.8061 1.29873H13.0409C13.1865 1.29873 13.3049 1.41721 13.3049 1.56281V5.47494C13.3049 5.62055 13.1865 5.73902 13.0409 5.73902H12.8061C12.6605 5.73902 12.5421 5.62055 12.5421 5.47494V1.56281ZM11.927 6.20672C11.9473 6.23103 11.9688 6.25418 11.9909 6.27668C11.9946 6.28037 11.9981 6.28412 12.0018 6.28775C12.0244 6.31014 12.0479 6.33141 12.0723 6.3518C12.0768 6.35555 12.0812 6.35918 12.0857 6.36287C12.1104 6.38303 12.1359 6.40219 12.1624 6.42018C12.1664 6.42293 12.1706 6.42557 12.1747 6.42826C12.2024 6.4466 12.2307 6.46418 12.26 6.48012C12.2615 6.48094 12.2631 6.48164 12.2646 6.48252C12.2938 6.49822 12.3238 6.51264 12.3544 6.52582C12.3577 6.52723 12.3608 6.52875 12.3641 6.53016C12.3945 6.54287 12.4256 6.55412 12.4571 6.56426C12.4624 6.56596 12.4676 6.56771 12.4729 6.5693C12.504 6.57879 12.5357 6.58687 12.5679 6.59379C12.5736 6.59502 12.5793 6.59613 12.585 6.59725C12.6178 6.60369 12.6509 6.60891 12.6846 6.61248C12.6891 6.61295 12.6935 6.61318 12.698 6.61365C12.7336 6.61699 12.7696 6.6191 12.806 6.6191H13.0407C13.0772 6.6191 13.1131 6.61699 13.1487 6.61365C13.1532 6.61324 13.1577 6.61301 13.1621 6.61248C13.1958 6.60891 13.229 6.60369 13.2618 6.59725C13.2675 6.59613 13.2732 6.59502 13.2789 6.59379C13.3111 6.58693 13.3428 6.57885 13.3738 6.5693C13.3791 6.56766 13.3844 6.5659 13.3897 6.56426C13.4213 6.55412 13.4524 6.54287 13.4827 6.53016C13.4859 6.52875 13.4891 6.52723 13.4924 6.52582C13.523 6.51264 13.553 6.49822 13.5821 6.48252C13.5837 6.4817 13.5853 6.481 13.5868 6.48012C13.6161 6.46418 13.6444 6.4466 13.6721 6.42826C13.6762 6.42557 13.6804 6.42293 13.6844 6.42018C13.7108 6.40219 13.7362 6.38297 13.761 6.36287C13.7655 6.35918 13.77 6.35555 13.7745 6.3518C13.7988 6.33135 13.8223 6.31014 13.8449 6.28775C13.8486 6.28412 13.8522 6.28037 13.8558 6.27668C13.8778 6.25418 13.8993 6.23103 13.9196 6.20672C13.9204 6.2226 13.9208 6.23848 13.9208 6.25441C13.9208 6.80449 13.4733 7.25197 12.9231 7.25197C12.373 7.25197 11.9255 6.80449 11.9255 6.25441C11.9259 6.23848 11.9262 6.2226 11.927 6.20672ZM5.26547 1.56281C5.26547 1.41721 5.38395 1.29873 5.52955 1.29873H5.76428C5.90988 1.29873 6.02836 1.41721 6.02836 1.56281C6.02836 2.29816 6.02836 4.72072 6.02836 5.47494C6.02836 5.62055 5.90988 5.73902 5.76428 5.73902H5.52949C5.38389 5.73902 5.26541 5.62055 5.26541 5.47494C5.26547 5.12121 5.26547 1.93992 5.26547 1.56281ZM4.98346 6.48023C4.98498 6.48105 4.98656 6.48176 4.98809 6.48264C5.01727 6.49834 5.04727 6.51275 5.07785 6.52594C5.08113 6.52734 5.0843 6.52887 5.08758 6.53027C5.11793 6.54299 5.14904 6.55424 5.18057 6.56437C5.18584 6.56607 5.19105 6.56783 5.19633 6.56941C5.22744 6.57891 5.25914 6.58699 5.29131 6.59391C5.29699 6.59514 5.30268 6.59625 5.30842 6.59736C5.34117 6.60381 5.37434 6.60902 5.40803 6.6126C5.41248 6.61307 5.41693 6.6133 5.42145 6.61377C5.45701 6.61711 5.49299 6.61922 5.52943 6.61922H5.76416C5.80061 6.61922 5.83652 6.61711 5.87215 6.61377C5.8766 6.61336 5.88111 6.61312 5.88557 6.6126C5.91926 6.60902 5.95242 6.60381 5.98518 6.59736C5.99092 6.59625 5.9966 6.59514 6.00229 6.59391C6.03451 6.58705 6.06621 6.57896 6.09727 6.56941C6.10254 6.56777 6.10781 6.56601 6.11309 6.56437C6.14467 6.55424 6.17578 6.54299 6.20607 6.53027C6.20936 6.52887 6.21252 6.52734 6.2158 6.52594C6.24645 6.51275 6.27645 6.49834 6.30557 6.48264C6.30709 6.48182 6.30867 6.48111 6.3102 6.48023C6.33949 6.4643 6.36785 6.44672 6.39551 6.42838C6.39961 6.42568 6.40377 6.42305 6.40781 6.42029C6.43424 6.4023 6.45967 6.38309 6.48445 6.36299C6.48897 6.3593 6.49342 6.35566 6.49787 6.35191C6.52225 6.33146 6.54574 6.31025 6.56836 6.28787C6.57205 6.28424 6.57563 6.28049 6.57926 6.2768C6.60129 6.25424 6.62279 6.23109 6.64307 6.20678C6.64383 6.22266 6.64424 6.23853 6.64424 6.25447C6.64424 6.80455 6.19676 7.25203 5.64662 7.25203C5.07674 7.25203 4.62252 6.77332 4.65023 6.20672C4.74018 6.3143 4.85684 6.41115 4.98346 6.48023ZM0.880254 5.27848C0.880254 4.46144 1.545 3.7967 2.36209 3.7967H4.38533V4.86451C3.1183 6.01582 3.93557 8.13223 5.64697 8.13223C6.68238 8.13223 7.52479 7.28982 7.52479 6.25441C7.52479 5.72215 7.29791 5.21818 6.90861 4.86445V3.79676H11.6619V4.86457C11.2726 5.2183 11.0457 5.72221 11.0457 6.25447C11.0457 7.28994 11.8881 8.13228 12.9235 8.13228C13.9589 8.13228 14.8013 7.28988 14.8013 6.25447C14.8013 5.72221 14.5744 5.21824 14.1851 4.86451V3.79676H18.9384V4.86457C18.5491 5.2183 18.3222 5.72221 18.3222 6.25447C18.3222 7.28994 19.1646 8.13228 20.2 8.13228C21.2355 8.13228 22.0778 7.28988 22.0778 6.25447C22.0778 5.72221 21.851 5.21824 21.4617 4.86451V3.79676H24.3031C25.1202 3.79676 25.785 4.4615 25.785 5.27853V9.77537H0.880254V5.27848ZM29.0599 27.7331C28.8459 28.3122 28.2871 28.7013 27.6695 28.7013H26.1405C26.4682 28.2957 26.665 27.7802 26.665 27.2194V21.3903C26.665 21.1473 26.468 20.9503 26.2249 20.9503C25.9819 20.9503 25.7848 21.1473 25.7848 21.3903V27.2194C25.7848 28.0365 25.12 28.7013 24.3029 28.7013H2.36203C1.54494 28.7013 0.880195 28.0365 0.880195 27.2194V12.2987H11.8995C12.1425 12.2987 12.3396 12.1017 12.3396 11.8586C12.3396 11.6156 12.1425 11.4185 11.8995 11.4185H0.880254V10.6556H25.7849V11.4185H13.9474C13.7044 11.4185 13.5073 11.6156 13.5073 11.8586C13.5073 12.1017 13.7044 12.2987 13.9474 12.2987H25.7849V19.3365C25.7849 19.5796 25.982 19.7766 26.225 19.7766C26.4681 19.7766 26.6651 19.5796 26.6651 19.3365C26.6651 18.9919 26.6651 11.3944 26.6651 11.0489L29.0818 26.7996C29.0821 26.8018 29.0825 26.804 29.0828 26.8062C29.1759 27.4132 29.0623 27.7269 29.0599 27.7331Z" fill="#363C43"/>
<path d="M10.0307 14.5552H8.5817C8.33865 14.5552 8.1416 14.7522 8.1416 14.9953C8.1416 15.2383 8.33865 15.4353 8.5817 15.4353H10.0307C10.2738 15.4353 10.4708 15.2383 10.4708 14.9953C10.4708 14.7522 10.2738 14.5552 10.0307 14.5552Z" fill="#363C43"/>
<path d="M14.0592 14.5552H12.61C12.367 14.5552 12.1699 14.7522 12.1699 14.9953C12.1699 15.2383 12.367 15.4353 12.61 15.4353H14.0592C14.3023 15.4353 14.4993 15.2383 14.4993 14.9953C14.4993 14.7522 14.3023 14.5552 14.0592 14.5552Z" fill="#363C43"/>
<path d="M18.0875 14.5552H16.6383C16.3953 14.5552 16.1982 14.7522 16.1982 14.9953C16.1982 15.2383 16.3953 15.4353 16.6383 15.4353H18.0875C18.3306 15.4353 18.5276 15.2383 18.5276 14.9953C18.5277 14.7522 18.3306 14.5552 18.0875 14.5552Z" fill="#363C43"/>
<path d="M22.1148 14.5552H20.6657C20.4226 14.5552 20.2256 14.7522 20.2256 14.9953C20.2256 15.2383 20.4226 15.4353 20.6657 15.4353H22.1148C22.3579 15.4353 22.5549 15.2383 22.5549 14.9953C22.555 14.7522 22.358 14.5552 22.1148 14.5552Z" fill="#363C43"/>
<path d="M6.00252 18.101H4.55338C4.31033 18.101 4.11328 18.2981 4.11328 18.5411C4.11328 18.7842 4.31033 18.9812 4.55338 18.9812H6.00252C6.24563 18.9812 6.44262 18.7842 6.44262 18.5411C6.44268 18.298 6.24568 18.101 6.00252 18.101Z" fill="#363C43"/>
<path d="M10.0307 18.101H8.5817C8.33865 18.101 8.1416 18.2981 8.1416 18.5411C8.1416 18.7842 8.33865 18.9812 8.5817 18.9812H10.0307C10.2738 18.9812 10.4708 18.7842 10.4708 18.5411C10.4708 18.298 10.2738 18.101 10.0307 18.101Z" fill="#363C43"/>
<path d="M14.0592 18.101H12.61C12.367 18.101 12.1699 18.2981 12.1699 18.5411C12.1699 18.7842 12.367 18.9812 12.61 18.9812H14.0592C14.3023 18.9812 14.4993 18.7842 14.4993 18.5411C14.4993 18.298 14.3023 18.101 14.0592 18.101Z" fill="#363C43"/>
<path d="M18.0875 18.101H16.6383C16.3953 18.101 16.1982 18.2981 16.1982 18.5411C16.1982 18.7842 16.3953 18.9812 16.6383 18.9812H18.0875C18.3306 18.9812 18.5276 18.7842 18.5276 18.5411C18.5277 18.298 18.3306 18.101 18.0875 18.101Z" fill="#363C43"/>
<path d="M22.1148 18.101H20.6657C20.4226 18.101 20.2256 18.2981 20.2256 18.5411C20.2256 18.7842 20.4226 18.9812 20.6657 18.9812H22.1148C22.3579 18.9812 22.5549 18.7842 22.5549 18.5411C22.555 18.298 22.358 18.101 22.1148 18.101Z" fill="#363C43"/>
<path d="M6.00252 21.6469H4.55338C4.31033 21.6469 4.11328 21.844 4.11328 22.087C4.11328 22.3301 4.31033 22.5271 4.55338 22.5271H6.00252C6.24563 22.5271 6.44262 22.3301 6.44262 22.087C6.44268 21.844 6.24568 21.6469 6.00252 21.6469Z" fill="#363C43"/>
<path d="M10.0307 21.6469H8.5817C8.33865 21.6469 8.1416 21.844 8.1416 22.087C8.1416 22.3301 8.33865 22.5271 8.5817 22.5271H10.0307C10.2738 22.5271 10.4708 22.3301 10.4708 22.087C10.4708 21.844 10.2738 21.6469 10.0307 21.6469Z" fill="#363C43"/>
<path d="M14.0592 21.6469H12.61C12.367 21.6469 12.1699 21.844 12.1699 22.087C12.1699 22.3301 12.367 22.5271 12.61 22.5271H14.0592C14.3023 22.5271 14.4993 22.3301 14.4993 22.087C14.4993 21.844 14.3023 21.6469 14.0592 21.6469Z" fill="#363C43"/>
<path d="M18.0875 21.6469H16.6383C16.3953 21.6469 16.1982 21.844 16.1982 22.087C16.1982 22.3301 16.3953 22.5271 16.6383 22.5271H18.0875C18.3306 22.5271 18.5276 22.3301 18.5276 22.087C18.5277 21.844 18.3306 21.6469 18.0875 21.6469Z" fill="#363C43"/>
<path d="M22.1148 21.6469H20.6657C20.4226 21.6469 20.2256 21.844 20.2256 22.087C20.2256 22.3301 20.4226 22.5271 20.6657 22.5271H22.1148C22.3579 22.5271 22.5549 22.3301 22.5549 22.087C22.555 21.844 22.358 21.6469 22.1148 21.6469Z" fill="#363C43"/>
<path d="M6.00252 25.1929H4.55338C4.31033 25.1929 4.11328 25.39 4.11328 25.633C4.11328 25.8761 4.31033 26.0731 4.55338 26.0731H6.00252C6.24563 26.0731 6.44262 25.8761 6.44262 25.633C6.44268 25.39 6.24568 25.1929 6.00252 25.1929Z" fill="#363C43"/>
<path d="M10.0307 25.1929H8.5817C8.33865 25.1929 8.1416 25.39 8.1416 25.633C8.1416 25.8761 8.33865 26.0731 8.5817 26.0731H10.0307C10.2738 26.0731 10.4708 25.8761 10.4708 25.633C10.4708 25.39 10.2738 25.1929 10.0307 25.1929Z" fill="#363C43"/>
<path d="M14.0592 25.1929H12.61C12.367 25.1929 12.1699 25.39 12.1699 25.633C12.1699 25.8761 12.367 26.0731 12.61 26.0731H14.0592C14.3023 26.0731 14.4993 25.8761 14.4993 25.633C14.4993 25.39 14.3023 25.1929 14.0592 25.1929Z" fill="#363C43"/>
<path d="M18.0875 25.1929H16.6383C16.3953 25.1929 16.1982 25.39 16.1982 25.633C16.1982 25.8761 16.3953 26.0731 16.6383 26.0731H18.0875C18.3306 26.0731 18.5276 25.8761 18.5276 25.633C18.5277 25.39 18.3306 25.1929 18.0875 25.1929Z" fill="#363C43"/>
</svg>
