<svg width="23" height="23" viewBox="0 0 23 23" fill="none" xmlns="http://www.w3.org/2000/svg">
<path fill-rule="evenodd" clip-rule="evenodd" d="M11.5 22C17.299 22 22 17.299 22 11.5C22 5.70101 17.299 1 11.5 1C5.70101 1 1 5.70101 1 11.5C1 17.299 5.70101 22 11.5 22ZM11.5 23C17.8513 23 23 17.8513 23 11.5C23 5.14873 17.8513 0 11.5 0C5.14873 0 0 5.14873 0 11.5C0 17.8513 5.14873 23 11.5 23Z" fill="#FD9D08"/>
<path fill-rule="evenodd" clip-rule="evenodd" d="M17.7612 7.16293C18.0548 7.40484 18.0814 7.82626 17.8203 8.09917L10.4699 15.7823C10.2074 16.0566 9.75676 16.0741 9.47126 15.821L5.21784 12.0501C4.95258 11.8149 4.92719 11.4231 5.15477 11.1552C5.40589 10.8595 5.87353 10.8189 6.1724 11.072L9.47248 13.8674C9.75927 14.1103 10.2008 14.0886 10.4592 13.8189L16.7816 7.2174C17.0374 6.95025 17.4737 6.92604 17.7612 7.16293Z" fill="#FD9D08"/>
</svg>
