<svg width="21" height="21" viewBox="0 0 21 21" fill="none" xmlns="http://www.w3.org/2000/svg">
<g clip-path="url(#clip0_29_31)">
<path d="M10.5 -3.05176e-05C16.2991 -3.05176e-05 21 4.70082 21 10.5C21 16.2991 16.2991 21 10.5 21C4.70085 21 0 16.2991 0 10.5C0 4.70082 4.70085 -3.05176e-05 10.5 -3.05176e-05ZM9.5235 5.86002C9.32912 5.86002 9.14271 5.93724 9.00526 6.07468C8.86782 6.21213 8.7906 6.39854 8.7906 6.59292V12.453C8.7906 12.8583 9.1182 13.1859 9.5235 13.1859H15.3835C15.4821 13.1896 15.5803 13.1734 15.6724 13.1383C15.7645 13.1032 15.8486 13.0498 15.9196 12.9814C15.9906 12.9131 16.0471 12.8311 16.0857 12.7404C16.1243 12.6496 16.1442 12.5521 16.1442 12.4535C16.1442 12.3549 16.1243 12.2573 16.0857 12.1666C16.0471 12.0759 15.9906 11.9939 15.9196 11.9255C15.8486 11.8572 15.7645 11.8038 15.6724 11.7687C15.5803 11.7336 15.4821 11.7174 15.3835 11.7211H10.2554V6.59292C10.2554 6.39872 10.1783 6.21247 10.0411 6.07505C9.90384 5.93764 9.71769 5.8603 9.5235 5.86002Z" fill="#363C43"/>
</g>
<defs>
<clipPath id="clip0_29_31">
<rect width="21" height="21" fill="white"/>
</clipPath>
</defs>
</svg>
