<svg width="21" height="19" viewBox="0 0 21 19" fill="none" xmlns="http://www.w3.org/2000/svg">
<path d="M21.3235 17.6428C21.6971 17.6428 22 17.9466 22 18.3214C22 18.6962 21.6971 19 21.3235 19H-0.323521C-0.697137 19 -1 18.6962 -1 18.3214C-1 17.9466 -0.697137 17.6428 -0.323521 17.6428H21.3235ZM2.38235 5.42858H8.47056C8.84418 5.42858 9.14704 5.73238 9.14704 6.10716V16.2857H1.70587V6.10716C1.70587 5.73238 2.00873 5.42858 2.38235 5.42858ZM12.5294 0H18.6176C18.9912 0 19.2941 0.303803 19.2941 0.678578V16.2857H11.853V0.678578C11.853 0.303848 12.1558 0 12.5294 0Z" fill="#363C43"/>
</svg>
