<svg width="24" height="24" viewBox="0 0 24 24" fill="none" xmlns="http://www.w3.org/2000/svg">
<path d="M11 20C11 19.6464 10.842 19.3072 10.5607 19.0572C10.2794 18.8071 9.89782 18.6667 9.5 18.6667C9.10218 18.6667 8.72064 18.8071 8.43934 19.0572C8.15804 19.3072 8 19.6464 8 20H3C2.73478 20 2.48043 19.9064 2.29289 19.7397C2.10536 19.573 2 19.3469 2 19.1111V4.88889C2 4.65314 2.10536 4.42705 2.29289 4.26035C2.48043 4.09365 2.73478 4 3 4H8C8 4.35362 8.15804 4.69276 8.43934 4.94281C8.72064 5.19286 9.10218 5.33333 9.5 5.33333C9.89782 5.33333 10.2794 5.19286 10.5607 4.94281C10.842 4.69276 11 4.35362 11 4H21C21.2652 4 21.5196 4.09365 21.7071 4.26035C21.8946 4.42705 22 4.65314 22 4.88889V9.77778C21.337 9.77778 20.7011 10.0119 20.2322 10.4287C19.7634 10.8454 19.5 11.4106 19.5 12C19.5 12.5894 19.7634 13.1546 20.2322 13.5713C20.7011 13.9881 21.337 14.2222 22 14.2222V19.1111C22 19.3469 21.8946 19.573 21.7071 19.7397C21.5196 19.9064 21.2652 20 21 20H11ZM9.5 10.6667C9.89782 10.6667 10.2794 10.5262 10.5607 10.2761C10.842 10.0261 11 9.68696 11 9.33333C11 8.97971 10.842 8.64057 10.5607 8.39052C10.2794 8.14048 9.89782 8 9.5 8C9.10218 8 8.72064 8.14048 8.43934 8.39052C8.15804 8.64057 8 8.97971 8 9.33333C8 9.68696 8.15804 10.0261 8.43934 10.2761C8.72064 10.5262 9.10218 10.6667 9.5 10.6667ZM9.5 16C9.89782 16 10.2794 15.8595 10.5607 15.6095C10.842 15.3594 11 15.0203 11 14.6667C11 14.313 10.842 13.9739 10.5607 13.7239C10.2794 13.4738 9.89782 13.3333 9.5 13.3333C9.10218 13.3333 8.72064 13.4738 8.43934 13.7239C8.15804 13.9739 8 14.313 8 14.6667C8 15.0203 8.15804 15.3594 8.43934 15.6095C8.72064 15.8595 9.10218 16 9.5 16Z" fill="#FD9D08"/>
</svg>
