<svg width="30" height="30" viewBox="0 0 30 30" fill="none" xmlns="http://www.w3.org/2000/svg">
<path d="M10.9185 17.0123L8.57474 19.3561C8.48687 19.444 8.4375 19.5632 8.4375 19.6875C8.4375 19.8118 8.48687 19.931 8.57474 20.0189L9.98099 21.4252C10.0689 21.513 10.1881 21.5624 10.3124 21.5624C10.4367 21.5624 10.5559 21.513 10.6438 21.4252L12.9876 19.0814C13.0754 18.9935 13.1248 18.8743 13.1248 18.75C13.1248 18.6257 13.0754 18.5065 12.9876 18.4186L11.5813 17.0123C11.4934 16.9245 11.3742 16.8751 11.2499 16.8751C11.1256 16.8751 11.0064 16.9245 10.9185 17.0123ZM10.3124 20.4309L9.56896 19.6875L11.2499 18.0066L11.9933 18.75L10.3124 20.4309Z" fill="#363C43"/>
<path d="M18.7499 13.125C18.8742 13.125 18.9934 13.0756 19.0813 12.9877L21.4251 10.6439C21.5129 10.556 21.5623 10.4368 21.5623 10.3125C21.5623 10.1882 21.5129 10.069 21.4251 9.98109L20.0188 8.57484C19.9309 8.48697 19.8117 8.4376 19.6874 8.4376C19.5631 8.4376 19.4439 8.48697 19.356 8.57484L17.0122 10.9186C16.9244 11.0065 16.875 11.1257 16.875 11.25C16.875 11.3743 16.9244 11.4935 17.0122 11.5814L18.4185 12.9877C18.5064 13.0756 18.6256 13.125 18.7499 13.125ZM19.6874 9.56906L20.4308 10.3125L18.7499 11.9934L18.0065 11.25L19.6874 9.56906Z" fill="#363C43"/>
<path d="M15 0.46875C12.126 0.46875 9.31653 1.32099 6.92688 2.91771C4.53723 4.51442 2.67472 6.78389 1.57488 9.43913C0.475046 12.0944 0.187279 15.0161 0.747971 17.8349C1.30866 20.6537 2.69263 23.2429 4.72486 25.2751C6.7571 27.3074 9.34632 28.6913 12.1651 29.252C14.9839 29.8127 17.9056 29.525 20.5609 28.4251C23.2161 27.3253 25.4856 25.4628 27.0823 23.0731C28.679 20.6835 29.5313 17.874 29.5313 15C29.5268 11.1474 27.9944 7.45396 25.2702 4.72979C22.5461 2.00562 18.8526 0.473216 15 0.46875ZM27.9563 10.8872L19.1128 2.04375C21.1848 2.7067 23.0683 3.85513 24.6066 5.3934C26.1449 6.93166 27.2933 8.81523 27.9563 10.8872ZM25.7813 15C25.789 17.2128 25.1085 19.3733 23.8341 21.1823L21.1102 18.4589L25.7161 13.853C25.758 14.2339 25.7797 14.6168 25.7813 15ZM20.4474 17.7961L19.7845 17.1333L25.336 11.5814C25.4238 11.4935 25.4732 11.3743 25.4732 11.25C25.4732 11.1257 25.4238 11.0065 25.336 10.9186L19.0814 4.66406C18.9935 4.57619 18.8743 4.52682 18.75 4.52682C18.6257 4.52682 18.5065 4.57619 18.4186 4.66406L12.8667 10.2155L12.2039 9.55266L18.75 3.00656L26.9935 11.25L20.4474 17.7961ZM15.3422 12.6909C15.8383 12.7642 16.2976 12.9952 16.6521 13.3498C17.0067 13.7043 17.2377 14.1636 17.3109 14.6597L15.3422 12.6909ZM15 11.7188C14.8076 11.7208 14.6158 11.7396 14.4267 11.775L13.53 10.8783L18.75 5.65828L24.3417 11.25L19.1217 16.47L18.225 15.5733C18.3141 15.101 18.2974 14.6148 18.1762 14.1498C18.0549 13.6847 17.832 13.2523 17.5236 12.8837C17.2152 12.5151 16.8289 12.2194 16.3926 12.018C15.9562 11.8166 15.4806 11.7144 15 11.7188ZM8.81767 6.16594C10.6267 4.89148 12.7872 4.21101 15 4.21875C15.3832 4.22027 15.7661 4.24202 16.147 4.28391L11.5411 8.88984L8.81767 6.16594ZM2.04376 19.1128L10.8872 27.9562C8.81524 27.2933 6.93167 26.1449 5.39341 24.6066C3.85514 23.0683 2.7067 21.1848 2.04376 19.1128ZM4.21876 15C4.21097 12.7871 4.89162 10.6265 6.16641 8.81766L8.88985 11.5411L4.28391 16.147C4.24203 15.7661 4.22028 15.3832 4.21876 15ZM9.55267 12.2039L10.2155 12.8667L4.66407 18.4186C4.57619 18.5065 4.52683 18.6257 4.52683 18.75C4.52683 18.8743 4.57619 18.9935 4.66407 19.0814L10.9186 25.3359C11.0065 25.4238 11.1257 25.4732 11.25 25.4732C11.3743 25.4732 11.4935 25.4238 11.5814 25.3359L17.1333 19.7845L17.7961 20.4473L11.25 26.9934L3.00657 18.75L9.55267 12.2039ZM14.6578 17.3091C14.1618 17.2358 13.7025 17.0048 13.3479 16.6502C12.9933 16.2957 12.7623 15.8364 12.6891 15.3403L14.6578 17.3091ZM15 18.2812C15.1924 18.2792 15.3842 18.2604 15.5733 18.225L16.47 19.1217L11.25 24.3417L5.65829 18.75L10.8783 13.53L11.775 14.4267C11.6859 14.899 11.7026 15.3852 11.8239 15.8502C11.9451 16.3153 12.168 16.7477 12.4764 17.1163C12.7848 17.4849 13.1711 17.7806 13.6075 17.982C14.0438 18.1834 14.5194 18.2856 15 18.2812ZM21.1824 23.8341C19.3734 25.1085 17.2129 25.789 15 25.7812C14.6168 25.7797 14.2339 25.758 13.853 25.7161L18.4589 21.1102L21.1824 23.8341ZM15 28.5938C13.7761 28.5934 12.5578 28.4274 11.3784 28.1002C11.4546 28.0807 11.5246 28.042 11.5814 27.9877L13.0205 26.5491C13.6744 26.661 14.3366 26.7178 15 26.7188C17.6038 26.7276 20.1349 25.8607 22.1864 24.2573C22.2392 24.2165 22.2826 24.1649 22.3138 24.106C22.345 24.0471 22.3633 23.9822 22.3674 23.9156C22.3715 23.8491 22.3614 23.7824 22.3377 23.7201C22.314 23.6578 22.2773 23.6012 22.23 23.5542L6.44438 7.77C6.39753 7.72284 6.34111 7.68626 6.27893 7.66273C6.21675 7.63921 6.15026 7.62927 6.08391 7.63359C6.01752 7.63767 5.95275 7.65582 5.89391 7.68686C5.83507 7.71789 5.78352 7.7611 5.74266 7.81359C4.13932 9.86515 3.27239 12.3962 3.28126 15C3.28214 15.6635 3.33906 16.3257 3.45141 16.9795L2.01235 18.4186C1.95803 18.4755 1.91928 18.5454 1.89985 18.6216C1.25751 16.3042 1.24172 13.8579 1.85411 11.5325C2.4665 9.2071 3.68511 7.08587 5.3855 5.38549C7.08588 3.68511 9.2071 2.46649 11.5325 1.8541C13.858 1.24172 16.3042 1.2575 18.6216 1.89984C18.5454 1.91928 18.4755 1.95802 18.4186 2.01234L16.9795 3.45094C16.3256 3.33897 15.6634 3.2822 15 3.28125C12.3963 3.27239 9.86516 4.13931 7.8136 5.74266C7.76087 5.78346 7.71746 5.83505 7.68625 5.89398C7.65505 5.9529 7.63677 6.0178 7.63264 6.08435C7.62852 6.1509 7.63864 6.21756 7.66232 6.27989C7.68601 6.34222 7.72272 6.39877 7.77001 6.44578L23.5556 22.23C23.6435 22.3179 23.7627 22.3673 23.887 22.3673C23.8969 22.3673 23.9067 22.3673 23.9166 22.3673C23.9829 22.3632 24.0476 22.345 24.1063 22.314C24.1651 22.283 24.2166 22.2398 24.2574 22.1873C25.8609 20.1355 26.7278 17.6041 26.7188 15C26.7178 14.3366 26.661 13.6744 26.5491 13.0205L27.9877 11.5814C28.042 11.5245 28.0807 11.4546 28.1002 11.3784C28.6596 13.3968 28.7449 15.5172 28.3492 17.5739C27.9536 19.6307 27.0878 21.5681 25.8194 23.2349C24.5511 24.9017 22.9146 26.2526 21.0377 27.1822C19.1609 28.1118 17.0945 28.5949 15 28.5938Z" fill="#363C43"/>
</svg>
