<svg width="24" height="24" viewBox="0 0 24 24" fill="none" xmlns="http://www.w3.org/2000/svg">
<path d="M3 3C2.46957 3 1.96086 3.21071 1.58579 3.58579C1.21071 3.96086 1 4.46957 1 5V16H3C3 16.7956 3.31607 17.5587 3.87868 18.1213C4.44129 18.6839 5.20435 19 6 19C6.79565 19 7.55871 18.6839 8.12132 18.1213C8.68393 17.5587 9 16.7956 9 16H15C15 16.7956 15.3161 17.5587 15.8787 18.1213C16.4413 18.6839 17.2044 19 18 19C18.7957 19 19.5587 18.6839 20.1213 18.1213C20.6839 17.5587 21 16.7956 21 16H23V11L20 7H17V3H3ZM10 5L14 9L10 13V10H4V8H10V5ZM17 8.5H19.5L21.47 11H17V8.5ZM6 14.5C6.39783 14.5 6.77936 14.658 7.06066 14.9393C7.34197 15.2206 7.5 15.6022 7.5 16C7.5 16.3978 7.34197 16.7794 7.06066 17.0607C6.77936 17.342 6.39783 17.5 6 17.5C5.60218 17.5 5.22064 17.342 4.93934 17.0607C4.65804 16.7794 4.5 16.3978 4.5 16C4.5 15.6022 4.65804 15.2206 4.93934 14.9393C5.22064 14.658 5.60218 14.5 6 14.5ZM18 14.5C18.3978 14.5 18.7794 14.658 19.0607 14.9393C19.342 15.2206 19.5 15.6022 19.5 16C19.5 16.3978 19.342 16.7794 19.0607 17.0607C18.7794 17.342 18.3978 17.5 18 17.5C17.6022 17.5 17.2206 17.342 16.9393 17.0607C16.658 16.7794 16.5 16.3978 16.5 16C16.5 15.6022 16.658 15.2206 16.9393 14.9393C17.2206 14.658 17.6022 14.5 18 14.5Z" fill="#FD9D08"/>
</svg>
