<svg width="23" height="23" viewBox="0 0 23 23" fill="none" xmlns="http://www.w3.org/2000/svg">
<path d="M20.7 7.33011V10.5041C20.1234 10.3212 19.5075 10.3003 18.9198 10.4436C18.332 10.587 17.795 10.8892 17.3673 11.3172L11.8128 16.8717C11.3862 17.2985 11.071 17.8238 10.8951 18.4012H5.17505C4.41255 18.4012 3.68128 18.0983 3.14212 17.5591C2.60295 17.0199 2.30005 16.2887 2.30005 15.5262V7.33011L11.2091 12.5718C11.2975 12.6238 11.3981 12.6512 11.5006 12.6512C11.6031 12.6512 11.7038 12.6238 11.7921 12.5718L20.7 7.33011ZM17.825 3.45116C18.5325 3.45105 19.2151 3.71176 19.7423 4.18341C20.2696 4.65507 20.6044 5.30455 20.6828 6.00761L11.5 11.408L2.3173 6.00761C2.39542 5.30434 2.73014 4.65458 3.25741 4.18269C3.78468 3.7108 4.46745 3.44993 5.17505 3.45001H17.825V3.45116ZM12.627 17.6836L18.1815 12.1291C18.3813 11.9294 18.6185 11.7711 18.8795 11.6631C19.1405 11.5551 19.4202 11.4996 19.7027 11.4997C19.9851 11.4998 20.2648 11.5555 20.5257 11.6637C20.7866 11.7719 21.0236 11.9304 21.2233 12.1302C21.4229 12.33 21.5813 12.5672 21.6893 12.8282C21.7973 13.0892 21.8528 13.3689 21.8527 13.6513C21.8526 13.9338 21.7968 14.2134 21.6887 14.4744C21.5805 14.7353 21.4219 14.9723 21.2221 15.172L15.6676 20.7253C15.3441 21.049 14.9386 21.2788 14.4946 21.39L12.7719 21.8201C12.6007 21.8628 12.4212 21.8605 12.2511 21.8133C12.081 21.7662 11.926 21.6758 11.8011 21.551C11.6762 21.4263 11.5857 21.2713 11.5384 21.1012C11.4911 20.9312 11.4886 20.7517 11.5311 20.5804L11.9623 18.8577C12.0726 18.4134 12.3025 18.0077 12.627 17.6847V17.6836Z" fill="#363C43"/>
</svg>
