<svg width="21" height="21" viewBox="0 0 21 21" fill="none" xmlns="http://www.w3.org/2000/svg">
<path d="M10.5 0C4.7103 0 0 4.7103 0 10.5C0 16.2897 4.7103 21 10.5 21C16.2897 21 21 16.2897 21 10.5C21 4.7103 16.2897 0 10.5 0ZM10.5 4.305C10.77 4.305 11.0339 4.38506 11.2584 4.53504C11.4828 4.68503 11.6578 4.89822 11.7611 5.14764C11.8644 5.39706 11.8914 5.67151 11.8388 5.9363C11.7861 6.20108 11.6561 6.4443 11.4652 6.6352C11.2743 6.8261 11.0311 6.9561 10.7663 7.00877C10.5015 7.06144 10.2271 7.03441 9.97764 6.9311C9.72822 6.82778 9.51503 6.65283 9.36504 6.42835C9.21506 6.20388 9.135 5.93997 9.135 5.67C9.135 5.30798 9.27881 4.96079 9.5348 4.7048C9.79079 4.44881 10.138 4.305 10.5 4.305ZM13.02 16.17H8.4C8.17722 16.17 7.96356 16.0815 7.80603 15.924C7.6485 15.7664 7.56 15.5528 7.56 15.33C7.56 15.1072 7.6485 14.8936 7.80603 14.736C7.96356 14.5785 8.17722 14.49 8.4 14.49H9.87V9.87H9.03C8.80722 9.87 8.59356 9.7815 8.43603 9.62397C8.2785 9.46644 8.19 9.25278 8.19 9.03C8.19 8.80722 8.2785 8.59356 8.43603 8.43603C8.59356 8.2785 8.80722 8.19 9.03 8.19H10.71C10.9328 8.19 11.1464 8.2785 11.304 8.43603C11.4615 8.59356 11.55 8.80722 11.55 9.03V14.49H13.02C13.2428 14.49 13.4564 14.5785 13.614 14.736C13.7715 14.8936 13.86 15.1072 13.86 15.33C13.86 15.5528 13.7715 15.7664 13.614 15.924C13.4564 16.0815 13.2428 16.17 13.02 16.17Z" fill="#363C43"/>
</svg>
