<svg width="22" height="22" viewBox="0 0 22 22" fill="none" xmlns="http://www.w3.org/2000/svg">
<path d="M0.659593 9.66577C0.30016 9.66577 0.00878906 9.95719 0.00878906 10.3166V19.8753C0.00878906 20.2347 0.300203 20.5261 0.659593 20.5261H4.58062V9.66577H0.659593Z" fill="white"/>
<path d="M21.9916 13.2596C21.9916 12.4334 21.5477 11.709 20.8859 11.3122C21.1395 10.9461 21.2882 10.5019 21.2882 10.0238C21.2882 8.77285 20.2704 7.75509 19.0195 7.75509H14.2303C14.3771 7.08993 14.5778 6.09181 14.7176 5.04694C15.0814 2.32784 14.8327 0.819847 13.9353 0.301257C13.3757 -0.021997 12.7724 -0.0875673 12.2365 0.116448C11.8225 0.274144 11.2634 0.661851 10.9448 1.61339L9.68608 4.90914C9.04795 6.4851 7.09377 8.13962 5.88184 9.05446V20.8141C8.12799 21.6011 10.4718 22 12.8631 22H18.0814C19.3324 22 20.3502 20.9822 20.3502 19.7313C20.3502 19.2932 20.2253 18.8837 20.0094 18.5366C20.7657 18.1683 21.2881 17.3916 21.2881 16.4954C21.2881 16.0173 21.1394 15.5732 20.8858 15.207C21.5477 14.8103 21.9916 14.0858 21.9916 13.2596Z" fill="white"/>
</svg>
