<svg width="36" height="36" viewBox="0 0 36 36" fill="none" xmlns="http://www.w3.org/2000/svg">
<path d="M0 7C0 4.79063 1.79063 3 4 3H32C34.2062 3 36 4.79063 36 7V27C36 29.2062 34.2062 31 32 31H4C1.79063 31 0 29.2062 0 27V7ZM10 17C10 15.8938 9.10625 15 8 15C6.89375 15 6 15.8938 6 17C6 18.1062 6.89375 19 8 19C9.10625 19 10 18.1062 10 17ZM10 11C10 9.89375 9.10625 9 8 9C6.89375 9 6 9.89375 6 11C6 12.1062 6.89375 13 8 13C9.10625 13 10 12.1062 10 11ZM10 23C10 21.8937 9.10625 21 8 21C6.89375 21 6 21.8937 6 23C6 24.1063 6.89375 25 8 25C9.10625 25 10 24.1063 10 23ZM14 9.5C13.1687 9.5 12.5 10.1687 12.5 11C12.5 11.8313 13.1687 12.5 14 12.5H28C28.8312 12.5 29.5 11.8313 29.5 11C29.5 10.1687 28.8312 9.5 28 9.5H14ZM14 15.5C13.1687 15.5 12.5 16.1687 12.5 17C12.5 17.8313 13.1687 18.5 14 18.5H28C28.8312 18.5 29.5 17.8313 29.5 17C29.5 16.1687 28.8312 15.5 28 15.5H14ZM14 21.5C13.1687 21.5 12.5 22.1688 12.5 23C12.5 23.8312 13.1687 24.5 14 24.5H28C28.8312 24.5 29.5 23.8312 29.5 23C29.5 22.1688 28.8312 21.5 28 21.5H14Z" fill="white"/>
</svg>
