<svg width="36" height="36" viewBox="0 0 36 36" fill="none" xmlns="http://www.w3.org/2000/svg">
<path d="M9.375 3C8.47989 3 7.62145 3.35558 6.98851 3.98851C6.35558 4.62145 6 5.47989 6 6.375V29.625C6 30.5201 6.35558 31.3785 6.98851 32.0115C7.62145 32.6444 8.47989 33 9.375 33H20.625C21.5147 33 22.3684 32.6488 23.0004 32.0226C23.6325 31.3965 23.9917 30.5461 24 29.6565V27.3765C24 27.0781 23.8815 26.792 23.6705 26.581C23.4595 26.37 23.1734 26.2515 22.875 26.2515C22.194 26.2515 21.765 26.067 21.4695 25.8285C21.1575 25.578 20.8995 25.191 20.7045 24.645C20.295 23.5125 20.25 22.02 20.25 20.625C20.25 20.3399 20.1417 20.0653 19.947 19.857L19.701 19.5915C19.6201 19.5011 19.535 19.4145 19.446 19.332C19.335 19.227 18.996 18.9045 17.67 17.58C16.968 16.8765 16.578 16.2825 16.4505 15.828C16.3994 15.6705 16.3916 15.5021 16.428 15.3405C16.484 15.1541 16.5898 14.9866 16.734 14.856C16.8641 14.7119 17.0311 14.6061 17.217 14.55C17.3782 14.5141 17.5461 14.5224 17.703 14.574C18.1575 14.7015 18.7515 15.093 19.455 15.7965C20.265 16.6065 21.033 17.3655 21.7215 18.0465C22.8615 19.1745 23.7825 20.0865 24.3015 20.6415C24.505 20.8599 24.7869 20.9885 25.0852 20.9991C25.3835 21.0096 25.6738 20.9012 25.8923 20.6978C26.1107 20.4943 26.2393 20.2123 26.2498 19.914C26.2604 19.6157 26.152 19.3254 25.9485 19.107C25.3095 18.4392 24.6594 17.7821 23.9985 17.136V12.09L28.2615 16.353C28.8945 16.986 29.25 17.844 29.25 18.738V31.875C29.25 32.1734 29.3685 32.4595 29.5795 32.6705C29.7905 32.8815 30.0766 33 30.375 33C30.6734 33 30.9595 32.8815 31.1705 32.6705C31.3815 32.4595 31.5 32.1734 31.5 31.875V18.7395C31.5001 18.0008 31.3548 17.2692 31.0722 16.5867C30.7896 15.9041 30.3753 15.2839 29.853 14.7615L24 8.9085V6.3735C23.9996 5.47865 23.6438 4.6206 23.011 3.98798C22.3781 3.35537 21.5198 3 20.625 3H9.375ZM20.0595 27.582C20.5531 27.9768 21.1319 28.2511 21.75 28.383V28.5H20.625C20.3266 28.5 20.0405 28.6185 19.8295 28.8295C19.6185 29.0405 19.5 29.3266 19.5 29.625V30.75H17.25V29.625C17.25 28.2855 18.03 27.1275 19.1625 26.583C19.4025 26.949 19.698 27.291 20.0595 27.582ZM18.0015 21.069C18.0045 21.4485 18.0135 21.858 18.036 22.284C17.3375 22.7787 16.5287 23.0952 15.68 23.2058C14.8312 23.3164 13.9683 23.2179 13.1664 22.9187C12.3645 22.6195 11.6478 22.1288 11.079 21.4893C10.5101 20.8498 10.1061 20.0809 9.90239 19.2496C9.69864 18.4183 9.70122 17.5498 9.90993 16.7197C10.1186 15.8896 10.5271 15.1231 11.0998 14.487C11.6725 13.851 12.3921 13.3645 13.1958 13.0701C13.9994 12.7757 14.8629 12.6823 15.711 12.798C15.51 12.9315 15.321 13.0875 15.1425 13.266C14.7045 13.704 14.394 14.211 14.2485 14.781C14.1015 15.351 14.1375 15.912 14.2845 16.437C14.5695 17.4465 15.282 18.3735 16.08 19.1715C16.6905 19.789 17.3091 20.3986 17.9355 21L17.9415 21.0045L17.9955 21.063L18.0015 21.069ZM10.5 5.25H12.75V6.375C12.75 7.27011 12.3944 8.12855 11.7615 8.76149C11.1286 9.39442 10.2701 9.75 9.375 9.75H8.25V7.5H9.375C9.67337 7.5 9.95952 7.38147 10.1705 7.1705C10.3815 6.95952 10.5 6.67337 10.5 6.375V5.25ZM17.25 5.25H19.5V6.375C19.5 6.996 20.004 7.5 20.625 7.5H21.75V9.75H20.625C19.7299 9.75 18.8715 9.39442 18.2385 8.76149C17.6056 8.12855 17.25 7.27011 17.25 6.375V5.25ZM12.75 30.75H10.5V29.625C10.5 29.3266 10.3815 29.0405 10.1705 28.8295C9.95952 28.6185 9.67337 28.5 9.375 28.5H8.25V26.25H9.375C10.2701 26.25 11.1286 26.6056 11.7615 27.2385C12.3944 27.8715 12.75 28.7299 12.75 29.625V30.75Z" fill="white"/>
</svg>
