<svg width="30" height="30" viewBox="0 0 30 30" fill="none" xmlns="http://www.w3.org/2000/svg">
<path d="M6.35828 16.1683C6.60145 16.1683 6.79861 15.9712 6.79861 15.728V15.4227C6.79861 14.7205 6.26207 14.1413 5.57746 14.0733V13.591C5.57746 13.3478 5.38029 13.1507 5.13713 13.1507C4.89396 13.1507 4.6968 13.3478 4.6968 13.591V14.0944C4.00199 14.2291 3.47564 14.8418 3.47564 15.5753C3.47564 16.4073 4.15252 17.0841 4.98443 17.0841H5.28971C5.63611 17.0841 5.91789 17.3659 5.91789 17.7123C5.91789 18.0587 5.63611 18.3405 5.28971 18.3405H4.8318C4.56959 18.3405 4.35625 18.1272 4.35625 17.8649C4.35625 17.6217 4.15908 17.4246 3.91592 17.4246C3.67275 17.4246 3.47559 17.6217 3.47559 17.8649C3.47559 18.5671 4.01207 19.1463 4.69674 19.2143V19.6966C4.69674 19.9398 4.89391 20.1369 5.13707 20.1369C5.38023 20.1369 5.5774 19.9398 5.5774 19.6966V19.1932C6.27221 19.0585 6.79855 18.4458 6.79855 17.7122C6.79855 16.8803 6.12168 16.2035 5.28977 16.2035H4.98449C4.63809 16.2035 4.35631 15.9217 4.35631 15.5753C4.35631 15.2289 4.63809 14.9471 4.98449 14.9471H5.4424C5.70461 14.9471 5.91795 15.1604 5.91795 15.4227V15.728C5.91795 15.9712 6.11512 16.1683 6.35828 16.1683Z" fill="#363C43"/>
<path d="M16.2216 4.89627C16.4648 4.89627 16.6619 4.69916 16.6619 4.45594V4.15066C16.6619 3.44848 16.1254 2.86922 15.4407 2.80125V2.31896C15.4407 2.07574 15.2436 1.87863 15.0004 1.87863C14.7572 1.87863 14.5601 2.07574 14.5601 2.31896V2.82234C13.8653 2.95705 13.3389 3.56976 13.3389 4.3033C13.3389 5.13527 14.0158 5.81209 14.8477 5.81209H15.153C15.4994 5.81209 15.7812 6.09387 15.7812 6.44027C15.7812 6.78668 15.4994 7.06846 15.153 7.06846H14.6951C14.4329 7.06846 14.2195 6.85512 14.2195 6.59285C14.2195 6.34963 14.0224 6.15252 13.7792 6.15252C13.536 6.15252 13.3389 6.34963 13.3389 6.59285C13.3389 7.29504 13.8754 7.8743 14.56 7.94227V8.42455C14.56 8.66777 14.7572 8.86488 15.0004 8.86488C15.2436 8.86488 15.4407 8.66777 15.4407 8.42455V7.92117C16.1354 7.78647 16.6618 7.17375 16.6618 6.44021C16.6618 5.60824 15.985 4.93143 15.153 4.93143H14.8478C14.5014 4.93143 14.2196 4.64965 14.2196 4.30324C14.2196 3.95684 14.5014 3.67506 14.8478 3.67506H15.3057C15.5679 3.67506 15.7812 3.8884 15.7812 4.15066V4.45594C15.7812 4.69922 15.9783 4.89627 16.2216 4.89627Z" fill="#363C43"/>
<path d="M24.863 8.68886C23.5903 8.68886 22.4242 9.15439 21.5259 9.92379L19.3461 8.10732C19.8468 7.31472 20.137 6.37658 20.137 5.37181C20.137 2.53927 17.8325 0.23484 15 0.23484C12.1675 0.23484 9.86303 2.53927 9.86303 5.37181C9.86303 6.85804 10.4977 8.19855 11.5099 9.1374L7.92035 12.3281C7.11779 11.8087 6.16201 11.5068 5.13697 11.5068C2.30443 11.5069 0 13.8112 0 16.6438C0 19.4764 2.30443 21.7808 5.13697 21.7808C7.96951 21.7808 10.2739 19.4764 10.2739 16.6438C10.2739 15.1576 9.63932 13.8171 8.62705 12.8782L12.2166 9.68748C13.0192 10.2069 13.975 10.5088 15 10.5088C16.5116 10.5088 17.8727 9.85236 18.8135 8.8098L20.9061 10.5536C20.1694 11.4428 19.7261 12.5835 19.7261 13.8258C19.7261 16.6583 22.0305 18.9628 24.863 18.9628C27.6956 18.9628 30 16.6583 30 13.8258C30 10.9932 27.6956 8.68886 24.863 8.68886ZM9.39334 16.6438C9.39334 18.9908 7.48395 20.9002 5.13697 20.9002C2.79 20.9002 0.880605 18.9908 0.880605 16.6438C0.880605 14.2969 2.79 12.3875 5.13697 12.3875C7.48395 12.3875 9.39334 14.2969 9.39334 16.6438ZM15 9.62818C12.653 9.62818 10.7436 7.71879 10.7436 5.37181C10.7436 3.02484 12.653 1.11545 15 1.11545C17.347 1.11545 19.2564 3.02484 19.2564 5.37181C19.2564 7.71879 17.347 9.62818 15 9.62818ZM24.863 18.0822C22.5161 18.0822 20.6067 16.1728 20.6067 13.8258C20.6067 12.7184 21.0321 11.7087 21.7277 10.9508C21.7977 10.925 21.8623 10.8815 21.9136 10.82C21.9467 10.7803 21.9711 10.7362 21.9881 10.6904C22.746 9.99492 23.7556 9.56953 24.863 9.56953C27.2099 9.56953 29.1193 11.4789 29.1193 13.8259C29.1194 16.1728 27.21 18.0822 24.863 18.0822Z" fill="#363C43"/>
<path d="M26.0839 13.3503C26.3271 13.3503 26.5243 13.1532 26.5243 12.91V12.6047C26.5243 11.9025 25.9877 11.3232 25.3031 11.2553V10.773C25.3031 10.5298 25.106 10.3327 24.8628 10.3327C24.6196 10.3327 24.4224 10.5298 24.4224 10.773V11.2764C23.7277 11.4111 23.2013 12.0238 23.2013 12.7573C23.2013 13.5893 23.8782 14.2661 24.7101 14.2661H25.0153C25.3617 14.2661 25.6435 14.5479 25.6435 14.8943C25.6435 15.2407 25.3617 15.5225 25.0153 15.5225H24.5574C24.2952 15.5225 24.0818 15.3091 24.0818 15.0469C24.0818 14.8037 23.8847 14.6065 23.6415 14.6065C23.3983 14.6065 23.2012 14.8037 23.2012 15.0469C23.2012 15.7491 23.7377 16.3283 24.4223 16.3963V16.8786C24.4223 17.1218 24.6194 17.3189 24.8627 17.3189C25.1059 17.3189 25.303 17.1218 25.303 16.8786V16.3752C25.9977 16.2405 26.5241 15.6278 26.5241 14.8942C26.5241 14.0623 25.8473 13.3855 25.0154 13.3855H24.7101C24.3637 13.3855 24.082 13.1037 24.082 12.7573C24.082 12.4109 24.3637 12.1291 24.7101 12.1291H25.168C25.4303 12.1291 25.6436 12.3424 25.6436 12.6047V12.91C25.6437 13.1532 25.8407 13.3503 26.0839 13.3503Z" fill="#363C43"/>
<path d="M9.36367 23.2485H5.60635C5.36318 23.2485 5.16602 23.4456 5.16602 23.6889V29.3249C5.16602 29.5681 5.36318 29.7652 5.60635 29.7652H9.36367C9.60684 29.7652 9.804 29.5681 9.804 29.3249V23.6889C9.804 23.4456 9.60684 23.2485 9.36367 23.2485ZM8.92334 28.8846H6.04662V24.1291H8.92334V28.8846Z" fill="#363C43"/>
<path d="M27.6811 23.2485H23.9237C23.6805 23.2485 23.4834 23.4456 23.4834 23.6889V29.3249C23.4834 29.5681 23.6805 29.7652 23.9237 29.7652H27.6811C27.9243 29.7652 28.1214 29.5681 28.1214 29.3249V23.6889C28.1213 23.4456 27.9243 23.2485 27.6811 23.2485ZM27.2407 28.8846H24.364V24.1291H27.2407V28.8846Z" fill="#363C43"/>
<path d="M15.4692 25.098C15.7124 25.098 15.9095 24.9009 15.9095 24.6577V18.0528C15.9095 17.8096 15.7124 17.6125 15.4692 17.6125H11.7118C11.4687 17.6125 11.2715 17.8096 11.2715 18.0528V29.3249C11.2715 29.5681 11.4687 29.7652 11.7118 29.7652H15.4691C15.7124 29.7652 15.9095 29.5681 15.9095 29.3249V26.7125C15.9095 26.4693 15.7124 26.2721 15.4691 26.2721C15.2259 26.2721 15.0288 26.4693 15.0288 26.7125V28.8845H12.1521V18.4931H15.0288V24.6577C15.0289 24.9009 15.226 25.098 15.4692 25.098Z" fill="#363C43"/>
<path d="M21.5756 20.4305H17.8183C17.575 20.4305 17.3779 20.6276 17.3779 20.8709V29.3249C17.3779 29.5681 17.575 29.7652 17.8183 29.7652H21.5756C21.8188 29.7652 22.0159 29.5681 22.0159 29.3249V20.8709C22.0159 20.6276 21.8188 20.4305 21.5756 20.4305ZM21.1353 28.8846H18.2586V21.3111H21.1353V28.8846Z" fill="#363C43"/>
</svg>
