<svg width="20" height="21" viewBox="0 0 20 21" fill="none" xmlns="http://www.w3.org/2000/svg">
<path d="M4.80641 8.57227H3.52135C3.35998 8.57227 3.2052 8.63736 3.09123 8.75314C2.97726 8.86893 2.91354 9.02594 2.91407 9.18947L2.92301 13.863C2.92301 14.2028 3.19492 14.4782 3.5303 14.4782C3.86569 14.4782 4.13759 14.2028 4.13759 13.863V12.444C4.38589 12.4427 4.65115 12.4416 4.80641 12.4416C5.87346 12.4416 6.7416 11.5737 6.7416 10.5069C6.7416 9.44016 5.87346 8.57227 4.80641 8.57227ZM4.80641 11.2111C4.64977 11.2111 4.38354 11.2122 4.13427 11.2135C4.13297 10.9516 4.13184 10.6696 4.13184 10.5069C4.13184 10.3678 4.13115 10.0765 4.13042 9.80273H4.80637C5.19698 9.80273 5.52698 10.1252 5.52698 10.5069C5.52698 10.8887 5.19702 11.2111 4.80641 11.2111Z" fill="white"/>
<path d="M9.97337 8.57227H8.70494C8.54369 8.57227 8.38903 8.63723 8.27511 8.75286C8.16118 8.86848 8.09733 9.02528 8.09766 9.18865C8.09766 9.18869 8.10669 13.7105 8.10673 13.7269C8.10733 13.8901 8.17187 14.0463 8.2862 14.1613C8.40001 14.2757 8.55377 14.3399 8.71401 14.3399H8.71632C8.75466 14.3397 9.6594 14.3362 10.0211 14.3298C11.3933 14.3056 12.3893 13.0969 12.3893 11.4561C12.3892 9.7312 11.4184 8.57227 9.97337 8.57227ZM9.99988 13.0996C9.8426 13.1024 9.57199 13.1046 9.31928 13.1063C9.31758 12.5719 9.31426 10.3581 9.31333 9.80273H9.97337C11.0881 9.80273 11.1747 11.0682 11.1747 11.4561C11.1747 12.2638 10.8114 13.0852 9.99988 13.0996Z" fill="white"/>
<path d="M16.3918 9.75537C16.7272 9.75537 16.9991 9.47991 16.9991 9.14014C16.9991 8.80036 16.7272 8.5249 16.3918 8.5249H14.535C14.1996 8.5249 13.9277 8.80036 13.9277 9.14014V13.7814C13.9277 14.1212 14.1996 14.3966 14.535 14.3966C14.8704 14.3966 15.1423 14.1212 15.1423 13.7814V12.0321H16.2443C16.5797 12.0321 16.8516 11.7566 16.8516 11.4168C16.8516 11.0771 16.5797 10.8016 16.2443 10.8016H15.1423V9.75537H16.3918Z" fill="white"/>
<path d="M18.1781 5.94727H17.7328V5.77176C17.7328 4.9809 17.437 4.22929 16.8999 3.65531L14.3774 0.959725C13.8067 0.349822 13.0035 0 12.1739 0H4.08907C3.08449 0 2.26721 0.827982 2.26721 1.8457V5.94727H1.82186C0.817287 5.94727 0 6.77525 0 7.79297V15.1758C0 16.1935 0.817287 17.0215 1.82186 17.0215H2.26721V19.1543C2.26721 20.172 3.08449 21 4.08907 21H15.9109C16.9155 21 17.7328 20.172 17.7328 19.1543V17.0215H18.1781C19.1827 17.0215 20 16.1935 20 15.1758V7.79297C20 6.77525 19.1827 5.94727 18.1781 5.94727ZM3.48178 1.8457C3.48178 1.50646 3.75421 1.23047 4.08907 1.23047H12.1739C12.6717 1.23047 13.1536 1.44035 13.496 1.80633L16.0185 4.50192C16.3408 4.84628 16.5182 5.29725 16.5182 5.77176V5.94727H3.48178V1.8457ZM16.5182 19.1543C16.5182 19.4935 16.2458 19.7695 15.9109 19.7695H4.08907C3.75421 19.7695 3.48178 19.4935 3.48178 19.1543V17.0215H16.5182V19.1543ZM18.7854 15.1758C18.7854 15.515 18.513 15.791 18.1781 15.791H1.82186C1.487 15.791 1.21457 15.515 1.21457 15.1758V7.79297C1.21457 7.45373 1.487 7.17773 1.82186 7.17773H18.1781C18.513 7.17773 18.7854 7.45373 18.7854 7.79297V15.1758Z" fill="white"/>
</svg>
