<svg width="22" height="22" viewBox="0 0 22 22" fill="none" xmlns="http://www.w3.org/2000/svg">
<path d="M6.1875 11C6.00516 11 5.8303 11.0724 5.70136 11.2014C5.57243 11.3303 5.5 11.5052 5.5 11.6875V15.125C5.5 15.3073 5.57243 15.4822 5.70136 15.6111C5.8303 15.7401 6.00516 15.8125 6.1875 15.8125C6.36984 15.8125 6.5447 15.7401 6.67364 15.6111C6.80257 15.4822 6.875 15.3073 6.875 15.125V14.4375H7.21875C7.67459 14.4375 8.11176 14.2564 8.43409 13.9341C8.75642 13.6118 8.9375 13.1746 8.9375 12.7188C8.9375 12.2629 8.75642 11.8257 8.43409 11.5034C8.11176 11.1811 7.67459 11 7.21875 11H6.1875ZM7.21875 13.0625H6.875V12.375H7.21875C7.30992 12.375 7.39735 12.4112 7.46182 12.4757C7.52628 12.5401 7.5625 12.6276 7.5625 12.7188C7.5625 12.8099 7.52628 12.8974 7.46182 12.9618C7.39735 13.0263 7.30992 13.0625 7.21875 13.0625ZM9.625 11.6875C9.625 11.5052 9.69743 11.3303 9.82636 11.2014C9.9553 11.0724 10.1302 11 10.3125 11H10.6562C11.2944 11 11.9065 11.2535 12.3577 11.7048C12.809 12.156 13.0625 12.7681 13.0625 13.4062C13.0625 14.0444 12.809 14.6565 12.3577 15.1077C11.9065 15.559 11.2944 15.8125 10.6562 15.8125H10.3125C10.1302 15.8125 9.9553 15.7401 9.82636 15.6111C9.69743 15.4822 9.625 15.3073 9.625 15.125V11.6875ZM11 14.3791C11.2014 14.3082 11.3759 14.1766 11.4993 14.0023C11.6227 13.8281 11.689 13.6198 11.689 13.4062C11.689 13.1927 11.6227 12.9844 11.4993 12.8102C11.3759 12.6359 11.2014 12.5043 11 12.4334V14.3791ZM13.75 15.125V11.6875C13.75 11.5052 13.8224 11.3303 13.9514 11.2014C14.0803 11.0724 14.2552 11 14.4375 11H16.5C16.6823 11 16.8572 11.0724 16.9861 11.2014C17.1151 11.3303 17.1875 11.5052 17.1875 11.6875C17.1875 11.8698 17.1151 12.0447 16.9861 12.1736C16.8572 12.3026 16.6823 12.375 16.5 12.375H15.125V13.0625H16.5C16.6823 13.0625 16.8572 13.1349 16.9861 13.2639C17.1151 13.3928 17.1875 13.5677 17.1875 13.75C17.1875 13.9323 17.1151 14.1072 16.9861 14.2361C16.8572 14.3651 16.6823 14.4375 16.5 14.4375H15.125V15.125C15.125 15.3073 15.0526 15.4822 14.9236 15.6111C14.7947 15.7401 14.6198 15.8125 14.4375 15.8125C14.2552 15.8125 14.0803 15.7401 13.9514 15.6111C13.8224 15.4822 13.75 15.3073 13.75 15.125ZM11.6875 6.1875V1.375H5.5C4.95299 1.375 4.42839 1.5923 4.04159 1.97909C3.6548 2.36589 3.4375 2.89049 3.4375 3.4375V8.9375C3.07283 8.9375 2.72309 9.08237 2.46523 9.34023C2.20737 9.59809 2.0625 9.94783 2.0625 10.3125V16.5C2.0625 16.8647 2.20737 17.2144 2.46523 17.4723C2.72309 17.7301 3.07283 17.875 3.4375 17.875V18.5625C3.4375 19.1095 3.6548 19.6341 4.04159 20.0209C4.42839 20.4077 4.95299 20.625 5.5 20.625H16.5C17.047 20.625 17.5716 20.4077 17.9584 20.0209C18.3452 19.6341 18.5625 19.1095 18.5625 18.5625V17.875C18.9272 17.875 19.2769 17.7301 19.5348 17.4723C19.7926 17.2144 19.9375 16.8647 19.9375 16.5V10.3125C19.9375 9.94783 19.7926 9.59809 19.5348 9.34023C19.2769 9.08237 18.9272 8.9375 18.5625 8.9375V8.25H13.75C13.203 8.25 12.6784 8.0327 12.2916 7.64591C11.9048 7.25911 11.6875 6.73451 11.6875 6.1875ZM18.5625 10.3125V16.5H3.4375V10.3125H18.5625ZM13.0625 6.1875V1.45544C13.3984 1.55193 13.7043 1.73219 13.9514 1.97931L17.9582 5.98606C18.2053 6.2332 18.3856 6.53909 18.4821 6.875H13.75C13.5677 6.875 13.3928 6.80257 13.2639 6.67364C13.1349 6.5447 13.0625 6.36984 13.0625 6.1875Z" fill="#363C43"/>
</svg>
