<svg width="21" height="21" viewBox="0 0 21 21" fill="none" xmlns="http://www.w3.org/2000/svg">
<path d="M17.5 9.62409H19.25C19.25 5.13534 15.8611 1.74997 11.3662 1.74997V3.49997C14.9205 3.49997 17.5 6.07509 17.5 9.62409Z" fill="#363C43"/>
<path d="M11.375 6.99996C13.2151 6.99996 14 7.78484 14 9.62496H15.75C15.75 6.80309 14.1969 5.24996 11.375 5.24996V6.99996ZM14.3693 11.7626C14.2011 11.6098 13.9802 11.5283 13.7531 11.5353C13.526 11.5423 13.3105 11.6373 13.1521 11.8002L11.0583 13.9536C10.5543 13.8573 9.541 13.5415 8.498 12.5011C7.455 11.4572 7.13913 10.4413 7.0455 9.94084L9.19713 7.84609C9.36024 7.68783 9.45537 7.47231 9.46239 7.24515C9.46942 7.01798 9.38778 6.797 9.23475 6.62897L6.00163 3.07384C5.84854 2.90528 5.63577 2.80303 5.40851 2.78882C5.18125 2.7746 4.9574 2.84954 4.7845 2.99772L2.88575 4.62609C2.73447 4.77792 2.64418 4.97998 2.632 5.19396C2.61888 5.41271 2.36863 10.5945 6.38663 14.6142C9.89188 18.1186 14.2826 18.375 15.4919 18.375C15.6686 18.375 15.7771 18.3697 15.806 18.368C16.02 18.356 16.2219 18.2653 16.373 18.1133L18.0005 16.2137C18.1488 16.0409 18.2239 15.8171 18.2098 15.5899C18.1958 15.3626 18.0937 15.1498 17.9253 14.9966L14.3693 11.7626Z" fill="#363C43"/>
</svg>
