<svg width="30" height="30" viewBox="0 0 30 30" fill="none" xmlns="http://www.w3.org/2000/svg">
<path d="M15 1.875C16.0292 1.87486 17.0213 2.25946 17.7814 2.95329C18.5416 3.64712 19.0149 4.60006 19.1085 5.625H25.5C25.785 5.62509 26.0594 5.73337 26.2677 5.92796C26.476 6.12255 26.6026 6.38895 26.622 6.67332C26.6415 6.95769 26.5522 7.23884 26.3724 7.45995C26.1925 7.68106 25.9354 7.82565 25.653 7.8645L25.5 7.875H24.6255L22.725 24.345C22.6404 25.0761 22.2899 25.7506 21.7404 26.2401C21.1908 26.7297 20.4805 27.0001 19.7445 27H10.2555C9.51952 27.0001 8.80918 26.7297 8.25963 26.2401C7.71007 25.7506 7.35964 25.0761 7.275 24.345L5.373 7.875H4.5C4.22814 7.87499 3.96549 7.77654 3.7606 7.59785C3.55572 7.41916 3.42247 7.17233 3.3855 6.903L3.375 6.75C3.37501 6.47814 3.47346 6.21549 3.65215 6.0106C3.83084 5.80572 4.07767 5.67247 4.347 5.6355L4.5 5.625H10.8915C10.9851 4.60006 11.4584 3.64712 12.2186 2.95329C12.9787 2.25946 13.9708 1.87486 15 1.875ZM12.75 11.25C12.3825 11.25 12.075 11.4825 12.012 11.7885L12 11.907V21.0945L12.012 21.2115C12.075 21.5175 12.3825 21.75 12.75 21.75C13.1175 21.75 13.425 21.5175 13.488 21.2115L13.5 21.093V11.9085L13.488 11.7885C13.425 11.484 13.1175 11.25 12.75 11.25ZM17.25 11.25C16.8825 11.25 16.575 11.4825 16.512 11.7885L16.5 11.907V21.0945L16.512 21.2115C16.575 21.5175 16.8825 21.75 17.25 21.75C17.6175 21.75 17.925 21.5175 17.988 21.2115L18 21.093V11.9085L17.988 11.7885C17.925 11.484 17.6175 11.2515 17.25 11.2515V11.25ZM15 4.125C14.0925 4.125 13.335 4.77 13.1625 5.625H16.8375C16.6635 4.77 15.9075 4.125 15 4.125Z" fill="#C4C4C4"/>
</svg>
