<svg width="24" height="24" viewBox="0 0 24 24" fill="none" xmlns="http://www.w3.org/2000/svg">
<path fill-rule="evenodd" clip-rule="evenodd" d="M10.5 3C8.51088 3 6.60322 3.79018 5.1967 5.1967C3.79018 6.60322 3 8.51088 3 10.5C3 12.4891 3.79018 14.3968 5.1967 15.8033C6.60322 17.2098 8.51088 18 10.5 18C12.4891 18 14.3968 17.2098 15.8033 15.8033C17.2098 14.3968 18 12.4891 18 10.5C18 8.51088 17.2098 6.60322 15.8033 5.1967C14.3968 3.79018 12.4891 3 10.5 3ZM3.78249 3.78249C5.56408 2.00089 7.98044 1 10.5 1C13.0196 1 15.4359 2.00089 17.2175 3.78249C18.9991 5.56408 20 7.98044 20 10.5C20 12.6823 19.2491 14.7873 17.8904 16.4693L21.7077 20.2935L20.2923 21.7065L16.4769 17.8843C14.7936 19.2469 12.6856 20 10.5 20C7.98044 20 5.56408 18.9991 3.78249 17.2175C2.00089 15.4359 1 13.0196 1 10.5C1 7.98044 2.00089 5.56408 3.78249 3.78249Z" fill="#363C43"/>
</svg>
