<svg width="24" height="24" viewBox="0 0 24 24" fill="none" xmlns="http://www.w3.org/2000/svg">
<path d="M23.9656 9.24634C23.8829 8.99176 23.6629 8.80623 23.398 8.7678L15.9579 7.68663L12.6305 0.944762C12.5121 0.704763 12.2677 0.552841 12 0.552841C11.7324 0.552841 11.488 0.704763 11.3695 0.944762L8.04198 7.68663L0.602007 8.7678C0.337211 8.80623 0.117134 8.99177 0.0344468 9.24629C-0.0482873 9.50087 0.0207125 9.78029 0.212384 9.96709L5.59587 15.2149L4.32518 22.625C4.2799 22.8888 4.38837 23.1554 4.60488 23.3127C4.72737 23.4017 4.87245 23.447 5.01823 23.447C5.13016 23.447 5.24248 23.4203 5.34532 23.3662L12 19.8676L18.6544 23.3662C18.8914 23.4907 19.1784 23.47 19.3949 23.3127C19.6114 23.1554 19.7199 22.8887 19.6747 22.6249L18.4036 15.2149L23.7877 9.96704C23.9793 9.78029 24.0483 9.50087 23.9656 9.24634Z" fill="#FD9D08"/>
</svg>
