<svg width="30" height="30" viewBox="0 0 30 30" fill="none" xmlns="http://www.w3.org/2000/svg">
<g clip-path="url(#clip0_21_35)">
<path d="M7.50025 6.10352e-05V3.75006H11.2502V3.86256C7.96372 4.3374 4.97898 6.0393 2.89654 8.62584C0.814102 11.2124 -0.211491 14.4916 0.0261084 17.8037C0.263708 21.1159 1.74687 24.2151 4.17718 26.4779C6.60749 28.7408 9.8046 29.9992 13.1252 30.0001C20.3627 30.0001 26.2502 24.1126 26.2502 16.8751C26.2502 15.1876 25.8752 13.6126 25.3127 12.1876L21.9002 13.6126C22.3127 14.7001 22.5002 15.7501 22.5002 16.9126C22.5002 22.1251 18.3377 26.2876 13.1252 26.2876C7.91275 26.2876 3.75025 22.1251 3.75025 16.9126C3.75025 11.7001 7.91275 7.53756 13.1252 7.53756C14.2502 7.53756 15.3377 7.72506 16.4252 8.13756L17.7002 4.61256C16.8377 4.31256 15.9377 4.16256 15.0002 4.01256V3.78756H18.7502V0.037561H7.50025V6.10352e-05ZM26.2502 4.35006C26.2502 4.35006 12.5627 14.8876 11.8502 15.6001C11.1377 16.3501 11.1377 17.4376 11.8502 18.1876C12.5627 18.9376 13.6877 18.9376 14.4377 18.1876C15.1877 17.4376 26.2877 4.35006 26.2877 4.35006H26.2502Z" fill="#363C43"/>
</g>
<defs>
<clipPath id="clip0_21_35">
<rect width="30.0001" height="30.0001" fill="white"/>
</clipPath>
</defs>
</svg>
