<svg width="22" height="22" viewBox="0 0 22 22" fill="none" xmlns="http://www.w3.org/2000/svg">
<path d="M17.0337 11.5303H19.6117V17.703H17.0337V11.5303Z" fill="white"/>
<path d="M12.1519 11.5303H14.73V17.703H12.1519V11.5303Z" fill="white"/>
<path d="M7.27002 11.5303H9.84815V17.703H7.27002V11.5303Z" fill="white"/>
<path d="M2.38818 11.5303H4.96614V17.703H2.38818V11.5303Z" fill="white"/>
<path d="M20.4715 9.59668V8.95215H1.52881V9.59668C1.52881 9.95268 1.81734 10.2412 2.17334 10.2412H19.8269C20.1828 10.2412 20.4715 9.95268 20.4715 9.59668Z" fill="white"/>
<path d="M21.3549 18.9922H0.64502C0.289017 18.9922 0.000488281 19.2807 0.000488281 19.6367V21.3555C0.000488281 21.7115 0.289017 22 0.64502 22H21.3549C21.711 22 21.9995 21.7115 21.9995 21.3555V19.6367C21.9995 19.2807 21.711 18.9922 21.3549 18.9922Z" fill="white"/>
<path d="M0.644474 7.6632H21.3554C21.6438 7.6632 21.8971 7.47169 21.9756 7.19424C22.054 6.91679 21.9389 6.62088 21.6933 6.46981L11.3378 0.0956726C11.1307 -0.0318909 10.8694 -0.0318909 10.6621 0.0956726L0.306599 6.46981C0.0610387 6.62104 -0.0541042 6.91679 0.0244481 7.19424C0.103 7.47169 0.356281 7.6632 0.644474 7.6632ZM10.5619 3.79098H11.4382C11.7942 3.79098 12.0827 4.07951 12.0827 4.43551C12.0827 4.79152 11.7942 5.08004 11.4382 5.08004H10.5619C10.2059 5.08004 9.91734 4.79152 9.91734 4.43551C9.91734 4.07951 10.2059 3.79098 10.5619 3.79098Z" fill="white"/>
</svg>
