<svg width="18" height="22" viewBox="0 0 18 22" fill="none" xmlns="http://www.w3.org/2000/svg">
<path d="M16.814 1.85616C16.4491 1.4905 15.9638 1.28906 15.4475 1.28906H14.5905V2.14844C14.5905 3.09616 13.8203 3.86719 12.8736 3.86719H5.14781C4.20112 3.86719 3.43095 3.09616 3.43095 2.14844V1.28906H2.5711C1.50728 1.28906 0.640861 2.15548 0.639658 3.22051L0.621095 20.0643C0.620494 20.5811 0.821158 21.0672 1.18601 21.4329C1.55094 21.7986 2.03623 22 2.55254 22H15.4289C16.4927 22 17.3591 21.1336 17.3603 20.0686L17.3789 3.2248C17.3795 2.70793 17.1788 2.22187 16.814 1.85616ZM9.21888 7.73438H13.793C14.1486 7.73438 14.4368 8.02295 14.4368 8.37891C14.4368 8.73486 14.1486 9.02344 13.793 9.02344H9.21888C8.86332 9.02344 8.57508 8.73486 8.57508 8.37891C8.57508 8.02295 8.86332 7.73438 9.21888 7.73438ZM9.21888 12.0312H13.793C14.1486 12.0312 14.4368 12.3198 14.4368 12.6758C14.4368 13.0317 14.1486 13.3203 13.793 13.3203H9.21888C8.86332 13.3203 8.57508 13.0317 8.57508 12.6758C8.57508 12.3198 8.86332 12.0312 9.21888 12.0312ZM9.21888 16.3281H13.8114C14.167 16.3281 14.4552 16.6167 14.4552 16.9727C14.4552 17.3286 14.167 17.6172 13.8114 17.6172H9.21888C8.86332 17.6172 8.57508 17.3286 8.57508 16.9727C8.57508 16.6167 8.86332 16.3281 9.21888 16.3281ZM3.73336 7.75981C3.98482 7.5081 4.39242 7.5081 4.64387 7.75981L4.99394 8.11031L6.47868 6.62393C6.73013 6.37227 7.13774 6.37218 7.38915 6.62393C7.64056 6.8756 7.64056 7.28372 7.38915 7.53543L5.44915 9.47753C5.32841 9.5984 5.16465 9.66634 4.9939 9.66634C4.82314 9.66634 4.65938 9.59844 4.53864 9.47753L3.73332 8.67127C3.48191 8.4196 3.48191 8.01148 3.73336 7.75981ZM3.73336 12.3848C3.98482 12.1331 4.39242 12.1331 4.64387 12.3848L4.99394 12.7353L6.47868 11.2489C6.73009 10.9972 7.13774 10.9972 7.38915 11.2489C7.64056 11.5006 7.64056 11.9087 7.38915 12.1604L5.44915 14.1026C5.32845 14.2234 5.16465 14.2914 4.9939 14.2914C4.82314 14.2914 4.65938 14.2235 4.53864 14.1026L3.73332 13.2963C3.48191 13.0446 3.48191 12.6366 3.73336 12.3848ZM3.73336 16.6817C3.98482 16.43 4.39242 16.43 4.64387 16.6817L4.99394 17.0322L6.47868 15.5458C6.73009 15.2941 7.13774 15.2941 7.38915 15.5458C7.64056 15.7975 7.64056 16.2056 7.38915 16.4573L5.44915 18.3994C5.32845 18.5203 5.16465 18.5882 4.9939 18.5882C4.82314 18.5882 4.65938 18.5203 4.53864 18.3994L3.73332 17.5932C3.48191 17.3415 3.48191 16.9334 3.73336 16.6817Z" fill="white"/>
<path d="M4.71875 2.14844C4.71875 2.38575 4.91091 2.57812 5.14797 2.57812H12.8737C13.1108 2.57812 13.303 2.38575 13.303 2.14844V0.429688C13.303 0.192371 13.1108 0 12.8737 0H5.14797C4.91091 0 4.71875 0.192371 4.71875 0.429688V2.14844Z" fill="white"/>
</svg>
