<svg width="13" height="13" viewBox="0 0 13 13" fill="none" xmlns="http://www.w3.org/2000/svg">
<path d="M10.2477 1.76531C9.33732 0.851227 8.15688 0.2551 6.88141 0.0652908C5.60593 -0.124518 4.30329 0.102094 3.16659 0.711538C2.02989 1.32098 1.11961 2.28082 0.570695 3.44878C0.0217778 4.61673 -0.136566 5.93065 0.119135 7.19576C0.374835 8.46087 1.03097 9.60985 1.99028 10.4724C2.94959 11.3349 4.16102 11.8651 5.44501 11.9843C6.72899 12.1036 8.01719 11.8055 9.11865 11.1343C10.2201 10.4632 11.0762 9.45465 11.5601 8.25821H9.89529C9.43178 9.07767 8.72333 9.7311 7.86955 10.1266C7.01577 10.5221 6.05961 10.6397 5.13555 10.463C4.21149 10.2863 3.36601 9.82414 2.71801 9.14147C2.07001 8.45879 1.65208 7.58997 1.52302 6.65719C1.39395 5.72441 1.56022 4.7746 1.99846 3.94133C2.4367 3.10806 3.12486 2.43325 3.96615 2.01179C4.80744 1.59034 5.75955 1.44345 6.68858 1.59178C7.61761 1.7401 8.47682 2.17619 9.14539 2.8387L6.76071 5.25571H12.01V0.00134495L10.2477 1.76531Z" fill="#C4C4C4"/>
</svg>
