<svg width="40" height="40" viewBox="0 0 40 40" fill="none" xmlns="http://www.w3.org/2000/svg">
<g clip-path="url(#clip0_6_240)">
<path fill-rule="evenodd" clip-rule="evenodd" d="M35.604 24.5959C35.604 24.5959 38.838 27.7899 39.638 29.2679C39.6536 29.2892 39.6657 29.3129 39.674 29.3379C40 29.8839 40.08 30.3119 39.92 30.6279C39.65 31.1499 38.736 31.4119 38.426 31.4339H32.71C32.312 31.4339 31.484 31.3299 30.476 30.6339C29.706 30.0959 28.94 29.2099 28.198 28.3439C27.09 27.0579 26.132 25.9419 25.162 25.9419C25.0395 25.9417 24.9178 25.9619 24.802 26.0019C24.068 26.2339 23.136 27.2799 23.136 30.0659C23.136 30.9379 22.448 31.4339 21.966 31.4339H19.348C18.456 31.4339 13.812 31.1219 9.694 26.7799C4.648 21.4639 0.115997 10.7999 0.071997 10.7059C-0.210003 10.0159 0.381997 9.63992 1.022 9.63992H6.794C7.568 9.63992 7.82 10.1079 7.996 10.5279C8.2 11.0099 8.956 12.9379 10.196 15.1039C12.204 18.6279 13.438 20.0619 14.424 20.0619C14.6092 20.0625 14.7914 20.0142 14.952 19.9219C16.24 19.2139 16 14.6139 15.94 13.6659C15.94 13.4819 15.938 11.6119 15.278 10.7079C14.806 10.0599 14.002 9.80792 13.516 9.71592C13.646 9.52792 13.922 9.23992 14.276 9.06992C15.158 8.62992 16.752 8.56592 18.334 8.56592H19.212C20.928 8.58992 21.372 8.69992 21.996 8.85792C23.252 9.15792 23.276 9.97192 23.166 12.7439C23.134 13.5359 23.1 14.4279 23.1 15.4779C23.1 15.7019 23.09 15.9519 23.09 16.2059C23.052 17.6279 23.002 19.2299 24.006 19.8879C24.1362 19.969 24.2866 20.012 24.44 20.0119C24.788 20.0119 25.83 20.0119 28.656 15.1619C29.896 13.0199 30.856 10.4939 30.922 10.3039C30.978 10.1979 31.146 9.89992 31.35 9.77992C31.4951 9.70271 31.6577 9.66414 31.822 9.66792H38.612C39.352 9.66792 39.854 9.77992 39.952 10.0599C40.116 10.5139 39.92 11.8999 36.82 16.0919C36.298 16.7899 35.84 17.3939 35.438 17.9219C32.628 21.6099 32.628 21.7959 35.604 24.5959Z" fill="#1F9FDD"/>
</g>
<defs>
<clipPath id="clip0_6_240">
<rect width="40" height="40" fill="white"/>
</clipPath>
</defs>
</svg>
