<svg width="25" height="37" viewBox="0 0 25 37" fill="none" xmlns="http://www.w3.org/2000/svg">
<path d="M23.4993 19.625C22.931 18.249 22.0951 17.084 21.0174 16.1644C19.9547 15.2495 18.6195 14.5466 17.0499 14.0758C15.5237 13.615 13.7574 13.3814 11.8 13.3814C11.1103 13.3814 10.4456 13.3908 9.82494 13.4093C9.44808 13.4204 9.06825 13.4415 8.68886 13.4722V7.52777H20.4076C20.7973 7.52777 21.5089 7.3729 21.9018 6.33762C22.1268 5.76622 22.2361 4.91218 22.2361 3.72703C22.2361 3.11797 22.214 2.64868 22.1668 2.25201C22.1141 1.79891 22.0256 1.42862 21.8961 1.12041C21.7564 0.774037 21.55 0.493285 21.2988 0.308068C21.0287 0.10652 20.7206 0 20.4075 0H3.85588C3.0418 0 2.41252 0.237465 1.98557 0.705818C1.9829 0.708709 1.9803 0.7116 1.97769 0.714562C1.57698 1.16868 1.38222 1.83157 1.38222 2.74096V17.901C1.38222 18.8014 1.54627 19.4111 1.89712 19.8181C2.26076 20.2424 2.8206 20.4576 3.56096 20.4576C4.31823 20.4576 5.16229 20.4032 6.06959 20.2959C6.07248 20.2956 6.07537 20.2952 6.07819 20.2949C6.89103 20.1888 7.8177 20.1351 8.83238 20.1351C10.0638 20.1351 11.1304 20.2456 12.0028 20.4638C12.0803 20.4831 12.1563 20.5034 12.231 20.5247C12.6148 20.6336 13.0146 20.4111 13.1238 20.0271C13.2329 19.6432 13.0101 19.2435 12.6263 19.1343C12.5366 19.1088 12.4455 19.0846 12.3531 19.0615C11.3664 18.8148 10.1819 18.6897 8.83245 18.6897C7.75735 18.6897 6.76948 18.7474 5.89601 18.861C5.04631 18.9613 4.26071 19.0122 3.56096 19.0122C3.2284 19.0122 3.05033 18.9426 2.99317 18.8759C2.97626 18.8563 2.82754 18.6617 2.82754 17.9009V2.74096C2.82754 2.02676 2.98565 1.75967 3.05785 1.67505C3.20064 1.52264 3.46904 1.44531 3.85588 1.44531H20.3998C20.4052 1.44763 20.4181 1.45413 20.4403 1.47075C20.4563 1.4834 20.5084 1.5428 20.5568 1.66384C20.5586 1.66832 20.5604 1.67266 20.5622 1.67707C20.6378 1.85585 20.6947 2.10546 20.7313 2.42097C20.7713 2.75686 20.7907 3.18417 20.7907 3.7271C20.7907 4.95952 20.6631 5.54046 20.5559 5.81088C20.5544 5.81456 20.553 5.81825 20.5516 5.82194C20.4836 6.00217 20.4233 6.06612 20.4049 6.08245H7.96613C7.56701 6.08245 7.24347 6.40606 7.24347 6.80511V14.2699C7.24347 14.4762 7.33171 14.6728 7.48585 14.81C7.63999 14.9471 7.84566 15.0117 8.05046 14.9877C8.65338 14.9169 9.26467 14.8718 9.86765 14.854C10.4743 14.8359 11.1244 14.8267 11.7999 14.8267C13.6156 14.8267 15.2414 15.0396 16.6333 15.4598C18.0085 15.8723 19.1662 16.4779 20.0767 17.2619C20.9939 18.0445 21.6764 18.998 22.164 20.1785C22.647 21.3393 22.8919 22.7312 22.8919 24.3153C22.8919 26.0877 22.5808 27.6919 21.9673 29.0832C21.362 30.4557 20.4902 31.634 19.3785 32.5832C18.264 33.5263 16.8949 34.265 15.3106 34.7787C13.7132 35.2936 11.9026 35.5547 9.92915 35.5547C8.86244 35.5547 7.8612 35.4889 6.95231 35.3591C6.04762 35.2311 5.19583 35.0632 4.42063 34.8604C3.62159 34.6416 3.04592 34.453 2.61385 34.2689C2.0342 34.0175 1.88671 33.9176 1.85282 33.8886C1.84754 33.8837 1.84212 33.8787 1.83663 33.8739C1.76147 33.8077 1.70836 33.7415 1.67432 33.672C1.62829 33.5661 1.58753 33.4265 1.55096 33.251C1.51555 33.074 1.48961 32.8272 1.47176 32.4967C1.45413 32.1708 1.44517 31.7747 1.44517 31.3192C1.44517 30.8425 1.46244 30.4371 1.49648 30.1137C1.53564 29.7413 1.5884 29.5491 1.62583 29.4537C1.62706 29.4505 1.62829 29.4472 1.62952 29.444C1.64715 29.3971 1.6624 29.3618 1.67476 29.3359C1.74897 29.3622 1.8784 29.4172 2.07641 29.5311C2.08031 29.5334 2.08429 29.5356 2.08833 29.5378C2.49157 29.7596 3.00531 30.0005 3.61913 30.2555C4.27292 30.5229 5.05007 30.7639 5.92354 30.9706C6.82932 31.1922 7.93202 31.3046 9.20108 31.3046C10.2898 31.3046 11.3094 31.1889 12.2315 30.9608C12.2338 30.9603 12.2362 30.9597 12.2385 30.9591C13.2068 30.7093 14.0068 30.3244 14.6886 29.7789C15.3762 29.2204 15.9072 28.5255 16.2655 27.7168C16.6316 26.9009 16.8172 25.9301 16.8172 24.8313C16.8172 24.7849 16.8169 24.7388 16.8161 24.6929C16.8097 24.2938 16.4776 23.9751 16.082 23.9818C15.6829 23.9881 15.3646 24.3168 15.371 24.7159C15.3715 24.7542 15.3719 24.7927 15.3719 24.8313C15.3719 25.7247 15.2289 26.4965 14.9454 27.1282C14.6753 27.7379 14.2932 28.2379 13.7816 28.6537C13.2675 29.0649 12.6458 29.3609 11.8809 29.5587C11.0732 29.7581 10.1716 29.8592 9.20115 29.8592C8.04779 29.8592 7.06064 29.7608 6.26182 29.5653C5.45584 29.3746 4.75081 29.1568 4.17009 28.9193C3.61126 28.6871 3.14717 28.4702 2.79054 28.2744C2.30766 27.9977 1.93448 27.8687 1.61651 27.8687C1.29753 27.8687 1.00811 27.9737 0.777289 28.1729C0.569526 28.3387 0.41018 28.5811 0.278006 28.9322C0.174738 29.1981 0.105146 29.5256 0.0592578 29.9625C0.0193672 30.3409 0 30.7848 0 31.3192C0 31.8006 0.00961156 32.2231 0.0286897 32.5747C0.0505862 32.9805 0.0840452 33.2855 0.134992 33.54C0.195623 33.8312 0.266227 34.0623 0.357281 34.267C0.359377 34.2717 0.361545 34.2765 0.363713 34.2811C0.480205 34.5287 0.651547 34.754 0.872969 34.951C1.07907 35.1409 1.39747 35.3166 2.04309 35.5967C2.54194 35.8092 3.17752 36.0186 4.04305 36.2555C4.04565 36.2562 4.04818 36.2569 4.05078 36.2575C4.88068 36.4749 5.78884 36.6541 6.74896 36.7899C7.72426 36.9293 8.79429 37 9.92915 37C12.0534 37 14.0132 36.7154 15.7553 36.1538C17.5204 35.5816 19.0536 34.7515 20.3147 33.6844C21.5952 32.5909 22.5962 31.2391 23.2898 29.6663C23.9849 28.09 24.3373 26.2897 24.3373 24.3152C24.3373 22.5396 24.0551 20.961 23.4993 19.625Z" fill="#363C43"/>
<path d="M15.8889 21.5879C15.8889 21.1888 15.5654 20.8652 15.1662 20.8652H15.1657C14.7666 20.8652 14.4434 21.1888 14.4434 21.5879C14.4434 21.9869 14.7671 22.3105 15.1662 22.3105C15.5654 22.3105 15.8889 21.9869 15.8889 21.5879Z" fill="#363C43"/>
</svg>
