<svg width="50" height="50" viewBox="0 0 50 50" fill="none" xmlns="http://www.w3.org/2000/svg">
<path d="M12.387 16.5822C12.0441 15.4209 11.7148 14.2576 11.4673 13.143C9.84026 12.1804 8.73348 10.4287 8.73348 8.40413C8.73348 5.35853 11.2101 2.88387 14.2537 2.88387C17.2974 2.88387 19.774 5.36048 19.774 8.40413C19.774 8.82307 19.7175 9.22642 19.6298 9.61808C20.1579 10.7814 20.5846 12.0908 20.9587 13.4217C22.011 12.0187 22.6579 10.2942 22.6579 8.40413C22.6579 3.76072 18.8972 0 14.2537 0C9.61033 0 5.85156 3.76072 5.85156 8.40413C5.85156 12.4026 8.64774 15.7327 12.387 16.5822Z" fill="#FD9D08"/>
<path d="M6.58224 36.4787C8.65356 34.2398 10.9782 35.1167 14.09 35.5902C16.7635 36.0013 19.396 35.2511 19.2206 33.8072C18.9439 31.4709 18.5542 30.4265 17.6676 27.4004C16.9603 24.9939 15.6177 20.6564 14.396 16.5099C12.7592 10.9623 12.2857 8.38635 14.4642 7.74333C16.8122 7.05939 18.1586 10.3953 19.3784 15.0212C20.7677 20.2862 21.4985 22.6108 21.9076 22.4881C22.6286 22.2815 21.6426 20.029 23.5288 19.4736C25.8866 18.7878 26.3426 20.6311 27.0031 20.446C27.6637 20.2472 27.4396 18.3805 29.32 17.831C31.2101 17.2854 32.159 19.612 32.9384 19.3801C33.7101 19.1521 33.6925 18.3123 34.8578 17.9791C36.025 17.6323 40.417 19.5984 42.9306 28.1856C46.0854 38.9826 42.5312 40.9896 43.6087 44.6451L29.5265 49.9998C28.3866 47.2581 24.8558 47.0555 21.7323 45.3076C18.5854 43.5364 16.4478 40.0855 8.24631 40.2531C5.16174 40.3154 5.30788 37.8563 6.58224 36.4787Z" fill="#FD9D08"/>
</svg>
