<svg width="62" height="62" viewBox="0 0 62 62" fill="none" xmlns="http://www.w3.org/2000/svg">
<path d="M12.4 12.4C12.4 10.7557 13.0532 9.17866 14.2159 8.01593C15.3787 6.85321 16.9557 6.2 18.6 6.2H40.3C41.9443 6.2 43.5213 6.85321 44.6841 8.01593C45.8468 9.17866 46.5 10.7557 46.5 12.4V34.1H55.8V40.3C55.8 42.7665 54.8202 45.132 53.0761 46.8761C51.332 48.6202 48.9665 49.6 46.5 49.6H34.1V41.85C34.1 39.7946 33.2835 37.8233 31.8301 36.3699C30.3767 34.9165 28.4054 34.1 26.35 34.1H12.4V12.4ZM46.5 46.5C48.1443 46.5 49.7213 45.8468 50.8841 44.6841C52.0468 43.5213 52.7 41.9443 52.7 40.3V37.2H46.5V46.5ZM23.25 15.5C22.8389 15.5 22.4447 15.6633 22.154 15.954C21.8633 16.2447 21.7 16.6389 21.7 17.05C21.7 17.4611 21.8633 17.8553 22.154 18.146C22.4447 18.4367 22.8389 18.6 23.25 18.6H35.65C36.0611 18.6 36.4553 18.4367 36.746 18.146C37.0367 17.8553 37.2 17.4611 37.2 17.05C37.2 16.6389 37.0367 16.2447 36.746 15.954C36.4553 15.6633 36.0611 15.5 35.65 15.5H23.25ZM23.25 21.7C22.8389 21.7 22.4447 21.8633 22.154 22.154C21.8633 22.4447 21.7 22.8389 21.7 23.25C21.7 23.6611 21.8633 24.0553 22.154 24.346C22.4447 24.6367 22.8389 24.8 23.25 24.8H35.65C36.0611 24.8 36.4553 24.6367 36.746 24.346C37.0367 24.0553 37.2 23.6611 37.2 23.25C37.2 22.8389 37.0367 22.4447 36.746 22.154C36.4553 21.8633 36.0611 21.7 35.65 21.7H23.25ZM26.35 37.2C27.5833 37.2 28.766 37.6899 29.638 38.562C30.5101 39.434 31 40.6167 31 41.85V51.15C31 52.3833 30.5101 53.566 29.638 54.438C28.766 55.3101 27.5833 55.8 26.35 55.8H7.75C6.51674 55.8 5.334 55.3101 4.46195 54.438C3.58991 53.566 3.1 52.3833 3.1 51.15V41.85C3.1 40.6167 3.58991 39.434 4.46195 38.562C5.334 37.6899 6.51674 37.2 7.75 37.2H26.35ZM27.9 51.15V48.05C26.6667 48.05 25.484 48.5399 24.612 49.412C23.7399 50.284 23.25 51.4667 23.25 52.7H26.35C26.35 52.2889 26.5133 51.8947 26.804 51.604C27.0947 51.3133 27.4889 51.15 27.9 51.15ZM27.9 41.85C27.4889 41.85 27.0947 41.6867 26.804 41.396C26.5133 41.1053 26.35 40.7111 26.35 40.3H23.25C23.25 41.5333 23.7399 42.716 24.612 43.588C25.484 44.4601 26.6667 44.95 27.9 44.95V41.85ZM7.75 40.3C7.75 40.7111 7.5867 41.1053 7.29601 41.396C7.00533 41.6867 6.61108 41.85 6.2 41.85V44.95C7.43326 44.95 8.616 44.4601 9.48805 43.588C10.3601 42.716 10.85 41.5333 10.85 40.3H7.75ZM6.2 51.15C6.61108 51.15 7.00533 51.3133 7.29601 51.604C7.5867 51.8947 7.75 52.2889 7.75 52.7H10.85C10.85 51.4667 10.3601 50.284 9.48805 49.412C8.616 48.5399 7.43326 48.05 6.2 48.05V51.15ZM17.05 41.85C15.8167 41.85 14.634 42.3399 13.762 43.212C12.8899 44.084 12.4 45.2667 12.4 46.5C12.4 47.7333 12.8899 48.916 13.762 49.788C14.634 50.6601 15.8167 51.15 17.05 51.15C18.2833 51.15 19.466 50.6601 20.338 49.788C21.2101 48.916 21.7 47.7333 21.7 46.5C21.7 45.2667 21.2101 44.084 20.338 43.212C19.466 42.3399 18.2833 41.85 17.05 41.85Z" fill="#FD9D08"/>
</svg>
