<svg width="13" height="13" viewBox="0 0 13 13" fill="none" xmlns="http://www.w3.org/2000/svg">
<path fill-rule="evenodd" clip-rule="evenodd" d="M6.5 1.08334H3.25C2.81902 1.08334 2.4057 1.25455 2.10095 1.5593C1.7962 1.86404 1.625 2.27737 1.625 2.70834V10.2917C1.625 10.7227 1.7962 11.136 2.10095 11.4407C2.4057 11.7455 2.81902 11.9167 3.25 11.9167H9.75C10.181 11.9167 10.5943 11.7455 10.899 11.4407C11.2038 11.136 11.375 10.7227 11.375 10.2917V5.95834H8.125C7.69402 5.95834 7.2807 5.78714 6.97595 5.48239C6.67121 5.17765 6.5 4.76432 6.5 4.33334V1.08334ZM11.375 4.87501V4.78184C11.3748 4.35109 11.2035 3.93805 10.8989 3.63351L8.82538 1.55893C8.52061 1.25436 8.10736 1.08329 7.6765 1.08334H7.58333V4.33334C7.58333 4.477 7.6404 4.61478 7.74198 4.71636C7.84357 4.81794 7.98134 4.87501 8.125 4.87501H11.375Z" fill="#55769C"/>
</svg>
