<svg width="22" height="26" viewBox="0 0 22 26" fill="none" xmlns="http://www.w3.org/2000/svg">
<path fill-rule="evenodd" clip-rule="evenodd" d="M11.0914 0.394165C5.42778 0.394165 0.836548 5.41086 0.836548 11.0478C0.836548 16.6405 4.10953 22.7196 9.21609 25.0534C10.4065 25.5975 11.7762 25.5975 12.9666 25.0534C18.0732 22.7196 21.3462 16.6405 21.3462 11.0478C21.3462 5.41086 16.7549 0.394165 11.0914 0.394165ZM11.0914 12.9278C12.5072 12.9278 13.6551 11.8055 13.6551 10.4211C13.6551 9.03666 12.5072 7.91436 11.0914 7.91436C9.67546 7.91436 8.52765 9.03666 8.52765 10.4211C8.52765 11.8055 9.67546 12.9278 11.0914 12.9278Z" fill="#696F77"/>
</svg>
