<svg width="386" height="52" viewBox="0 0 386 52" fill="none" xmlns="http://www.w3.org/2000/svg">
<path d="M117.219 25.0305C117.219 22.122 117.661 19.6542 118.545 17.6712C119.209 16.2169 120.093 14.8949 121.198 13.7492C122.348 12.6034 123.586 11.722 124.912 11.1491C126.725 10.4 128.759 10.0034 131.103 10.0034C135.347 10.0034 138.708 11.3254 141.272 13.9254C143.792 16.5695 145.075 20.183 145.075 24.8542C145.075 29.4814 143.792 33.0949 141.272 35.739C138.752 38.339 135.391 39.661 131.147 39.661C126.858 39.661 123.453 38.383 120.933 35.739C118.501 33.183 117.219 29.6136 117.219 25.0305ZM123.232 24.8542C123.232 28.1153 123.984 30.539 125.487 32.2576C126.99 33.9322 128.892 34.7695 131.235 34.7695C133.534 34.7695 135.436 33.9322 136.939 32.2576C138.442 30.583 139.15 28.1153 139.15 24.7661C139.15 21.461 138.442 19.0373 136.983 17.4068C135.524 15.7763 133.623 14.983 131.235 14.983C128.848 14.983 126.902 15.8203 125.443 17.4508C123.94 19.0814 123.232 21.5492 123.232 24.8542ZM149.363 18.4203H167.845V39.1763H162.363V22.8712H154.846V39.1763H149.363V18.4203ZM171.338 18.4203H190.174V22.8712H183.498V39.1763H178.015V22.8712H171.338V18.4203ZM193.313 18.4203H198.619V31.4644L207.064 18.4203H212.503V39.1763H207.197V25.9559L198.619 39.1763H193.313V18.4203ZM218.295 18.4203H225.149L230.278 32.8746L235.495 18.4203H242.304V39.1763H237.617V25.5153L232.577 39.1763H227.846L223.026 25.5153V39.1763H218.339V18.4203H218.295ZM251.368 24.8102L246.372 23.9288C246.947 21.9017 247.919 20.4034 249.29 19.4339C250.661 18.4644 252.695 17.9797 255.392 17.9797C257.868 17.9797 259.681 18.2881 260.875 18.861C262.068 19.4339 262.908 20.183 263.395 21.0644C263.881 21.9458 264.146 23.5763 264.146 25.9559L264.058 32.3458C264.058 34.1525 264.146 35.5186 264.323 36.3559C264.5 37.2373 264.81 38.1627 265.296 39.1322H259.902C259.769 38.7797 259.592 38.2508 259.371 37.5458C259.283 37.2373 259.239 37.0169 259.194 36.8847C258.266 37.8102 257.249 38.4712 256.188 38.9559C255.127 39.3966 253.977 39.661 252.783 39.661C250.661 39.661 248.981 39.0881 247.743 37.9424C246.505 36.7966 245.886 35.3424 245.886 33.5356C245.886 32.3898 246.151 31.3322 246.726 30.4068C247.3 29.4814 248.052 28.7763 249.069 28.2915C250.086 27.8068 251.545 27.3661 253.446 27.0136C256.011 26.5288 257.779 26.0881 258.796 25.6475V25.0746C258.796 24.0169 258.531 23.2678 258.001 22.783C257.47 22.3424 256.497 22.122 255.038 22.122C254.065 22.122 253.314 22.2983 252.739 22.6949C252.164 23.1797 251.722 23.8407 251.368 24.8102ZM258.752 29.261C258.045 29.4814 256.939 29.7898 255.392 30.0983C253.889 30.4068 252.872 30.7593 252.385 31.0678C251.678 31.5966 251.324 32.2136 251.324 33.0068C251.324 33.8 251.634 34.461 252.208 34.9898C252.783 35.5627 253.491 35.8271 254.419 35.8271C255.392 35.8271 256.365 35.5186 257.249 34.8576C257.912 34.3729 258.354 33.7559 258.575 33.0508C258.708 32.5661 258.796 31.6847 258.796 30.3627V29.261H258.752Z" fill="#363C43"/>
<path d="M276.129 39.1763V15.8203C276.129 15.577 275.931 15.3797 275.687 15.3797H268.082C267.838 15.3797 267.64 15.1824 267.64 14.939V11.0169C267.64 10.7736 267.838 10.5763 268.082 10.5763H289.968C290.212 10.5763 290.41 10.7736 290.41 11.0169V14.983C290.41 15.2264 290.212 15.4237 289.968 15.4237H282.407C282.163 15.4237 281.965 15.621 281.965 15.8644V38.7797C281.965 39.023 281.767 39.2203 281.523 39.2203H276.173C276.149 39.2203 276.129 39.2006 276.129 39.1763ZM292.444 18.4203H297.131C297.375 18.4203 297.573 18.6176 297.573 18.861V19.9245C297.573 20.3672 298.211 20.57 298.521 20.2531C299.02 19.7435 299.6 19.3089 300.27 18.9491C301.42 18.2881 302.658 17.9797 304.073 17.9797C306.505 17.9797 308.539 18.9051 310.219 20.8C311.899 22.6949 312.739 25.339 312.739 28.6881C312.739 32.1695 311.899 34.8576 310.175 36.7966C308.495 38.7356 306.416 39.661 303.985 39.661C302.835 39.661 301.774 39.4407 300.845 38.9559C300.149 38.6257 299.429 38.0975 298.665 37.3899C298.373 37.1197 297.883 37.3188 297.883 37.7157V46.5797C297.883 46.8229 297.685 47.0203 297.441 47.0203H292.842C292.598 47.0203 292.4 46.8229 292.4 46.5797V18.4644C292.4 18.4401 292.42 18.4203 292.444 18.4203ZM297.839 28.5119C297.839 30.8475 298.281 32.5661 299.209 33.7119C300.138 34.8136 301.243 35.3864 302.57 35.3864C303.852 35.3864 304.913 34.8576 305.753 33.8441C306.593 32.8305 307.035 31.1559 307.035 28.8203C307.035 26.6169 306.593 25.0305 305.709 23.9729C304.825 22.9153 303.763 22.3864 302.481 22.3864C301.155 22.3864 300.005 22.9152 299.121 23.9288C298.281 24.8983 297.839 26.4407 297.839 28.5119ZM329.024 32.984C329.097 32.7727 329.31 32.6383 329.531 32.6757L334.11 33.4486C334.38 33.4941 334.544 33.7709 334.444 34.0243C333.734 35.8058 332.69 37.1479 331.31 38.1186C329.806 39.1763 327.861 39.7051 325.606 39.7051C321.98 39.7051 319.327 38.5152 317.559 36.1797C316.188 34.2847 315.481 31.9051 315.481 28.9966C315.481 25.5593 316.365 22.8712 318.178 20.9322C319.99 18.9932 322.245 18.0237 325.031 18.0237C328.126 18.0237 330.558 19.0373 332.371 21.0644C334.079 23.0219 334.962 26.0068 334.941 30.019C334.94 30.2588 334.743 30.4508 334.502 30.4508H321.638C321.389 30.4508 321.189 30.6557 321.207 30.903C321.316 32.319 321.75 33.4425 322.511 34.2407C323.351 35.1661 324.412 35.6068 325.65 35.6068C326.534 35.6068 327.242 35.3864 327.817 34.9017C328.321 34.4762 328.723 33.8469 329.024 32.984ZM329.453 27.0576C329.408 25.4712 329.01 24.2373 328.215 23.4441C327.419 22.6068 326.49 22.2102 325.341 22.2102C324.147 22.2102 323.174 22.6508 322.378 23.5322C321.662 24.3253 321.304 25.3683 321.239 26.6611C321.227 26.9041 321.427 27.1017 321.671 27.1017H329.408C329.433 27.1017 329.453 27.082 329.453 27.0576ZM339.268 18.861C339.268 18.6176 339.466 18.4203 339.711 18.4203H344.132C344.376 18.4203 344.574 18.6176 344.574 18.861V29.9687C344.574 30.4081 345.149 30.5769 345.388 30.2076L352.889 18.6221C352.97 18.4963 353.11 18.4203 353.26 18.4203H358.016C358.26 18.4203 358.458 18.6176 358.458 18.861V38.7356C358.458 38.979 358.26 39.1763 358.016 39.1763H353.594C353.35 39.1763 353.152 38.979 353.152 38.7356V27.4489C353.152 27.0097 352.578 26.8408 352.338 27.2096L344.705 38.9749C344.623 39.1005 344.484 39.1763 344.334 39.1763H339.711C339.466 39.1763 339.268 38.979 339.268 38.7356V18.861ZM352.302 10.4885C352.342 10.265 352.53 10.0915 352.758 10.0915H354.577C354.834 10.0915 355.038 10.3099 355.004 10.564C354.797 12.1076 354.161 13.3566 353.196 14.278C352.091 15.2915 350.676 15.7763 348.952 15.7763C347.227 15.7763 345.812 15.2915 344.707 14.278C343.7 13.3546 343.097 12.1386 342.897 10.5634C342.864 10.3094 343.069 10.0915 343.326 10.0915H345.145C345.373 10.0915 345.561 10.265 345.601 10.4886C345.733 11.2203 346.03 11.7874 346.52 12.1627C347.095 12.6475 347.89 12.8678 348.952 12.8678C350.013 12.8678 350.809 12.6475 351.383 12.1627C351.872 11.7503 352.17 11.2104 352.302 10.4885ZM381.273 39.1763H365.93C365.686 39.1763 365.488 39.3736 365.488 39.6169V44.2C365.488 44.4432 365.29 44.6407 365.046 44.6407H361.465C361.22 44.6407 361.022 44.4432 361.022 44.2V35.1661C361.022 34.9227 361.22 34.7254 361.465 34.7254H363.077C363.204 34.7254 363.326 34.6713 363.407 34.5731C364.28 33.5139 365.029 31.9341 365.577 29.8339C366.179 27.6898 366.53 24.0434 366.671 18.8948C366.677 18.6557 366.873 18.4644 367.113 18.4644H383.042C383.286 18.4644 383.484 18.6617 383.484 18.9051V34.2847C383.484 34.5281 383.682 34.7254 383.926 34.7254H385.297C385.541 34.7254 385.739 34.9227 385.739 35.1661V44.2441C385.739 44.4873 385.541 44.6847 385.297 44.6847H381.671C381.427 44.6847 381.229 44.4873 381.229 44.2441V39.2203C381.229 39.196 381.249 39.1763 381.273 39.1763ZM377.647 34.7254C377.891 34.7254 378.089 34.5281 378.089 34.2847V23.4C378.089 23.1566 377.891 22.9593 377.647 22.9593H371.838C371.601 22.9593 371.406 23.1473 371.395 23.3839C371.172 28.2831 370.417 31.8185 369.157 33.99C368.974 34.3043 369.192 34.7254 369.556 34.7254H377.647Z" fill="#F7B126"/>
<path d="M276.129 39.1763V15.8203C276.129 15.577 275.931 15.3797 275.687 15.3797H268.082C267.838 15.3797 267.64 15.1824 267.64 14.939V11.0169C267.64 10.7736 267.838 10.5763 268.082 10.5763H289.968C290.212 10.5763 290.41 10.7736 290.41 11.0169V14.983C290.41 15.2264 290.212 15.4237 289.968 15.4237H282.407C282.163 15.4237 281.965 15.621 281.965 15.8644V38.7797C281.965 39.023 281.767 39.2203 281.523 39.2203H276.173C276.149 39.2203 276.129 39.2006 276.129 39.1763ZM292.444 18.4203H297.131C297.375 18.4203 297.573 18.6176 297.573 18.861V19.9245C297.573 20.3672 298.211 20.57 298.521 20.2531C299.02 19.7435 299.6 19.3089 300.27 18.9491C301.42 18.2881 302.658 17.9797 304.073 17.9797C306.505 17.9797 308.539 18.9051 310.219 20.8C311.899 22.6949 312.739 25.339 312.739 28.6881C312.739 32.1695 311.899 34.8576 310.175 36.7966C308.495 38.7356 306.416 39.661 303.985 39.661C302.835 39.661 301.774 39.4407 300.845 38.9559C300.149 38.6257 299.429 38.0975 298.665 37.3899C298.373 37.1197 297.883 37.3188 297.883 37.7157V46.5797C297.883 46.8229 297.685 47.0203 297.441 47.0203H292.842C292.598 47.0203 292.4 46.8229 292.4 46.5797V18.4644C292.4 18.4401 292.42 18.4203 292.444 18.4203ZM297.839 28.5119C297.839 30.8475 298.281 32.5661 299.209 33.7119C300.138 34.8136 301.243 35.3864 302.57 35.3864C303.852 35.3864 304.913 34.8576 305.753 33.8441C306.593 32.8305 307.035 31.1559 307.035 28.8203C307.035 26.6169 306.593 25.0305 305.709 23.9729C304.825 22.9153 303.763 22.3864 302.481 22.3864C301.155 22.3864 300.005 22.9152 299.121 23.9288C298.281 24.8983 297.839 26.4407 297.839 28.5119ZM329.024 32.984C329.097 32.7727 329.31 32.6383 329.531 32.6757L334.11 33.4486C334.38 33.4941 334.544 33.7709 334.444 34.0243C333.734 35.8058 332.69 37.1479 331.31 38.1186C329.806 39.1763 327.861 39.7051 325.606 39.7051C321.98 39.7051 319.327 38.5152 317.559 36.1797C316.188 34.2847 315.481 31.9051 315.481 28.9966C315.481 25.5593 316.365 22.8712 318.178 20.9322C319.99 18.9932 322.245 18.0237 325.031 18.0237C328.126 18.0237 330.558 19.0373 332.371 21.0644C334.079 23.0219 334.962 26.0068 334.941 30.019C334.94 30.2588 334.743 30.4508 334.502 30.4508H321.638C321.389 30.4508 321.189 30.6557 321.207 30.903C321.316 32.319 321.75 33.4425 322.511 34.2407C323.351 35.1661 324.412 35.6068 325.65 35.6068C326.534 35.6068 327.242 35.3864 327.817 34.9017C328.321 34.4762 328.723 33.8469 329.024 32.984ZM329.453 27.0576C329.408 25.4712 329.01 24.2373 328.215 23.4441C327.419 22.6068 326.49 22.2102 325.341 22.2102C324.147 22.2102 323.174 22.6508 322.378 23.5322C321.662 24.3253 321.304 25.3683 321.239 26.6611C321.227 26.9041 321.427 27.1017 321.671 27.1017H329.408C329.433 27.1017 329.453 27.082 329.453 27.0576ZM339.268 18.861C339.268 18.6176 339.466 18.4203 339.711 18.4203H344.132C344.376 18.4203 344.574 18.6176 344.574 18.861V29.9687C344.574 30.4081 345.149 30.5769 345.388 30.2076L352.889 18.6221C352.97 18.4963 353.11 18.4203 353.26 18.4203H358.016C358.26 18.4203 358.458 18.6176 358.458 18.861V38.7356C358.458 38.979 358.26 39.1763 358.016 39.1763H353.594C353.35 39.1763 353.152 38.979 353.152 38.7356V27.4489C353.152 27.0097 352.578 26.8408 352.338 27.2096L344.705 38.9749C344.623 39.1005 344.484 39.1763 344.334 39.1763H339.711C339.466 39.1763 339.268 38.979 339.268 38.7356V18.861ZM352.302 10.4885C352.342 10.265 352.53 10.0915 352.758 10.0915H354.577C354.834 10.0915 355.038 10.3099 355.004 10.564C354.797 12.1076 354.161 13.3566 353.196 14.278C352.091 15.2915 350.676 15.7763 348.952 15.7763C347.227 15.7763 345.812 15.2915 344.707 14.278C343.7 13.3546 343.097 12.1386 342.897 10.5634C342.864 10.3094 343.069 10.0915 343.326 10.0915H345.145C345.373 10.0915 345.561 10.265 345.601 10.4886C345.733 11.2203 346.03 11.7874 346.52 12.1627C347.095 12.6475 347.89 12.8678 348.952 12.8678C350.013 12.8678 350.809 12.6475 351.383 12.1627C351.872 11.7503 352.17 11.2104 352.302 10.4885ZM381.273 39.1763H365.93C365.686 39.1763 365.488 39.3736 365.488 39.6169V44.2C365.488 44.4432 365.29 44.6407 365.046 44.6407H361.465C361.22 44.6407 361.022 44.4432 361.022 44.2V35.1661C361.022 34.9227 361.22 34.7254 361.465 34.7254H363.077C363.204 34.7254 363.326 34.6713 363.407 34.5731C364.28 33.5139 365.029 31.9341 365.577 29.8339C366.179 27.6898 366.53 24.0434 366.671 18.8948C366.677 18.6557 366.873 18.4644 367.113 18.4644H383.042C383.286 18.4644 383.484 18.6617 383.484 18.9051V34.2847C383.484 34.5281 383.682 34.7254 383.926 34.7254H385.297C385.541 34.7254 385.739 34.9227 385.739 35.1661V44.2441C385.739 44.4873 385.541 44.6847 385.297 44.6847H381.671C381.427 44.6847 381.229 44.4873 381.229 44.2441V39.2203C381.229 39.196 381.249 39.1763 381.273 39.1763ZM377.647 34.7254C377.891 34.7254 378.089 34.5281 378.089 34.2847V23.4C378.089 23.1566 377.891 22.9593 377.647 22.9593H371.838C371.601 22.9593 371.406 23.1473 371.395 23.3839C371.172 28.2831 370.417 31.8185 369.157 33.99C368.974 34.3043 369.192 34.7254 369.556 34.7254H377.647Z" fill="#FD9D08"/>
<path fill-rule="evenodd" clip-rule="evenodd" d="M0.0070356 51.175C-0.0414257 51.4443 0.166639 51.6915 0.441046 51.6915H30.8307C31.0532 51.6915 31.2416 51.5214 31.271 51.3015C34.8365 24.5247 51.2722 12.4392 68.8177 0.809213C69.1825 0.567404 69.0083 0 68.5701 0C59.0598 0 53.5338 0 43.6004 0C20.1025 3.32688 4.63235 25.4822 0.0070356 51.175Z" fill="#F7B126"/>
<path fill-rule="evenodd" clip-rule="evenodd" d="M0.0070356 51.175C-0.0414257 51.4443 0.166639 51.6915 0.441046 51.6915H30.8307C31.0532 51.6915 31.2416 51.5214 31.271 51.3015C34.8365 24.5247 51.2722 12.4392 68.8177 0.809213C69.1825 0.567404 69.0083 0 68.5701 0C59.0598 0 53.5338 0 43.6004 0C20.1025 3.32688 4.63235 25.4822 0.0070356 51.175Z" fill="#FD9D08"/>
<path fill-rule="evenodd" clip-rule="evenodd" d="M108.774 0H77.4693C73.9321 27.6746 56.7323 39.7492 38.6483 51.6915C49.0831 51.6915 54.6542 51.6915 65.1333 51.6915C88.7442 48.3424 104.308 25.9119 108.774 0Z" fill="#363C43"/>
</svg>
