<svg xmlns="http://www.w3.org/2000/svg" viewBox="0 0 10.85699 16.9154"><defs><style>.cls-1{fill:#ee3524;}</style></defs><title>pay3</title><g id="Слой_2" data-name="Слой 2"><g id="Слой_1-2" data-name="Слой 1"><path class="cls-1" d="M5.428,0C6.58,0,6.942.82482,7.244,1.65016c.128.34973,3.12,8.54154,3.21,8.78714a.17393.17393,0,0,1-.098.2217c-.106.0403-1.66.6448-1.746.6772a.17012.17012,0,0,1-.215-.1008c-.032-.0849-.676-1.871-.749-2.07137H3.214c-.073.2004-.724,1.98947-.753,2.07137a.16733.16733,0,0,1-.215.1008C2.156,11.3.594,10.6944.5,10.659a.17362.17362,0,0,1-.097-.2217c.109-.3072,3.056-8.367,3.206-8.78714C3.901.83744,4.276,0,5.428,0ZM.166,14.6576a.16951.16951,0,0,0-.166.172v1.9138a.16919.16919,0,0,0,.166.172H10.69a.16938.16938,0,0,0,.167-.172V14.8296a.1697.1697,0,0,0-.167-.172ZM5.419,2.67513l-1.499,4.5H6.941l-1.503-4.5Z"/></g></g></svg>