<svg width="50" height="50" viewBox="0 0 50 50" fill="none" xmlns="http://www.w3.org/2000/svg">
<path d="M14.7336 39.2984C14.6329 39.4385 14.6649 39.6339 14.8068 39.7321C18.6213 42.3717 23.3155 43.4309 27.9011 42.6784C32.5895 41.909 36.7802 39.3086 39.5514 35.4493C42.3225 31.5901 43.4471 26.788 42.6777 22.0996C41.9251 17.5141 39.4211 13.4046 35.7008 10.6338C35.5625 10.5307 35.3671 10.5629 35.2664 10.703C35.1658 10.8432 35.1981 11.0381 35.3364 11.1413C38.9222 13.8154 41.3355 17.7787 42.0612 22.2008C42.8038 26.7257 41.7185 31.3603 39.044 35.085C36.3694 38.8097 32.3248 41.3193 27.7999 42.0619C23.3779 42.7876 18.8511 41.7676 15.1712 39.2246C15.0293 39.1265 14.8342 39.1582 14.7336 39.2984Z" fill="#363C43"/>
<path opacity="0.31" d="M34.5581 39.7803C34.6517 39.9251 34.6103 40.1188 34.4638 40.2099C30.5253 42.6606 25.7851 43.4901 21.2416 42.5151C16.5962 41.5184 12.5371 38.717 9.9571 34.7274C7.37715 30.7378 6.48773 25.8867 7.48451 21.2413C8.45941 16.6979 11.1605 12.7152 15.0113 10.1288C15.1545 10.0326 15.3482 10.0743 15.4418 10.2191C15.5355 10.364 15.4938 10.5572 15.3506 10.6534C11.6389 13.1498 9.03544 16.9909 8.09529 21.3724C7.13327 25.8558 7.99167 30.5377 10.4817 34.3882C12.9716 38.2387 16.8893 40.9423 21.3727 41.9044C25.7541 42.8445 30.3252 42.0461 34.1246 39.6853C34.2711 39.5942 34.4644 39.6354 34.5581 39.7803Z" fill="#363C43"/>
</svg>
