<svg width="29" height="43" viewBox="0 0 29 43" fill="none" xmlns="http://www.w3.org/2000/svg">
<path d="M11.9387 35.7891C11.4869 35.7891 11.0452 35.923 10.6696 36.1741C10.2939 36.4251 10.0011 36.7819 9.82819 37.1993C9.65529 37.6167 9.61005 38.076 9.69819 38.5192C9.78634 38.9623 10.0039 39.3694 10.3234 39.6889C10.6429 40.0083 11.0499 40.2259 11.4931 40.3141C11.9362 40.4022 12.3955 40.357 12.813 40.1841C13.2304 40.0112 13.5872 39.7184 13.8382 39.3427C14.0892 38.967 14.2232 38.5253 14.2232 38.0735C14.2232 37.4676 13.9825 36.8866 13.5541 36.4582C13.1257 36.0297 12.5446 35.7891 11.9387 35.7891ZM11.9387 38.835C11.7881 38.835 11.6409 38.7903 11.5157 38.7067C11.3905 38.623 11.2929 38.5041 11.2352 38.3649C11.1776 38.2258 11.1625 38.0727 11.1919 37.925C11.2213 37.7772 11.2938 37.6416 11.4003 37.5351C11.5068 37.4286 11.6425 37.356 11.7902 37.3267C11.9379 37.2973 12.091 37.3124 12.2302 37.37C12.3693 37.4276 12.4882 37.5252 12.5719 37.6505C12.6556 37.7757 12.7002 37.9229 12.7002 38.0735C12.7002 38.2755 12.62 38.4692 12.4772 38.612C12.3344 38.7548 12.1407 38.835 11.9387 38.835Z" fill="#363C43"/>
<path d="M6.35011 16.5314L9.39604 19.5773C9.46719 19.6479 9.55158 19.7037 9.64435 19.7416C9.73713 19.7795 9.83648 19.7987 9.93669 19.7981C10.1254 19.7977 10.3072 19.7271 10.4469 19.6002L18.0617 12.7468C18.1426 12.6818 18.2094 12.601 18.258 12.5092C18.3065 12.4175 18.3358 12.3168 18.344 12.2133C18.3522 12.1099 18.3392 12.0058 18.3057 11.9076C18.2723 11.8093 18.2191 11.7189 18.1494 11.642C18.0797 11.5651 17.9951 11.5032 17.9006 11.4601C17.8062 11.4171 17.7039 11.3938 17.6002 11.3918C17.4964 11.3897 17.3933 11.4088 17.2972 11.4481C17.2011 11.4873 17.114 11.5457 17.0413 11.6198L9.93669 17.9858L7.40095 15.4501C7.25756 15.3067 7.06309 15.2261 6.8603 15.2261C6.65752 15.2261 6.46304 15.3067 6.31965 15.4501C6.17626 15.5935 6.0957 15.788 6.0957 15.9907C6.0957 16.1935 6.17626 16.388 6.31965 16.5314H6.35011Z" fill="#363C43"/>
<path d="M11.8416 3.80715H14.126C14.328 3.80715 14.5217 3.72692 14.6645 3.58411C14.8073 3.44131 14.8875 3.24762 14.8875 3.04566C14.8875 2.8437 14.8073 2.65002 14.6645 2.50721C14.5217 2.36441 14.328 2.28418 14.126 2.28418H11.8416C11.6396 2.28418 11.4459 2.36441 11.3031 2.50721C11.1603 2.65002 11.0801 2.8437 11.0801 3.04566C11.0801 3.24762 11.1603 3.44131 11.3031 3.58411C11.4459 3.72692 11.6396 3.80715 11.8416 3.80715Z" fill="#363C43"/>
<path d="M9.5564 3.80715C9.70701 3.80715 9.85424 3.76249 9.97946 3.67881C10.1047 3.59514 10.2023 3.47621 10.2599 3.33707C10.3176 3.19793 10.3326 3.04482 10.3033 2.89711C10.2739 2.74939 10.2014 2.61371 10.0949 2.50721C9.98836 2.40072 9.85268 2.32819 9.70496 2.29881C9.55725 2.26943 9.40414 2.28451 9.265 2.34214C9.12586 2.39978 9.00693 2.49738 8.92325 2.62261C8.83958 2.74783 8.79492 2.89506 8.79492 3.04566C8.79492 3.14631 8.81486 3.24595 8.85361 3.33884C8.89235 3.43173 8.94912 3.51601 9.02064 3.58682C9.09216 3.65763 9.17701 3.71356 9.27027 3.75138C9.36354 3.7892 9.46338 3.80815 9.56402 3.80715H9.5564Z" fill="#363C43"/>
<path d="M0.798592 13.7067V41.1201C0.798592 41.524 0.959047 41.9114 1.24466 42.197C1.53027 42.4826 1.91764 42.643 2.32156 42.643H21.3586C21.7625 42.643 22.1499 42.4826 22.4355 42.197C22.7211 41.9114 22.8816 41.524 22.8816 41.1201V40.0083H22.9349C23.0805 40.0083 23.223 39.9666 23.3456 39.8881C23.4682 39.8096 23.5657 39.6976 23.6266 39.5654C23.6875 39.4332 23.7092 39.2863 23.6892 39.1421C23.6692 38.9979 23.6082 38.8625 23.5136 38.7519C21.6204 36.5032 20.4899 33.7115 20.2849 30.7791C20.2741 30.6568 20.2338 30.5388 20.1675 30.4354C20.1012 30.332 20.0109 30.2461 19.9042 30.1852L14.3834 24.6644C14.0998 24.3791 13.9406 23.9931 13.9406 23.5907C13.9406 23.1884 14.0998 22.8024 14.3834 22.517C14.6738 22.2401 15.0597 22.0855 15.4609 22.0855C15.8622 22.0855 16.2481 22.2401 16.5384 22.517L22.7217 28.7003C22.8644 28.8421 23.0574 28.9217 23.2585 28.9217C23.4597 28.9217 23.6527 28.8421 23.7954 28.7003C23.8667 28.6295 23.9234 28.5453 23.9621 28.4525C24.0007 28.3597 24.0206 28.2602 24.0206 28.1596C24.0206 28.0591 24.0007 27.9596 23.9621 27.8668C23.9234 27.774 23.8667 27.6898 23.7954 27.619L22.8816 26.7204V19.1589L26.3844 22.6617C26.7745 23.0396 27.0732 23.5014 27.258 24.012C27.4427 24.5227 27.5085 25.0687 27.4505 25.6087L26.194 37.564C26.1636 37.8983 26.1636 38.2347 26.194 38.5691L26.4986 41.9501C26.5158 42.1399 26.6035 42.3165 26.7445 42.4448C26.8855 42.5731 27.0695 42.6438 27.2601 42.643H27.3287C27.4288 42.6344 27.5263 42.6061 27.6154 42.5596C27.7045 42.5132 27.7836 42.4495 27.848 42.3724C27.9124 42.2952 27.9609 42.2061 27.9907 42.1101C28.0205 42.014 28.031 41.9131 28.0216 41.813L27.7094 38.432C27.6904 38.1964 27.6904 37.9595 27.7094 37.7239L28.9735 25.7686C29.0512 25.002 28.9546 24.2278 28.6909 23.5038C28.4272 22.7799 28.0031 22.1249 27.4505 21.588L22.8816 17.0191V1.52297C22.8816 1.11905 22.7211 0.731678 22.4355 0.446066C22.1499 0.160455 21.7625 0 21.3586 0H2.32156C1.91764 0 1.53027 0.160455 1.24466 0.446066C0.959047 0.731678 0.798592 1.11905 0.798592 1.52297V3.80741C0.596634 3.80741 0.402948 3.88764 0.260143 4.03045C0.117337 4.17325 0.0371094 4.36694 0.0371094 4.5689V9.13779C0.0371094 9.33975 0.117337 9.53344 0.260143 9.67624C0.402948 9.81905 0.596634 9.89928 0.798592 9.89928V11.4222C0.596634 11.4222 0.402948 11.5025 0.260143 11.6453C0.117337 11.7881 0.0371094 11.9818 0.0371094 12.1837V12.9452C0.0371094 13.1472 0.117337 13.3409 0.260143 13.4837C0.402948 13.6265 0.596634 13.7067 0.798592 13.7067ZM2.32156 41.1201V35.0282H19.6453C20.0761 36.2282 20.6514 37.3712 21.3586 38.432C21.3586 38.432 21.3586 38.432 21.3586 38.4777V41.1201H2.32156ZM21.3586 1.52297V25.1975L17.6121 21.451C17.3318 21.1565 16.9954 20.9211 16.6227 20.7586C16.25 20.5962 15.8486 20.51 15.4421 20.5052C15.0355 20.5004 14.6322 20.5769 14.2557 20.7305C13.8792 20.884 13.5373 21.1113 13.2501 21.399C12.9629 21.6867 12.7361 22.0291 12.5833 22.4058C12.4305 22.7825 12.3546 23.1861 12.3601 23.5926C12.3657 23.9991 12.4526 24.4004 12.6157 24.7728C12.7788 25.1452 13.0148 25.4812 13.3098 25.761L18.8 31.2208C18.8678 31.991 18.9951 32.7547 19.1808 33.5052H2.32156V1.52297H21.3586Z" fill="#363C43"/>
</svg>
