<svg width="47" height="41" viewBox="0 0 47 41" fill="none" xmlns="http://www.w3.org/2000/svg">
<path d="M45.622 14.9736C45.4963 14.8456 45.4226 14.7285 45.3185 14.5659C45.2644 14.4835 45.2059 14.3945 45.1408 14.2991C45.3208 14.091 45.4725 13.8503 45.5873 13.5857L46.0469 12.5383L44.9155 12.3757C44.7248 12.3475 44.417 12.2672 44.0572 12.1719C43.3637 11.9897 42.4729 11.7554 41.502 11.6535C41.8335 11.5082 42.1154 11.2458 42.3125 10.8902L42.4989 10.5542C42.4989 10.5542 42.449 10.0836 42.267 9.93613C42.3364 9.79084 42.3905 9.63031 42.4275 9.45463L42.5813 8.70433L41.8574 8.45718C41.7448 8.41816 41.6321 8.38994 41.5214 8.3726C41.4803 8.236 41.4196 8.09065 41.3372 7.93672L40.9081 7.14953L40.1344 7.60276C39.9415 7.71555 39.779 7.84569 39.6467 7.99095C39.5319 7.96927 39.4083 7.95839 39.2783 7.95839C39.2783 7.95839 38.8362 7.90849 38.3485 8.08632L37.7243 7.43794L36.9852 6.64863C36.2939 5.90921 35.3576 5.69017 34.404 6.05447C34.0399 5.69017 33.4721 5.38875 32.59 5.38875C32.2909 5.38875 32.0286 5.42556 31.8748 5.44511C31.8748 5.44511 30.661 5.66628 29.9784 6.31466L29.1505 5.92001C28.5956 6.79389 27.6464 7.0715 27.6464 7.0715C27.5813 6.81557 27.4707 6.57705 27.3125 6.35801L27.3668 6.05014C27.3668 6.04147 27.5531 4.99844 28.121 4.11367L29.1093 2.57398L27.7092 2.73233C27.7134 2.59353 27.7071 2.42871 27.6875 2.23354L27.5618 1.03649L26.4651 1.53315C26.3437 1.58729 26.2419 1.64152 26.1465 1.69141L25.9298 1.22953L25.427 1.48971C25.3772 1.36612 25.3121 1.22519 25.2233 1.06258L24.6447 0L23.8232 0.886886C23.7386 0.978011 23.6671 1.06259 23.6064 1.14283L23.108 0.646169L22.6052 1.14495C22.5423 1.06471 22.4729 0.980139 22.3884 0.889099L21.5583 0L20.9774 1.06692C20.8886 1.22953 20.8258 1.36833 20.7759 1.49192L20.2753 1.23173L20.0585 1.69363C19.9632 1.64373 19.8613 1.5895 19.7399 1.53315L18.6389 1.0387L18.5176 2.2401C18.4981 2.43304 18.4916 2.59565 18.4959 2.73445L17.0936 2.57618L18.0841 4.11579C18.6541 4.99844 18.8361 6.04147 18.8361 6.05014L18.8882 6.35801C18.73 6.57927 18.6173 6.81778 18.5544 7.07362C18.5544 7.07362 17.6571 6.68985 17.0568 5.92001L16.2116 6.32333C15.2471 5.67283 14.6489 5.4191 13.6086 5.38875C12.7265 5.36487 12.1587 5.69017 11.7946 6.05447C10.8388 5.69229 9.90464 5.91133 9.21546 6.65084C9.21546 6.65084 8.76247 7.14307 8.47639 7.44015C8.19031 7.73934 7.76771 7.98661 7.76771 7.98661C7.76771 7.98661 7.1673 7.85215 6.5497 7.99307C6.41751 7.84781 6.25273 7.71767 6.05773 7.60276L5.28172 7.14953L4.85478 7.94105C4.77247 8.09286 4.71391 8.236 4.67493 8.3726C4.56445 8.38994 4.45175 8.41816 4.33906 8.45718L3.6194 8.70867L3.76903 9.45463C3.8058 9.63465 3.85781 9.79518 3.92931 9.94039C3.8882 10.0207 3.85143 10.1053 3.82104 10.1941L3.69966 10.5563L3.88386 10.8924C4.07894 11.2458 4.35846 11.5104 4.69229 11.6557C3.71916 11.7576 2.83054 11.9919 2.13489 12.174C1.77723 12.2672 1.46945 12.3497 1.27879 12.3778L0.14308 12.5426L0.400983 13.1281L0.60688 13.5943C0.723914 13.8546 0.877804 14.0953 1.05553 14.3034C0.988285 14.3989 0.702209 14.8478 0.574365 14.9757L0 15.559L0.550532 16.1661C0.619902 16.2399 1.23759 16.8883 2.23669 16.8905C2.50974 16.8905 2.78066 16.8428 3.04946 16.7474C3.31596 17.1638 3.63242 17.5866 3.92063 17.7947C3.38967 18.4192 2.785 18.9614 1.92465 19.3713L1.20508 19.714L1.51498 20.5357C1.71654 21.0323 2.10884 21.5766 2.8674 21.7847C2.70483 22.2706 2.62686 22.7303 2.55749 23.1401C2.39492 24.1138 2.32555 24.5171 1.46945 24.8185L0.700082 25.0874L0.921129 25.8725C1.09885 26.5121 1.36543 26.935 1.65364 27.2147L1.14226 27.7785C1.14226 27.7785 2.35593 28.6894 3.54577 28.7999C3.56305 28.8022 4.57738 28.8672 5.0325 28.286C5.21456 28.9452 5.50285 29.5525 5.7651 30.1032C6.3026 31.2352 6.58868 31.9052 6.22889 32.5167L5.41612 33.8959L7.0135 33.8287C7.71136 33.8004 8.35935 33.7571 8.9207 33.6183C8.9207 33.6488 8.91857 33.6768 8.91636 33.7051L8.7863 34.8891L10.1864 34.5942C10.3338 34.5508 10.4725 34.4923 10.5983 34.425C11.4651 35.4399 12.9389 36.2314 14.9242 36.2314H15.039L12.7568 37.1681L14.4191 38.0334C15.5136 38.6037 16.7296 39.0809 18.1167 39.4863L17.9237 40.1522L18.7582 40.3971C19.2393 40.5381 20.9796 41 23.0993 41C25.2189 41 26.9571 40.5381 27.4404 40.3971L28.2726 40.1522L28.0797 39.4885C29.469 39.083 30.6849 38.6059 31.7794 38.0357L33.4417 37.1704L31.1573 36.2336H31.2722C33.2575 36.2336 34.7291 35.4421 35.5961 34.4271C35.7218 34.4944 35.8605 34.553 36.0078 34.5964L37.4078 34.8913L37.28 33.7094C37.2778 33.6812 37.2757 33.6509 37.2757 33.6205C37.8349 33.7593 38.4851 33.8004 39.1807 33.8309L40.778 33.8981L39.9697 32.5211C39.6077 31.9096 39.896 31.2395 40.4313 30.1076C40.6936 29.5568 40.9818 28.9495 41.1639 28.2903C41.4716 28.5245 41.8032 28.6655 42.1326 28.7393C42.1326 28.7393 42.3884 28.8152 42.6333 28.8216C43.3398 28.8433 43.6932 28.6416 44.1786 28.3359L45.0607 27.7808L44.5448 27.2169C44.8331 26.9394 45.0997 26.5164 45.2774 25.879L45.5006 25.0918L44.7291 24.823C43.8708 24.5214 43.8036 24.1181 43.6412 23.1444C43.5718 22.7346 43.4959 22.2728 43.3312 21.7891C44.0897 21.5788 44.4798 21.0344 44.6814 20.5401L44.9892 19.7161L44.2697 19.3734C43.4092 18.9636 42.8045 18.4215 42.2714 17.7969C42.5617 17.5888 42.8782 17.1658 43.147 16.7495C43.4135 16.845 43.6845 16.8905 43.9597 16.8927C44.9588 16.8927 45.5787 16.2443 45.6459 16.1705L46.1964 15.5633L45.622 14.9736Z" fill="white"/>
<path fill-rule="evenodd" clip-rule="evenodd" d="M16.0562 25.6597V19.0457C16.0562 18.4299 15.8785 17.8139 15.666 17.248H20.7961C21.2664 17.8942 22.1203 18.3278 23.1 18.3278C24.0752 18.3278 24.9291 17.8942 25.4016 17.248H30.5317C30.3149 17.8161 30.1394 18.4299 30.1394 19.0457V25.6597H16.0562ZM23.0978 34.6979C22.3804 33.9845 21.8689 33.9064 19.9357 33.9064C17.6253 33.9064 16.0562 32.5511 16.0562 30.3848V26.0478H30.1372V30.3848C30.1372 32.5511 28.5702 33.9064 26.2556 33.9064C24.3245 33.9043 23.8129 33.9845 23.0978 34.6979Z" fill="#FFDD2D"/>
<path d="M16.873 35.5156V36.8363L15.7266 37.2981C16.6953 37.7384 17.8982 38.1764 19.3112 38.4995L19.9614 36.3808C18.5745 36.0968 17.6077 35.7997 16.873 35.5156Z" fill="white"/>
<path d="M23.0977 37.3046C21.7431 37.3046 20.6031 37.1637 20.148 37.0596L19.4609 39.2823C20.5403 39.5468 21.8038 39.742 23.0977 39.742C24.3872 39.742 25.6508 39.549 26.7345 39.2823L26.0453 37.0596C25.5901 37.1658 24.4545 37.3046 23.0977 37.3046Z" fill="white"/>
<path d="M29.3209 35.5156C28.584 35.7997 27.6196 36.0947 26.2324 36.383L26.8848 38.5017C28.3001 38.1785 29.4986 37.7405 30.4674 37.3003L29.3231 36.8384V35.5156H29.3209Z" fill="white"/>
<path d="M14.4703 14.21C16.2648 13.2407 20.6515 11.1069 17.6779 8.80604C17.2726 8.49382 16.8262 8.21187 16.4512 7.86278C15.9874 8.22054 16.6246 9.10965 16.785 9.43496C16.785 9.43496 15.7945 9.53463 15.5583 9.53463C14.0282 9.52816 12.4243 8.62176 13.2371 6.88477C12.6281 7.01057 12.5544 7.59605 12.368 8.09695C11.9779 7.83243 11.2995 7.26429 10.7772 7.34453C11.202 8.70407 12.9901 9.9294 14.377 10.2069C12.9748 10.9702 10.374 11.5384 9.00655 9.89459C8.04635 11.7531 9.38361 12.5294 10.6948 13.503C5.70353 15.7822 6.44046 18.3388 3.16561 20.3512C3.59034 20.5506 5.48461 20.1496 5.65365 20.1256C4.94276 21.0473 4.61114 21.4376 4.40312 21.8865C4.20369 22.3072 4.11483 22.7821 3.9177 23.8057C3.76373 24.6145 3.48199 25.4212 2.49805 25.9568C2.88388 26.655 3.73998 26.1086 4.09755 26.0154C4.0498 26.0891 3.92843 26.9304 3.60771 27.3359C5.28952 27.2275 4.51147 23.6798 6.19337 24.5342C6.66798 24.7728 6.81106 25.3323 6.59205 25.7898C5.48673 28.0711 7.99869 30.0813 7.86207 32.0807C8.47985 32.0763 9.11924 32.059 9.52227 31.2241C9.73259 31.6404 10.0577 32.2259 10.2397 32.7898L10.7425 31.9332C11.0524 33.3514 12.3745 34.6612 14.1604 34.7783C13.3087 33.4295 14.3295 31.5884 12.2597 29.6302C12.5175 29.422 13.1136 29.0209 13.3259 28.7477C10.7859 29.0469 8.13521 27.0367 9.33808 26.0826C10.1248 25.4602 10.4694 26.7526 11.6831 26.5358L11.2085 26.1259C11.3753 25.9611 11.5661 25.7465 11.7633 25.5838C11.2475 25.521 10.6839 25.1913 10.6839 25.1913L10.9917 24.6817C8.01605 24.6773 7.94013 22.4005 9.14946 22.3094C9.71735 22.2682 10.4521 23.3156 12.2834 23.0965C12.0494 22.8146 11.9563 22.3874 11.8456 22.073C12.2878 22.0318 12.808 22.0362 13.2263 21.8323C12.3312 21.7174 12.1057 21.4159 11.3602 20.8522L12.225 20.5356C10.9701 19.9089 11.0459 18.8181 11.007 17.6817C11.6636 18.059 12.4352 18.6446 13.2587 18.3735C13.4538 18.3084 13.5795 18.2174 13.5838 18.0136C12.4092 17.5431 11.655 15.7323 14.4703 14.21ZM12.3268 14.3878C10.7555 16.0684 11.436 17.0746 11.7525 17.3846C11.1672 17.2589 10.2939 16.5129 10.4932 15.7908C10.307 16.0142 10.1162 16.257 9.92112 16.5064C9.53095 17.0269 9.18206 17.5365 8.87215 18.0309C8.39533 19.4491 9.26871 20.9129 10.7555 21.5612C9.10401 21.3184 8.36281 19.8482 8.36716 18.9114C7.57821 20.4033 7.20106 21.7651 7.23579 22.9079C7.25094 23.3329 7.2878 23.7297 7.34414 24.1048C7.72351 24.8248 8.33251 25.0895 9.41826 25.2216C8.43218 25.2845 7.90983 25.239 7.48075 24.788C8.15258 27.6786 11.2952 30.181 12.5739 32.3235C11.2929 30.6581 8.64242 28.1774 7.71482 26.384C7.64324 27.0323 7.81662 28.6935 8.62285 29.7148C7.43513 28.546 7.34201 26.7765 7.42007 25.7399C7.11875 24.994 6.92809 24.1613 6.90205 23.2137C6.87813 22.3419 6.93882 21.5851 7.07109 20.9063C6.32113 21.9733 5.23751 22.3852 4.70435 24.0095C4.80836 21.9146 6.37109 21.8822 7.54144 19.3385C7.99434 18.2261 8.65315 17.2654 9.38149 16.1768C8.45602 16.4805 7.76249 16.6973 6.69173 17.8704C7.45249 16.0705 11.8478 14.0474 13.8613 12.0891C13.2566 12.2172 10.788 12.28 9.76289 11.5948C11.6203 12.0978 15.7534 11.5232 17.3138 10.4563C16.2367 12.0067 13.8916 12.0957 11.0373 15.1794C11.4014 14.8887 11.8869 14.596 12.3268 14.3878Z" fill="white"/>
<path d="M42.2736 23.8062C42.0765 22.7827 41.9897 22.3078 41.7903 21.8871C41.5845 21.4382 41.2507 21.048 40.5377 20.1262C40.7067 20.1502 42.6053 20.5514 43.0279 20.3519C39.7531 18.3395 40.4899 15.7828 35.4965 13.5037C36.8077 12.53 38.1449 11.7537 37.1848 9.89314C35.8173 11.539 33.2165 10.9709 31.8142 10.2054C33.2034 9.92778 34.9893 8.70483 35.4141 7.34293C34.8896 7.26269 34.2112 7.83082 33.8211 8.09322C33.6347 7.59232 33.5631 7.00684 32.9541 6.87891C33.7669 8.61801 32.1609 9.52441 30.6287 9.53097C30.3946 9.53097 29.4063 9.43121 29.4063 9.43121C29.5645 9.1059 30.2017 8.2169 29.7357 7.85905C29.3608 8.21035 28.9187 8.49009 28.5112 8.80237C25.5355 11.1032 29.9265 13.2391 31.721 14.2062C34.532 15.7285 33.7843 17.5393 32.6075 18.0033C32.6118 18.2071 32.7375 18.2983 32.9347 18.3633C33.7539 18.6365 34.5299 18.0511 35.1822 17.6716C35.1454 18.8079 35.2233 19.9008 33.9686 20.5254L34.8311 20.8419C34.0856 21.4057 33.8622 21.7072 32.9672 21.8221C33.3833 22.026 33.9079 22.0216 34.3478 22.0628C34.2351 22.3772 34.1376 22.8044 33.9079 23.0863C35.7414 23.3031 36.4783 22.258 37.0418 22.2991C38.2467 22.3902 38.1752 24.6671 35.1974 24.6715L35.5052 25.181C35.5052 25.181 34.9416 25.5107 34.4236 25.5736C34.6209 25.734 34.8138 25.9509 34.9806 26.1157L34.506 26.5256C35.7175 26.7424 36.0644 25.45 36.851 26.0724C38.0539 27.0265 35.4054 29.0366 32.8632 28.7375C33.0777 29.0107 33.6738 29.414 33.9316 29.6222C31.8597 31.5782 32.8784 33.4214 32.0309 34.7724C33.8124 34.6531 35.1346 33.3434 35.4488 31.9251L35.9516 32.7817C36.1314 32.2179 36.4609 31.6324 36.6668 31.216C37.0677 32.0509 37.7115 32.0683 38.3314 32.0727C38.1904 30.0733 40.7002 28.0631 39.5992 25.7818C39.3782 25.3264 39.5211 24.767 39.9959 24.5262C41.682 23.6718 40.8996 27.2196 42.5836 27.3279C42.2607 26.9223 42.1415 26.0811 42.0959 26.0074C42.4513 26.1006 43.3054 26.647 43.691 25.9466C42.7136 25.4218 42.4319 24.6151 42.2736 23.8062ZM39.1246 20.9048C39.2568 21.5857 39.3239 22.3404 39.2936 23.2121C39.2654 24.1597 39.0768 24.9924 38.7756 25.7384C38.8514 26.775 38.7605 28.5444 37.5727 29.7133C38.3768 28.6898 38.5524 27.0309 38.4808 26.3825C37.5489 28.1758 34.9005 30.6566 33.6174 32.322C34.8983 30.1795 38.0409 27.6749 38.7149 24.7864C38.2814 25.2353 37.7635 25.2831 36.7752 25.2202C37.8588 25.0878 38.4678 24.8233 38.8471 24.1034C38.9034 23.7304 38.9404 23.3314 38.9554 22.9064C38.9924 21.7635 38.6131 20.4017 37.8241 18.9098C37.8307 19.8466 37.0894 21.3168 35.4358 21.5597C36.9183 20.9091 37.7938 19.4454 37.3192 18.0294C37.0114 17.535 36.6647 17.0232 36.2702 16.5049C36.0751 16.2555 35.8844 16.0127 35.6959 15.7893C35.8952 16.5114 35.0219 17.2573 34.4366 17.3831C34.7553 17.073 35.4337 16.0668 33.8645 14.3863C34.3044 14.5945 34.7899 14.8872 35.1562 15.1734C32.3018 12.0898 29.959 12.0031 28.8775 10.4505C30.4401 11.5174 34.5732 12.0942 36.4284 11.5888C35.4054 12.2741 32.9347 12.2112 32.33 12.0833C34.3435 14.0414 38.7431 16.0647 39.5017 17.8646C38.431 16.6914 37.7353 16.4746 36.8142 16.171C37.5445 17.2617 38.1991 18.2202 38.6521 19.3326C39.8245 21.8762 41.3894 21.9067 41.4912 24.0036C40.9581 22.3837 39.8766 21.9717 39.1246 20.9048Z" fill="white"/>
<path d="M25.3983 17.2461C24.9279 17.8923 24.0719 18.326 23.0987 18.326C22.8711 18.326 22.6522 18.3 22.4442 18.2609C22.5028 18.5277 22.6393 18.8031 22.9231 19.0394C22.8083 19.8135 23.1421 20.5379 23.9722 20.7266C24.061 21.1213 24.3038 21.4183 24.7156 21.5592L24.1368 22.2272C23.9136 22.483 23.6232 22.5654 23.3892 22.5351L20.8058 22.2423C20.9184 21.9561 20.6193 21.6243 19.8001 21.7653L20.8144 18.9245L20.1966 17.6083L19.0242 18.6101L18.9375 21.5896L18.4325 21.3446C17.7823 21.0626 17.5894 22.2488 18.2093 22.2531L18.4585 22.2554C18.4412 22.3767 18.4802 22.5112 18.5777 22.5546C18.4607 22.6023 18.4259 22.8213 18.5712 22.8994C18.4238 22.9709 18.4022 23.1965 18.5214 23.2941C18.3935 23.513 18.3696 23.988 18.8227 24.1073C19.1954 24.2049 19.4295 23.8058 19.5054 23.5738L23.5257 24.8185C24.0914 24.9812 24.4988 24.89 24.9713 24.476L26.0204 23.5586C25.8881 24.1593 26.1026 24.6992 26.56 24.8792C26.56 24.8792 26.4884 25.43 26.5166 25.6578L27.9231 25.6599H30.1381V19.046C30.1381 18.4301 30.3138 17.8142 30.5305 17.2461H27.9231H25.3983Z" fill="white"/>
<path d="M19.3784 28.3747L19.4564 28.4723C19.5648 28.6068 19.6298 28.5742 19.7533 28.5027L19.9354 28.4051C20.0503 28.3183 20.798 28.6046 20.8391 27.9823C20.9215 28.4462 20.3689 29.4242 20.7026 29.9708L21.1513 30.7059L19.6862 30.7276C19.5258 30.7276 19.4413 30.8252 19.3979 30.9119L19.0142 31.7077C18.9145 31.918 18.921 32.1349 19.0468 32.2802L19.3069 32.5729C19.3069 32.5729 19.5193 32.393 19.5885 32.1566L19.4737 32.0373C19.3784 31.9462 19.3784 31.8595 19.4304 31.7467L19.6666 31.2567C19.7576 31.0637 19.8509 31.0225 20.059 31.0723L21.2445 31.3282C21.3311 31.35 21.4721 31.3911 21.5565 31.2458C21.7017 30.9877 21.9575 30.9704 22.2176 31.0116C22.8677 31.1092 24.3698 31.2654 24.9051 30.6387C25.5336 31.4736 26.7625 31.4736 26.6823 31.9115L26.4222 33.3471H26.8123L27.0507 31.8791C27.0766 31.7077 27.1829 31.4736 26.9987 31.3413C26.9228 31.2827 26.8882 31.2524 26.7168 30.9574C26.4937 30.5671 26.5046 29.9816 26.2899 29.4763C26.4937 29.2356 26.7147 29.1532 26.9076 29.1988C27.3411 29.305 27.4581 30.0532 28.0736 30.6624C28.0043 30.3914 27.974 30.0943 27.8287 29.8363C27.8287 29.8363 28.2557 30.1681 28.3662 30.5562C28.4356 30.7991 28.5071 30.9769 28.726 31.0897C28.8712 31.1417 29.0446 31.0723 29.2181 30.8641C29.2181 30.8641 28.8127 30.2874 28.5158 29.9101C28.1083 29.3917 27.5643 28.8713 26.8231 28.932C26.589 28.9516 26.3636 29.0578 26.1491 29.1857C25.306 28.713 24.6515 29.2139 24.3914 29.2139L22.8136 29.1206C22.5037 29.1012 22.2587 28.7412 22.2587 28.7412C22.2197 27.4054 21.1469 26.8741 20.7763 26.8741C20.7763 26.8741 20.811 26.6333 20.7134 26.5488L20.384 26.963L19.4694 26.629L20.1868 27.2167L19.4087 28.121C19.3286 28.21 19.3394 28.327 19.3784 28.3747Z" fill="white"/>
<path d="M18.3446 30.2507C18.1235 30.4219 18.1343 30.6605 18.2666 30.9272L18.3988 31.1744L18.7433 30.912L18.6654 30.7429C18.609 30.6236 18.6112 30.5022 18.7087 30.4262L19.2029 30.0533C19.3416 29.9514 19.3849 29.9406 19.5324 29.9622L20.5747 30.1813C20.5747 30.1813 20.4165 29.9514 20.3645 29.7171L19.3827 29.587C19.244 29.5697 19.1596 29.6283 19.0382 29.7215L18.3446 30.2507Z" fill="white"/>
<path d="M25.0117 33.3471H25.4062L26.039 31.7879C26.0607 31.7337 26.091 31.7099 26.1149 31.6644C25.831 31.5516 25.6641 31.4735 25.4279 31.3369C25.5861 31.5494 25.7096 31.6405 25.6446 31.8378L25.0117 33.3471Z" fill="white"/>
<path d="M25.3459 12.2589L26.0762 8.05859L23.3086 8.99974V13.3302L25.3459 12.2589ZM23.7766 9.42473L25.6124 8.74822C25.6124 8.74822 25.2548 9.03872 24.8278 9.33144C24.4486 9.59385 23.7766 9.87363 23.7766 9.87363V9.42473ZM23.7766 10.4418L25.4563 9.84103C25.4563 9.84103 25.2548 10.0537 24.83 10.3464C24.4507 10.6066 23.7789 10.8863 23.7789 10.8863V10.4418H23.7766ZM23.7766 11.5217L25.2548 10.9535C25.2548 10.9535 25.2548 11.1335 24.8278 11.4241C24.4486 11.6865 23.7766 11.9662 23.7766 11.9662V11.5217Z" fill="white"/>
<path d="M20.4222 15.9728L20.4829 16.0704H21.0529L21.0594 16.1702C21.0659 16.2657 21.0876 16.3632 21.12 16.4629C21.209 16.734 21.3845 17.0181 21.6662 17.2479C21.9935 17.5126 22.466 17.7034 23.0945 17.7034C24.4578 17.7034 25.0733 16.8208 25.1318 16.1702L25.1362 16.0704H25.7082L25.7689 15.9728C26.3065 15.1315 26.9632 14.1969 27.726 14.0625L25.6454 12.8545L23.0945 14.2424L20.5413 12.8545L18.4629 14.0625C19.2259 14.1947 19.8825 15.1315 20.4222 15.9728Z" fill="white"/>
<path d="M22.8805 13.3302V8.99974L20.1172 8.05859L20.8431 12.2589L22.8805 13.3302ZM22.4145 11.9706C22.4145 11.9706 21.7426 11.6887 21.3634 11.4284C20.9364 11.1379 20.9364 10.9557 20.9364 10.9557L22.4166 11.5239V11.9706H22.4145ZM22.4145 9.42473V9.87363C22.4145 9.87363 21.7426 9.59385 21.3634 9.33144C20.9342 9.03872 20.5744 8.74822 20.5744 8.74822L22.4145 9.42473ZM22.4145 10.4418V10.8885C22.4145 10.8885 21.7426 10.6088 21.3634 10.3485C20.9342 10.0558 20.7349 9.84324 20.7349 9.84324L22.4145 10.4418Z" fill="white"/>
<path d="M23.0977 6.20605C21.5177 6.20605 20.3322 6.7243 20.0742 7.33155L23.0977 8.52637L26.1168 7.33155C25.861 6.7243 24.6776 6.20605 23.0977 6.20605Z" fill="white"/>
<path d="M23.0969 4.47163C24.2608 4.47163 25.4268 4.82515 26.2114 5.28271C26.3393 4.85983 26.4758 4.55842 26.6622 4.21366L25.9471 4.32425L25.3683 3.08817L24.2869 3.66286L23.0969 2.48535L21.9049 3.66286L20.8256 3.08817L20.2427 4.32425L19.5273 4.21366C19.7137 4.55842 19.8481 4.85983 19.9804 5.28271C20.7671 4.82515 21.9288 4.47163 23.0969 4.47163Z" fill="white"/>
<path d="M42.8192 13.9912C43.2093 13.9414 43.5237 13.8113 43.9073 13.525C43.0815 13.3061 41.3519 12.6793 39.876 12.9612C39.3884 13.0263 39.1175 13.2236 39.2908 13.3364C40.0841 13.8633 41.0637 15.0841 41.7767 16.509C42.4031 15.7304 42.1409 14.709 42.0086 14.4163C43.257 15.1687 43.5843 15.5352 44.163 15.3921C43.853 14.9172 43.4173 14.49 42.8192 13.9912Z" fill="white"/>
<path d="M4.41748 16.5071C5.1305 15.0824 6.11011 13.8616 6.90552 13.3346C7.08324 13.2219 6.80798 13.0245 6.32469 12.9595C4.84656 12.6798 3.11274 13.3043 2.28702 13.5233C2.6749 13.8096 2.98268 13.9397 3.37719 13.9895C2.77687 14.4905 2.34116 14.9155 2.03125 15.3904C2.61421 15.5335 2.93936 15.167 4.18554 14.4145C4.0577 14.7095 3.79324 15.7286 4.41748 16.5071Z" fill="white"/>
<path fill-rule="evenodd" clip-rule="evenodd" d="M13.0712 29.7298C13.6456 29.2743 14.1223 29.0466 14.0986 27.9429C13.2359 28.3852 10.7891 28.3614 9.76606 26.9519C9.47777 26.5507 9.78555 26.3491 10.0651 26.6656C10.7652 27.4593 12.0612 27.0994 12.5337 26.8716C12.4579 26.5985 12.2476 26.2428 12.0721 26.091C12.2498 25.9175 12.7505 25.6572 12.8523 25.2106C12.5857 25.0653 11.5475 24.9612 11.5475 24.9612C11.7145 24.8007 11.9225 24.5774 11.7969 23.9811C10.737 24.3064 9.42577 23.8639 9.12888 23.4715C8.83625 23.0854 9.13544 22.7233 9.38244 22.9791C9.91127 23.5343 12.5163 24.1697 13.4852 23.2047C13.1254 23.1049 12.7288 22.784 12.6572 22.5845C13.5546 22.4935 14.2697 21.9643 14.3283 21.3051C13.8319 21.3051 12.8956 21.2682 12.5748 21.0296C13.004 20.8714 13.2771 20.7152 13.4136 20.2338C11.773 20.1341 11.643 18.9154 11.6343 18.7137C12.7027 19.3295 14.584 19.0563 14.0964 17.5383C13.2077 17.4907 12.3127 16.053 14.7552 14.7323C16.9768 13.5289 19.5017 12.232 19.2784 10.0961C19.1332 8.72992 16.8857 7.79743 16.5996 7.1057C15.6611 7.55238 15.4726 8.07071 15.8952 8.94024C15.8952 8.94024 13.8037 9.14843 13.639 7.86034C13.5675 7.28352 13.9533 6.74352 14.3673 6.3294C14.1332 6.3294 12.5575 5.90652 12.0828 7.19027C11.2008 6.58746 10.4444 6.60913 9.85058 7.24663C10.7998 7.81044 11.3872 9.74476 12.9563 10.315C11.8401 10.92 10.0348 10.6664 8.98146 8.80576C7.98449 10.3086 7.41021 11.7961 9.54936 13.3857C5.65895 15.1573 5.6872 18.5446 2.30179 20.1579C2.64421 21.0795 3.36813 21.0795 4.29147 20.9364C2.8284 22.8382 4.07468 24.8289 1.75781 25.6421C1.97452 26.4184 2.41014 27.0386 3.26411 26.8109C3.02136 27.1904 2.861 27.1817 2.48385 27.5981C3.74953 28.3961 5.25158 27.8193 5.59179 25.2582C5.65248 24.8007 6.28098 25.087 6.06427 25.5359C4.62078 28.5219 8.27065 30.7685 6.97893 32.9587C8.11668 32.9109 8.9858 32.822 9.45828 32.4382C9.69022 32.8979 9.83109 33.3533 9.77909 33.8022C10.4076 33.6743 10.6373 33.3034 10.6806 32.8741C11.0925 34.0776 12.5662 35.3635 14.9243 35.3635C13.6738 33.5767 14.8376 31.766 13.0712 29.7298ZM10.7435 31.9307L10.2408 32.7873C10.0607 32.2235 9.73355 31.638 9.52331 31.2217C9.11807 32.0565 8.47868 32.0739 7.86312 32.0782C7.99964 30.0789 5.48778 28.0687 6.5931 25.7874C6.81414 25.332 6.66894 24.7725 6.19424 24.5318C4.5103 23.6774 5.29048 27.2251 3.60875 27.3335C3.92947 26.9279 4.05076 26.0867 4.09851 26.0129C3.74085 26.1061 2.88475 26.6526 2.49909 25.9544C3.48303 25.4187 3.76477 24.6121 3.91866 23.8032C4.11366 22.7796 4.20474 22.3048 4.40195 21.884C4.60997 21.4352 4.94159 21.0449 5.65248 20.1232C5.48344 20.1471 3.59139 20.5483 3.16444 20.3488C6.43929 18.3364 5.70236 15.7797 10.6937 13.5006C9.38457 12.527 8.04731 11.7506 9.00538 9.89226C10.3729 11.5359 12.9715 10.9678 14.376 10.2045C12.9889 9.92691 11.2008 8.70387 10.7782 7.34209C11.3005 7.26185 11.9788 7.82999 12.3669 8.09451C12.5554 7.59139 12.6291 7.00813 13.2381 6.88232C12.4254 8.61927 14.0292 9.52575 15.5593 9.53231C15.7977 9.53231 16.786 9.43247 16.786 9.43247C16.6277 9.10724 15.9884 8.2181 16.4522 7.86034C16.8271 8.21164 17.2737 8.49137 17.6789 8.80363C20.6546 11.1065 16.2658 13.2404 14.4713 14.2098C11.6559 15.732 12.4102 17.5449 13.5849 18.0068C13.5805 18.2106 13.4548 18.3017 13.2597 18.3668C12.4362 18.64 11.6646 18.0523 11.0079 17.675C11.0469 18.8113 10.9689 19.9042 12.2259 20.5287L11.3611 20.8432C12.1045 21.4092 12.3321 21.7084 13.2272 21.8255C12.809 22.0293 12.2909 22.025 11.8466 22.0663C11.9594 22.3806 12.0504 22.8079 12.2845 23.0897C10.4531 23.3067 9.7184 22.2614 9.1505 22.3026C7.94117 22.3936 8.01701 24.6707 10.9928 24.675L10.685 25.1845C10.685 25.1845 11.2484 25.5142 11.7666 25.577C11.5693 25.7375 11.3785 25.9544 11.2117 26.1191L11.6863 26.529C10.4705 26.7458 10.128 25.4534 9.33903 26.0758C8.13625 27.0299 10.7869 29.0402 13.3269 28.7408C13.1146 29.0141 12.5163 29.4175 12.2606 29.6256C14.3304 31.5817 13.3096 33.4249 14.1614 34.7759C12.3756 34.6587 11.0534 33.3467 10.7435 31.9307Z" fill="black"/>
<path fill-rule="evenodd" clip-rule="evenodd" d="M7.47732 24.7879C7.9086 25.2368 8.42875 25.2845 9.41482 25.2216C8.32908 25.0893 7.72007 24.8247 7.34079 24.1049C7.28657 23.7319 7.2498 23.3328 7.23457 22.9078C7.19993 21.7649 7.57699 20.4032 8.36593 18.9113C8.36159 19.8458 9.10066 21.316 10.7543 21.5611C9.26757 20.9106 8.39411 19.4468 8.87084 18.0308C9.18084 17.5364 9.52981 17.0246 9.9199 16.5064C10.1149 16.257 10.3056 16.0141 10.4921 15.7907C10.2926 16.5128 11.1661 17.2588 11.7513 17.3845C11.4348 17.0744 10.7543 16.0705 12.3256 14.39C11.8878 14.5981 11.4023 14.8908 11.0339 15.177C13.8862 12.0934 16.2332 12.0067 17.3105 10.4541C15.7499 11.521 11.6169 12.0978 9.75954 11.5924C10.7846 12.2777 13.2532 12.2148 13.8579 12.0869C11.8467 14.0451 7.45127 16.0684 6.68846 17.8682C7.75905 16.6929 8.45258 16.4782 9.38018 16.1767C8.64988 17.2675 7.99321 18.226 7.54014 19.3385C6.36979 21.8799 4.80501 21.9125 4.70312 24.0073C5.23638 22.383 6.32 21.971 7.06987 20.9041C6.93768 21.585 6.87478 22.3397 6.89861 23.2114C6.92466 24.159 7.1154 24.9917 7.41663 25.7377C7.34079 26.7743 7.43178 28.5437 8.6195 29.7126C7.81327 28.6912 7.63981 27.0302 7.71139 26.3817C8.6412 28.1751 11.2918 30.6559 12.5727 32.3213C11.2918 30.181 8.15136 27.6785 7.47732 24.7879Z" fill="black"/>
<path fill-rule="evenodd" clip-rule="evenodd" d="M36.8157 16.1766C37.7368 16.4802 38.4325 16.6949 39.5031 17.8702C38.7446 16.0703 34.3428 14.0471 32.3315 12.089C32.9361 12.2147 35.4069 12.2798 36.4299 11.5946C34.5747 12.0998 30.4416 11.523 28.8789 10.4561C29.9584 12.0087 32.3034 12.0955 35.1577 15.1791C34.7914 14.8928 34.3059 14.6001 33.866 14.3919C35.4352 16.0725 34.7568 17.0787 34.4382 17.3888C35.0233 17.2631 35.8967 16.5171 35.6973 15.7949C35.8859 16.0183 36.0766 16.2612 36.2717 16.5105C36.6639 17.031 37.0107 17.5405 37.3207 18.035C37.7975 19.4533 36.9219 20.9169 35.4394 21.5653C37.0931 21.3225 37.8343 19.85 37.8257 18.9154C38.6167 20.4073 38.9939 21.7692 38.9591 22.912C38.944 23.337 38.9071 23.7339 38.8508 24.109C38.4694 24.8289 37.8604 25.0935 36.7767 25.2258C37.765 25.2865 38.283 25.241 38.7164 24.7921C38.0424 27.6827 34.9019 30.1852 33.6189 32.3276C34.9019 30.6622 37.5483 28.1815 38.4824 26.388C38.5539 27.0365 38.3805 28.6975 37.5743 29.719C38.7619 28.5502 38.853 26.7806 38.7771 25.744C39.0762 24.9981 39.2647 24.1654 39.2951 23.2177C39.3233 22.3459 39.256 21.5892 39.1261 20.9105C39.8781 21.9773 40.9595 22.3894 41.4949 24.0136C41.393 21.9166 39.8283 21.8841 38.6557 19.3426C38.2006 18.2236 37.546 17.2652 36.8157 16.1766Z" fill="black"/>
<path fill-rule="evenodd" clip-rule="evenodd" d="M41.9054 20.9323C42.8266 21.0777 43.5506 21.0777 43.8951 20.156C40.5097 18.5427 40.538 15.1576 36.6476 13.3839C38.7867 11.7964 38.2103 10.3066 37.2155 8.80392C36.1643 10.6645 34.3525 10.9182 33.2406 10.3132C34.8054 9.74284 35.3971 7.80858 36.3463 7.24477C35.7525 6.60718 34.9939 6.58551 34.1119 7.18833C33.635 5.90457 32.0616 6.32744 31.8253 6.32744C32.2371 6.73944 32.6273 7.27944 32.5536 7.85847C32.3911 9.1466 30.2996 8.93832 30.2996 8.93832C30.7222 8.06876 30.5336 7.55051 29.5952 7.10376C29.3091 7.79557 27.0638 8.728 26.9164 10.0941C26.691 12.2301 29.2201 13.5269 31.4396 14.7305C33.8821 16.0511 32.9871 17.491 32.1006 17.5365C31.6086 19.0545 33.4898 19.3277 34.5604 18.7118C34.5561 18.9135 34.4196 20.1321 32.7789 20.232C32.9177 20.7134 33.1886 20.8694 33.6178 21.0278C33.297 21.2685 32.3607 21.3032 31.8665 21.3032C31.925 21.9624 32.6424 22.4937 33.5397 22.5826C33.4681 22.7821 33.0694 23.1031 32.7117 23.2028C33.6806 24.1677 36.2856 23.5324 36.8146 22.9773C37.0572 22.7215 37.3542 23.0835 37.0637 23.4695C36.7646 23.8641 35.4556 24.3066 34.3936 23.979C34.2722 24.5733 34.476 24.7988 34.6428 24.9593C34.6428 24.9593 33.6047 25.0633 33.3359 25.2087C33.4378 25.6554 33.9406 25.9134 34.1162 26.0891C33.9384 26.2408 33.7282 26.5965 33.6524 26.8698C34.1291 27.0996 35.4252 27.4574 36.121 26.6637C36.4027 26.3493 36.7105 26.5488 36.4222 26.95C35.3993 28.3595 32.9524 28.3812 32.0876 27.941C32.0637 29.0447 32.5405 29.2725 33.1149 29.7278C31.3464 31.7641 32.5146 33.5748 31.264 35.3573C33.6199 35.3573 35.0937 34.0714 35.5055 32.8678C35.5531 33.295 35.7784 33.668 36.4048 33.7959C36.3572 33.347 36.4959 32.8917 36.7256 32.4319C37.2024 32.8158 38.0716 32.9047 39.2093 32.9523C37.9198 30.7622 41.5696 28.5157 40.1218 25.5296C39.9073 25.0807 40.5358 24.7945 40.5964 25.252C40.9345 27.813 42.4387 28.3899 43.7065 27.5919C43.3251 27.1755 43.1669 27.1842 42.9241 26.8047C43.7781 27.0323 44.2116 26.4122 44.4304 25.6358C42.1245 24.8248 43.3706 22.8341 41.9054 20.9323ZM42.1005 26.0154C42.1462 26.0891 42.2653 26.9305 42.5882 27.336C40.9042 27.2275 41.6844 23.6799 40.0005 24.5343C39.5258 24.7728 39.385 25.3323 39.6038 25.7898C40.7048 28.0711 38.1951 30.0814 38.336 32.0807C37.7161 32.0764 37.0724 32.059 36.6715 31.2241C36.4655 31.6405 36.134 32.226 35.9541 32.7898L35.4513 31.9332C35.1391 33.3514 33.817 34.6612 32.0355 34.7805C32.883 33.4316 31.8643 31.5884 33.9363 29.6303C33.6762 29.4221 33.0802 29.0188 32.8657 28.7455C35.4078 29.0447 38.0563 27.0346 36.8535 26.0804C36.0668 25.458 35.72 26.7505 34.5084 26.5336L34.9831 26.1238C34.8162 25.959 34.6233 25.7443 34.426 25.5817C34.9441 25.5188 35.5076 25.1891 35.5076 25.1891L35.1998 24.6796C38.1756 24.6752 38.2471 22.3983 37.0442 22.3072C36.4785 22.266 35.7417 23.3134 33.9103 23.0944C34.1422 22.8124 34.2376 22.3852 34.3503 22.0708C33.9081 22.0296 33.3857 22.034 32.9697 21.8301C33.8648 21.7152 34.0902 21.4138 34.8336 20.85L33.971 20.5334C35.2258 19.9067 35.1457 18.8159 35.1847 17.6797C34.5301 18.057 33.7542 18.6424 32.9372 18.3714C32.7421 18.3063 32.6142 18.2152 32.6099 18.0114C33.7867 17.5473 34.5367 15.7366 31.7235 14.2143C29.9311 13.245 25.5401 11.1112 28.5137 8.81039C28.9211 8.49818 29.3632 8.21623 29.736 7.86714C30.202 8.22491 29.5649 9.114 29.4066 9.43931C29.4066 9.43931 30.3949 9.53898 30.6289 9.53898C32.1613 9.53251 33.7672 8.62611 32.9545 6.88691C33.5635 7.01272 33.635 7.60041 33.8214 8.10132C34.2115 7.83671 34.8878 7.27078 35.4144 7.35102C34.9875 8.71072 33.2037 9.93588 31.8145 10.2134C33.2167 10.9768 35.8175 11.5449 37.1851 9.90115C38.1431 11.7596 36.808 12.5359 35.4968 13.5096C40.4903 15.7865 39.7512 18.3454 43.0281 20.3578C42.6055 20.5572 40.707 20.156 40.538 20.1321C41.2531 21.0538 41.5869 21.4441 41.7906 21.893C41.9901 22.3137 42.0768 22.7865 42.274 23.8121C42.43 24.621 42.7139 25.4276 43.6935 25.9634C43.31 26.6551 42.4561 26.1086 42.1005 26.0154Z" fill="black"/>
<path fill-rule="evenodd" clip-rule="evenodd" d="M18.3217 31.6127L19.0348 31.0077L18.9263 30.7908C18.8484 30.6347 18.8896 30.626 18.972 30.5653L19.3491 30.2856C19.4357 30.214 19.5268 30.2227 19.633 30.2487L20.762 30.5132H19.5701C19.2948 30.5305 19.2147 30.6368 19.115 30.8407L19.0327 31.0077L18.7271 31.6365C18.623 31.8534 18.5688 32.1418 18.8419 32.467L19.0586 32.7251L18.6208 33.6121H18.9892L19.2927 32.9962C19.3165 32.9745 19.7652 32.5646 19.8605 32.1418C19.7304 32.0355 19.6394 31.9617 19.711 31.8143L19.8475 31.5194C19.8931 31.4219 19.9082 31.3829 20.0382 31.4066L21.2216 31.6626C21.369 31.7037 21.5857 31.7688 21.7439 31.5302C21.9065 31.283 21.9281 31.3091 22.3052 31.3459L22.9099 31.411C23.7357 31.4891 24.5614 31.283 24.8822 31.0272C24.9949 31.283 25.2181 31.4804 25.3221 31.6799C25.3611 31.7536 25.2961 31.8577 25.2463 31.9878L24.5679 33.6099H25.6147L26.2064 32.131C26.2606 31.99 26.3407 31.8772 26.4014 31.8209L26.0612 33.6121H27.0777L27.3464 31.8404C27.4049 31.4457 27.3703 31.32 27.1818 31.1572C26.7591 30.7995 26.7677 30.0492 26.6312 29.5937C26.7027 29.5526 26.7873 29.5308 26.887 29.5439C27.1081 29.5634 27.2749 30.1294 27.535 30.4937C28.0551 31.2245 28.7638 32.0312 29.5766 30.8948C29.4985 30.7648 29.414 30.6476 29.3144 30.5349L29.0868 30.2682C28.9546 30.1208 28.3261 29.4008 28.0637 29.1428C27.4678 28.542 26.5532 28.6332 26.1891 28.9259C25.3633 28.4922 24.4921 28.9476 24.2862 28.9302L22.8644 28.8434C22.7994 28.8391 22.7019 28.8175 22.6326 28.7069L22.8969 28.6202C22.6499 27.5901 22.0279 26.7291 20.9421 26.5796C20.9421 26.5796 20.8792 26.2543 20.7123 26.1914L20.3872 26.573C20.2961 26.5861 20.1964 26.6142 20.1141 26.649L18.7271 26.1328L19.7674 27.1846C19.7674 27.1846 19.2277 27.95 19.0738 28.1062C18.972 28.2493 18.9806 28.3599 19.0955 28.4965L19.297 28.7611C19.4011 28.8977 19.5159 28.8934 19.6828 28.8088L19.9104 28.6895C20.0101 28.6071 20.3438 28.7698 20.4869 28.6397C20.3958 28.9389 20.3503 29.2273 20.3287 29.4551L19.3946 29.3422C19.1908 29.314 19.0977 29.3422 18.9741 29.4398L18.1766 30.0535C17.9164 30.253 17.8363 30.5978 17.9967 30.934L18.3217 31.6127ZM26.0373 31.7883L25.4045 33.3497H25.01L25.643 31.8382C25.708 31.643 25.5844 31.5519 25.4262 31.3394C25.6603 31.4717 25.8294 31.5585 26.1132 31.6669C26.0894 31.7102 26.059 31.7341 26.0373 31.7883ZM19.9342 28.4075L19.7544 28.503C19.6286 28.5746 19.5657 28.6071 19.4574 28.4727L19.3794 28.3729C19.3404 28.3252 19.3274 28.2103 19.4076 28.1192L20.1834 27.215L19.4683 26.6273L20.3785 26.9634L20.7123 26.547C20.8098 26.6295 20.7751 26.8701 20.7751 26.8701C21.1435 26.8701 22.2164 27.4036 22.2575 28.7394C22.2575 28.7394 22.5003 29.0972 22.8102 29.1167L24.3902 29.2121C24.6525 29.2121 25.307 28.7135 26.1479 29.184C26.3603 29.056 26.5878 28.9541 26.822 28.928C27.5631 28.8738 28.1094 29.39 28.5146 29.9104C28.8115 30.2877 29.219 30.8645 29.219 30.8645C29.0434 31.0727 28.8722 31.1421 28.7271 31.09C28.5081 30.9773 28.4366 30.8016 28.3672 30.5566C28.2567 30.1684 27.8298 29.8366 27.8298 29.8366C27.975 30.0968 28.0053 30.3919 28.0746 30.6629C27.4569 30.0513 27.3399 29.3054 26.9086 29.2013C26.7179 29.1535 26.4947 29.236 26.2887 29.4745C26.5055 29.9797 26.4947 30.5653 26.7179 30.9577C26.887 31.2505 26.9238 31.2765 26.9997 31.3416C27.1818 31.4717 27.0798 31.708 27.0517 31.8794L26.8176 33.3474H26.4231L26.6832 31.9119C26.7634 31.4739 25.5346 31.4739 24.906 30.639C24.3707 31.2657 22.8688 31.1096 22.2186 31.012C21.9563 30.9729 21.7005 30.9903 21.5575 31.2484C21.473 31.3936 21.3322 31.3503 21.2455 31.3287L20.0599 31.0727C19.8518 31.025 19.7608 31.0662 19.6697 31.2571L19.4335 31.7472C19.3815 31.8621 19.3838 31.9467 19.479 32.0399L19.5918 32.1591C19.5246 32.3933 19.31 32.5733 19.31 32.5733L19.0521 32.2827C18.9263 32.1352 18.92 31.9228 19.0196 31.7146L19.4032 30.9122C19.4487 30.8234 19.5311 30.7279 19.6915 30.7279L21.1566 30.7062L20.7079 29.9754C20.3742 29.4268 20.929 28.4488 20.8444 27.9869C20.799 28.6049 20.0512 28.323 19.9342 28.4075ZM18.3434 30.2508L19.037 29.7217C19.1605 29.6285 19.2428 29.5678 19.3838 29.585L20.3634 29.7152C20.4175 29.9494 20.5736 30.1792 20.5736 30.1792L19.5311 29.9602C19.3838 29.943 19.3404 29.9494 19.2017 30.0492L18.7075 30.4222C18.61 30.4981 18.6057 30.6195 18.6621 30.7388L18.7422 30.91L18.3976 31.1702L18.2653 30.9231C18.1309 30.6607 18.1224 30.42 18.3434 30.2508Z" fill="black"/>
<path fill-rule="evenodd" clip-rule="evenodd" d="M21.3667 11.4257C21.7459 11.6881 22.4178 11.9678 22.4178 11.9678V11.521L20.9375 10.9551C20.9375 10.9551 20.9375 11.1373 21.3667 11.4257Z" fill="black"/>
<path fill-rule="evenodd" clip-rule="evenodd" d="M22.414 10.8882V10.4416L20.7344 9.84082C20.7344 9.84082 20.9338 10.0534 21.363 10.3461C21.7421 10.6064 22.414 10.8882 22.414 10.8882Z" fill="black"/>
<path fill-rule="evenodd" clip-rule="evenodd" d="M22.4143 9.87345V9.42464L20.5742 8.74805C20.5742 8.74805 20.934 9.03863 21.3632 9.33135C21.7424 9.59376 22.4143 9.87345 22.4143 9.87345Z" fill="black"/>
<path fill-rule="evenodd" clip-rule="evenodd" d="M27.584 15.9735H29.4652C29.3872 15.7002 29.0945 15.4248 28.5462 15.4248C28.0262 15.4248 27.714 15.7241 27.584 15.9735Z" fill="black"/>
<path fill-rule="evenodd" clip-rule="evenodd" d="M25.617 8.74805L23.7812 9.42464V9.87345C23.7812 9.87345 24.4531 9.59376 24.8324 9.33135C25.2594 9.03863 25.617 8.74805 25.617 8.74805Z" fill="black"/>
<path fill-rule="evenodd" clip-rule="evenodd" d="M25.2594 10.9551L23.7812 11.5232V11.9699C23.7812 11.9699 24.4531 11.6881 24.8324 11.4278C25.2594 11.1373 25.2594 10.9551 25.2594 10.9551Z" fill="black"/>
<path fill-rule="evenodd" clip-rule="evenodd" d="M25.4569 9.84082L23.7773 10.4416V10.8882C23.7773 10.8882 24.4513 10.6085 24.8284 10.3483C25.2576 10.0534 25.4569 9.84082 25.4569 9.84082Z" fill="black"/>
<path fill-rule="evenodd" clip-rule="evenodd" d="M17.6435 15.4248C17.0952 15.4248 16.8027 15.7002 16.7246 15.9735H18.6081C18.4737 15.7241 18.1659 15.4248 17.6435 15.4248Z" fill="black"/>
<path fill-rule="evenodd" clip-rule="evenodd" d="M26.8329 7.54197C26.8329 6.4838 25.0557 5.53613 23.0943 5.53613C21.1329 5.53613 19.3557 6.4838 19.3557 7.54197L19.3968 7.80223L20.177 12.2976L16.471 14.4595C16.0765 14.6916 15.5824 15.3291 15.5195 15.971H16.1957C16.3084 15.3291 16.8134 14.6178 17.7606 14.6612C18.6167 14.7067 19.1237 15.2272 19.6266 15.971L19.7566 16.1662L19.943 16.4589H14.4922C14.8932 17.2634 15.2724 18.1178 15.2724 19.0438V30.3829C15.2724 33.2996 17.5113 34.6896 19.9365 34.6896C21.8091 34.6896 22.0626 34.605 23.0965 35.6393C24.1259 34.605 24.3795 34.6896 26.2564 34.6896C28.6795 34.6896 30.9205 33.2996 30.9205 30.3829V19.046C30.9205 18.12 31.2998 17.2655 31.7007 16.461H26.2456L26.4341 16.1683L26.5641 15.9731C27.0648 15.2294 27.5741 14.7089 28.4302 14.6634C29.373 14.62 29.8823 15.3313 29.9928 15.9731H30.6668C30.6062 15.3313 30.1098 14.6916 29.7176 14.4617L26.0115 12.2997L26.7939 7.80436L26.8329 7.54197ZM20.1142 8.05809L22.8797 8.99922V13.3297L20.8424 12.2586L20.1142 8.05809ZM20.7948 17.2461C21.1588 17.7448 21.7484 18.1135 22.4462 18.2565C22.5048 18.519 22.6479 18.8073 22.9252 19.0394C22.8103 19.8136 23.142 20.5357 23.9742 20.7265C24.0609 21.1211 24.3058 21.4183 24.7154 21.5592L24.1368 22.2271C23.9157 22.483 23.6275 22.5654 23.3891 22.5351L20.8056 22.2423C20.9183 21.956 20.6192 21.6243 19.8021 21.7652L20.8186 18.9245L20.1987 17.6082L19.024 18.6101L18.9373 21.5896L18.4389 21.3446C17.7822 21.0627 17.5914 22.2488 18.2156 22.2531L18.4627 22.2553C18.4475 22.3768 18.4844 22.5112 18.5797 22.5524C18.4627 22.6023 18.428 22.8235 18.5754 22.9016C18.4259 22.971 18.4063 23.1964 18.5256 23.294C18.3955 23.5131 18.376 23.9879 18.8289 24.1072C19.1996 24.2048 19.4315 23.8058 19.5073 23.5738L23.5256 24.8185C24.0955 24.9811 24.4987 24.8901 24.9712 24.4759L26.0202 23.5586C25.888 24.1593 26.1047 24.6993 26.562 24.8792C26.562 24.8792 26.497 25.4192 26.5165 25.66H16.0548V19.046C16.0548 18.4301 15.8771 17.8142 15.6647 17.2461H20.7948ZM25.1164 19.755C24.8953 20.178 24.917 20.6636 25.1771 21.1039L25.0037 21.273C24.2495 21.1797 23.9526 20.0543 23.9526 20.0543C23.9374 20.1563 23.9287 20.2538 23.9309 20.3536C23.4909 20.1909 23.2135 19.8006 23.2352 19.2649C23.4021 19.3582 23.5885 19.4233 23.7878 19.458L23.8399 19.1283C23.3132 19.0372 23.0054 18.7077 22.8884 18.3173C22.8624 18.3151 22.8407 18.3086 22.8168 18.3065C22.9101 18.313 23.0032 18.3217 23.0986 18.3217C23.4108 18.3217 23.7076 18.2739 23.985 18.1915C24.204 18.5038 24.5919 18.7272 24.982 18.7706C24.9192 19.0308 24.9495 19.3539 25.1164 19.755ZM26.2326 22.7302C26.1567 22.8321 26.096 22.9493 26.0569 23.0772L25.6365 23.4632C25.7211 22.8474 25.3071 22.1208 24.93 21.8238L25.3765 21.3858L25.4653 21.4768C25.3157 21.8693 25.6084 22.6392 26.2326 22.7302ZM24.2018 22.5373L24.5486 22.1968C24.8996 22.5047 25.3635 23.1921 25.2183 23.8471L24.8411 24.194C24.7631 24.2698 24.683 24.3241 24.6006 24.3739C24.8368 23.7906 24.5356 22.8929 24.2018 22.5373ZM23.4562 22.8257H23.4671C23.5928 22.8452 23.7271 22.8235 23.8485 22.7736C24.1129 23.1509 24.3189 24.0096 24.0024 24.5453C23.8225 24.5496 23.647 24.5171 23.4822 24.4694L23.3522 24.4303C23.6188 24.0162 23.5819 23.2833 23.4562 22.8257ZM22.5828 22.7172L23.0705 22.7779C23.1485 23.1834 23.0965 23.8838 22.8385 24.2829L22.2707 24.1181C22.5199 23.7798 22.637 23.0837 22.5828 22.7172ZM21.5664 22.5936L22.158 22.663C22.2165 22.9882 22.106 23.68 21.8827 24.0096L21.2802 23.8362C21.5207 23.5174 21.6075 22.9557 21.5664 22.5936ZM19.1715 22.4352C18.8962 22.5242 18.7748 22.3247 18.7857 22.1556C19.3253 21.9583 19.5659 22.0862 19.7241 22.1859C19.8693 22.277 19.9907 22.5373 20.1857 22.6999C20.1533 22.921 20.0861 23.242 20.0058 23.4567C19.4532 23.3157 19.425 22.8278 19.6309 22.5307C19.516 22.3963 19.3947 22.3615 19.1715 22.4352ZM18.7857 23.5131C18.7857 23.5131 18.9503 23.5824 19.1584 23.5977C19.1346 23.7126 19.0457 23.821 18.9049 23.7906C18.7878 23.7646 18.7358 23.6214 18.7857 23.5131ZM18.2416 21.93C18.1051 21.839 18.1658 21.6395 18.3176 21.6395C18.4844 21.6438 18.7054 21.8325 18.9244 21.9257C18.9244 21.9257 18.35 22.0038 18.2416 21.93ZM18.8031 23.0794C18.9222 23.1943 19.2798 23.1509 19.2798 23.1509L19.2928 23.2225C19.1367 23.4306 18.7033 23.3374 18.8031 23.0794ZM19.2841 22.843C19.0284 22.9449 18.7661 22.8061 18.8463 22.6413C18.9656 22.7498 19.2972 22.6955 19.2972 22.6955L19.2841 22.843ZM19.6613 19.8657L19.1715 21.6503L19.3384 18.7706L20.0968 18.1222L20.4827 18.9701L19.5073 21.7674L19.7653 19.8852C19.7891 19.7507 19.6829 19.7355 19.6613 19.8657ZM19.6959 22.0298C19.6959 22.0298 20.242 22.0038 20.396 22.0623C20.5087 22.11 20.4328 22.3008 20.2854 22.2792C20.1316 22.2597 19.6959 22.0298 19.6959 22.0298ZM20.552 22.4635L21.1458 22.5373C21.1914 22.8624 21.1068 23.4133 20.8944 23.7213L20.3201 23.5543C20.4718 23.1921 20.5087 22.8517 20.552 22.4635ZM30.1381 30.3851C30.1381 31.7642 29.5008 32.8117 28.4411 33.3928L28.8203 32.6208H28.4519L27.9642 33.6097C27.4593 33.8005 26.8871 33.9067 26.2542 33.9067C24.321 33.9067 23.8095 33.9848 23.0943 34.6982C22.3768 33.9848 21.8655 33.9067 19.9344 33.9067C19.3058 33.9067 18.7337 33.8048 18.2308 33.614H18.2439L18.7315 32.6208H18.3652L17.9383 33.4904C17.8363 33.4427 17.7366 33.3906 17.6413 33.3342L17.9924 32.6208H17.6283L17.3683 33.1521C16.5403 32.5427 16.0526 31.5886 16.0526 30.3851V26.048H30.1337V30.3851H30.1381ZM30.5303 17.2461C30.3115 17.8142 30.1359 18.4301 30.1359 19.046V25.66H29.3664C29.0175 25.3216 28.7228 24.194 28.7228 24.194C28.5321 24.5995 28.7509 25.4213 28.9547 25.66H27.9642C27.7193 25.3281 27.507 24.1528 27.507 24.1528C27.2101 24.4911 27.3986 25.404 27.5828 25.66H26.9239C26.8827 25.1894 27.0171 24.6775 27.0171 24.6775C26.6725 24.6146 26.3062 24.4325 26.3084 24.0508C26.4817 24.2135 26.5533 24.2114 26.7939 24.207L27.0735 23.9857C26.1459 24.0162 26.1026 22.9969 26.8394 22.5199C26.1047 22.5437 25.5564 22.1058 25.823 21.325C25.3007 21.0539 25.1164 20.1693 25.5021 19.7811C25.2226 19.4775 25.1771 18.8811 25.3548 18.4756C24.9842 18.4756 24.5681 18.3281 24.3361 18.0744C24.3189 18.0831 24.2972 18.0896 24.2776 18.0961C24.7415 17.9075 25.1337 17.6126 25.3981 17.2483H30.5303V17.2461ZM27.7258 14.0627C26.963 14.1951 26.3062 15.1295 25.7687 15.9731L25.708 16.0707H25.1337L25.1316 16.1705C25.073 16.821 24.4554 17.7036 23.0943 17.7036C22.4658 17.7036 21.9912 17.5106 21.666 17.2483C21.3843 17.0184 21.2065 16.7343 21.1199 16.4632C21.0873 16.3657 21.0678 16.2658 21.0592 16.1705L21.0548 16.0707H20.4848L20.4241 15.9731C19.8845 15.1318 19.2278 14.1971 18.467 14.0627L20.5455 12.8548L23.0986 14.2427L25.6474 12.8548L27.7258 14.0627ZM25.3461 12.2586L23.311 13.3297V8.99922L26.0765 8.05809L25.3461 12.2586ZM23.0965 8.52648L20.0731 7.33168C20.3288 6.72443 21.5143 6.20619 23.0965 6.20619C24.6764 6.20619 25.8598 6.72443 26.1155 7.33168L23.0965 8.52648Z" fill="black"/>
<path fill-rule="evenodd" clip-rule="evenodd" d="M29.8167 21.5197L29.8232 21.1879C28.8067 21.164 28.5727 19.9648 28.5727 19.9648C28.2757 20.8474 29.0517 21.5066 29.8167 21.5197Z" fill="black"/>
<path fill-rule="evenodd" clip-rule="evenodd" d="M28.5324 23.552L28.4306 23.2376C27.5637 23.4588 27.1151 22.084 27.1151 22.084C26.8376 23.0837 27.8042 23.7907 28.5324 23.552Z" fill="black"/>
<path fill-rule="evenodd" clip-rule="evenodd" d="M29.1356 22.2771C28.0997 22.4419 27.6749 21.2363 27.6749 21.2363C27.56 21.8933 27.9849 22.559 28.6719 22.6284C28.5158 23.4851 29.3112 23.9252 30.0004 23.6194L29.9007 23.3202C29.3025 23.5219 28.7413 22.9298 29.1356 22.2771Z" fill="black"/>
<path fill-rule="evenodd" clip-rule="evenodd" d="M28.5151 18.8351L28.5238 18.5033C27.1562 18.2214 27.2711 17.2803 27.2711 17.2803C26.9763 18.1672 27.7521 18.8222 28.5151 18.8351Z" fill="black"/>
<path fill-rule="evenodd" clip-rule="evenodd" d="M19.8511 32.6211L19.3613 33.6143H19.7297L20.2174 32.6211H19.8511Z" fill="black"/>
<path fill-rule="evenodd" clip-rule="evenodd" d="M20.5892 32.6211L20.1016 33.6143H20.4722L20.9555 32.6211H20.5892Z" fill="black"/>
<path fill-rule="evenodd" clip-rule="evenodd" d="M23.5502 32.6211L23.0625 33.6143H23.4288L23.9186 32.6211H23.5502Z" fill="black"/>
<path fill-rule="evenodd" clip-rule="evenodd" d="M24.2908 32.6211L23.7988 33.6143H24.1694L24.6548 32.6211H24.2908Z" fill="black"/>
<path fill-rule="evenodd" clip-rule="evenodd" d="M22.8119 32.6211L22.3223 33.6143H22.6906L23.1782 32.6211H22.8119Z" fill="black"/>
<path fill-rule="evenodd" clip-rule="evenodd" d="M27.1348 33.6143H27.5031L27.9909 32.6211H27.6224L27.1348 33.6143Z" fill="black"/>
<path fill-rule="evenodd" clip-rule="evenodd" d="M21.3314 32.6211L20.8438 33.6143H21.2121L21.6998 32.6211H21.3314Z" fill="black"/>
<path fill-rule="evenodd" clip-rule="evenodd" d="M22.0677 32.6211L21.5801 33.6143H21.9507L22.4383 32.6211H22.0677Z" fill="black"/>
<path fill-rule="evenodd" clip-rule="evenodd" d="M20.3952 27.2822C20.3281 27.2822 20.2695 27.3473 20.2695 27.4319C20.2695 27.5143 20.3281 27.5815 20.3952 27.5815C20.4646 27.5815 20.5253 27.5143 20.5253 27.4319C20.5232 27.3473 20.4646 27.2822 20.3952 27.2822Z" fill="black"/>
<path fill-rule="evenodd" clip-rule="evenodd" d="M23.0976 4.86637C24.6147 4.86637 25.8305 5.3694 26.5002 5.90941C26.5002 5.90941 26.7018 4.70368 27.3802 3.64551L26.1578 3.7821L25.5184 2.42024L24.2896 3.05994L23.0976 1.87598L21.9055 3.05994L20.6723 2.42024L20.033 3.7821L18.8105 3.64551C19.4911 4.70368 19.6905 5.90941 19.6905 5.90941C20.3624 5.3694 21.5804 4.86637 23.0976 4.86637ZM20.2431 4.32424L20.8263 3.08816L21.9055 3.66285L23.0976 2.48534L24.2896 3.66285L25.3689 3.08816L25.9454 4.32424L26.6629 4.21365C26.4786 4.55841 26.3398 4.85982 26.212 5.2827C25.4275 4.82515 24.2614 4.47172 23.0976 4.47172C21.9294 4.47172 20.7656 4.82515 19.9809 5.2827C19.8509 4.85982 19.7144 4.55841 19.528 4.21365L20.2431 4.32424Z" fill="black"/>
<path fill-rule="evenodd" clip-rule="evenodd" d="M24.345 2.43081C24.5226 2.44602 24.6809 2.31155 24.696 2.13585C24.7134 1.95804 24.4533 1.48535 24.4533 1.48535C24.4533 1.48535 24.0653 1.90389 24.0523 2.08171C24.035 2.25519 24.1693 2.41347 24.345 2.43081Z" fill="black"/>
<path fill-rule="evenodd" clip-rule="evenodd" d="M26.3488 3.15751C26.5071 3.242 26.7 3.17918 26.7845 3.02082C26.8711 2.86469 26.8148 2.3291 26.8148 2.3291C26.8148 2.3291 26.299 2.56115 26.2146 2.71942C26.1322 2.87556 26.1928 3.07073 26.3488 3.15751Z" fill="black"/>
<path fill-rule="evenodd" clip-rule="evenodd" d="M21.8474 2.43081C22.0273 2.41347 22.1595 2.25732 22.1443 2.08171C22.127 1.90389 21.7434 1.48535 21.7434 1.48535C21.7434 1.48535 21.4854 1.96024 21.5006 2.13585C21.5137 2.31155 21.6718 2.44602 21.8474 2.43081Z" fill="black"/>
<path fill-rule="evenodd" clip-rule="evenodd" d="M19.8459 3.15751C20.0041 3.07073 20.0627 2.87556 19.9803 2.71942C19.8979 2.56115 19.38 2.3291 19.38 2.3291C19.38 2.3291 19.3259 2.86469 19.4125 3.02082C19.4927 3.17918 19.6878 3.242 19.8459 3.15751Z" fill="black"/>
<path fill-rule="evenodd" clip-rule="evenodd" d="M43.8702 14.1733C44.2971 14.0214 44.6265 13.6138 44.7912 13.2365C43.7055 13.0804 40.8206 11.8682 38.4496 12.8548C39.3383 12.0113 40.1359 11.9029 40.2116 10.6885C40.5801 10.9531 41.2021 11.1027 41.5533 10.4718C41.3084 9.74954 40.6907 10.3351 40.604 10.1355C40.4826 9.85798 41.382 10.2201 41.5749 9.28123C40.8749 9.04044 40.6668 9.61293 40.5411 9.48066C40.4263 9.35486 40.9854 9.11415 40.5737 8.35742C39.8454 8.78458 40.2247 9.26387 40.0709 9.318C39.8844 9.3918 40.0318 8.80407 39.2256 8.83233C39.1454 9.69753 39.982 9.72571 39.8454 9.86232C39.6785 10.0293 39.4618 9.36575 38.8528 9.70188C38.8636 10.4002 39.4292 10.7839 40.0124 10.6191C39.917 11.9463 38.6989 11.699 37.793 13.1953C39.7133 14.1798 40.5823 15.8972 41.7635 17.0856C42.1536 16.8081 42.8211 15.5763 42.8211 15.5763C44.0998 16.5674 44.9993 15.5806 44.9993 15.5806C44.5594 15.1297 44.542 14.787 43.8702 14.1733ZM42.0062 14.414C42.1384 14.7068 42.4007 15.7281 41.7744 16.5067C41.0613 15.0819 40.0817 13.8611 39.2884 13.3341C39.115 13.2213 39.3838 13.024 39.8736 12.959C41.3496 12.6792 43.0812 13.3037 43.9048 13.5228C43.5211 13.809 43.2092 13.9391 42.8168 13.9868C43.415 14.4899 43.8528 14.9149 44.1605 15.3877C43.5819 15.5329 43.2546 15.1665 42.0062 14.414Z" fill="black"/>
<path fill-rule="evenodd" clip-rule="evenodd" d="M29.6775 36.5635V34.9414C28.4248 35.516 26.8318 35.9822 24.7816 36.1667L24.6884 36.7456C24.8617 36.7695 25.0828 36.7912 25.3775 36.8106C24.619 36.9148 23.6372 36.9646 23.0997 36.9646C22.56 36.9646 21.5804 36.9148 20.8197 36.8106C21.1122 36.7912 21.3333 36.7695 21.5067 36.7456L21.4136 36.1667C19.3632 35.9822 17.7681 35.516 16.5175 34.9414V36.5635L14.8184 37.2617C16.0777 37.9166 17.5254 38.4501 19.1985 38.8816L18.9991 39.5603C19.9571 39.8423 21.4893 40.1285 23.0953 40.1285C24.7014 40.1285 26.2314 39.8401 27.1915 39.5603L26.9944 38.8816C28.6653 38.4501 30.1175 37.9166 31.3766 37.2617L29.6775 36.5635ZM15.7265 37.2985L16.8731 36.8367V35.516C17.6099 35.8001 18.5765 36.0951 19.9636 36.3834L19.3134 38.5021C17.8981 38.1768 16.6953 37.7388 15.7265 37.2985ZM23.0975 39.7403C21.8036 39.7403 20.5401 39.5473 19.4608 39.2806L20.1478 37.0578C20.6029 37.1641 21.7429 37.3029 23.0975 37.3029C24.4543 37.3029 25.5877 37.162 26.045 37.0578L26.7343 39.2806C25.6506 39.5473 24.3893 39.7403 23.0975 39.7403ZM26.8838 38.5021L26.2336 36.3834C27.6207 36.0973 28.5874 35.8001 29.3243 35.516V36.8367L30.4686 37.2985C29.4998 37.7388 28.3012 38.1768 26.8838 38.5021Z" fill="black"/>
<path fill-rule="evenodd" clip-rule="evenodd" d="M3.37149 15.5763C3.37149 15.5763 4.03897 16.8081 4.42701 17.0856C5.61038 15.8994 6.48155 14.182 8.39964 13.1953C7.49154 11.699 6.27353 11.9506 6.18245 10.6191C6.7655 10.7839 7.32905 10.398 7.34199 9.70188C6.73077 9.36575 6.51415 10.0337 6.34945 9.86232C6.21284 9.72145 7.04723 9.69753 6.96927 8.83233C6.16304 8.80628 6.31038 9.3918 6.12176 9.318C5.97009 9.26387 6.34945 8.78245 5.61907 8.35742C5.2094 9.11636 5.77074 9.35486 5.65371 9.48066C5.53012 9.61293 5.31767 9.04257 4.61989 9.28123C4.80842 10.2201 5.71218 9.85798 5.59081 10.1355C5.50407 10.3351 4.8886 9.74954 4.64585 10.4718C4.9927 11.1048 5.61685 10.9553 5.98311 10.6907C6.06108 11.9072 6.85649 12.0091 7.74731 12.8548C5.3741 11.8682 2.48943 13.0804 1.39917 13.2387C1.56617 13.6138 1.89557 14.0215 2.32251 14.1689C1.6506 14.7892 1.63333 15.1318 1.19336 15.5806C1.19336 15.5806 2.09057 16.5674 3.37149 15.5763ZM2.02776 15.3899C2.33766 14.9171 2.77329 14.4899 3.37583 13.989C2.9814 13.9391 2.67149 13.809 2.28566 13.5228C3.11137 13.3037 4.84527 12.677 6.3234 12.959C6.80882 13.024 7.08196 13.2213 6.90424 13.3341C6.11104 13.8611 5.12922 15.0819 4.41612 16.5067C3.79196 15.7281 4.05633 14.7089 4.18426 14.4162C2.93799 15.1665 2.61301 15.5329 2.02776 15.3899Z" fill="black"/>
<path fill-rule="evenodd" clip-rule="evenodd" d="M22.0586 14.6719V15.3854C22.3035 15.0883 22.7804 15.1468 22.7804 15.1468V16.1769C22.7804 16.1769 22.763 16.6843 22.5853 16.9012H23.099H23.6126C23.4327 16.6843 23.4175 16.1769 23.4175 16.1769V15.149C23.4175 15.149 23.8922 15.0904 24.1371 15.3874V14.6741H23.099H22.0586V14.6719Z" fill="black"/>
</svg>
