<svg width="43" height="40" viewBox="0 0 43 40" fill="none" xmlns="http://www.w3.org/2000/svg">
<path d="M21.7886 33.9463C21.3608 33.9463 21.0137 34.2935 21.0137 34.7212C21.0137 35.149 21.3608 35.4961 21.7886 35.4961C22.2164 35.4961 22.5635 35.149 22.5635 34.7212C22.5635 34.2935 22.2164 33.9463 21.7886 33.9463Z" fill="white"/>
<path d="M41.4902 36.3018H41.4137V35.3281C41.4137 34.5098 40.7365 33.844 39.9039 33.844H38.1056V32.5013C38.1056 31.8635 37.5955 31.342 36.9555 31.3067V18.6854C37.5955 18.6502 38.1056 18.1287 38.1056 17.4908V16.1481H39.8503C40.5151 16.1481 41.0559 15.6166 41.0559 14.963V13.6976H41.973C42.5126 13.6976 42.9516 13.266 42.9516 12.7357V11.642C42.9516 11.2883 42.7551 10.9641 42.4385 10.7958L27.9933 3.11687C27.6865 2.95357 27.3039 3.06601 27.1383 3.36734C26.9726 3.66859 27.0866 4.04488 27.3931 4.20768L41.6899 11.8077V12.4574H1.31007V11.8131L21.8101 1.23978L24.7935 2.82586C25.1002 2.98899 25.4828 2.87663 25.6485 2.57538C25.8142 2.27413 25.7001 1.89784 25.3937 1.73504L22.4101 0.148884C22.0416 -0.0470226 21.6 -0.049747 21.2289 0.141619L0.572521 10.793C0.249182 10.9596 0.048375 11.2861 0.048375 11.6449V12.7356C0.048375 13.266 0.487445 13.6975 1.02704 13.6975H1.94407V14.963C1.94407 15.6165 2.48485 16.1481 3.14967 16.1481H4.89436V17.4908C4.89436 18.1287 5.40448 18.6502 6.04452 18.6854V26.9019C6.04452 27.2444 6.32696 27.5219 6.67533 27.5219C7.0237 27.5219 7.30614 27.2443 7.30614 26.9019V18.6889H9.32479V31.3033H7.30622V29.8163C7.30622 29.4738 7.02378 29.1963 6.67541 29.1963C6.32705 29.1963 6.04461 29.4738 6.04461 29.8163V31.3067C5.40456 31.342 4.89444 31.8635 4.89444 32.5013V33.844H3.09608C2.26363 33.844 1.5863 34.5098 1.5863 35.3281V36.3018H1.50979C0.67725 36.3018 0 36.9675 0 37.7859V39.083C0 39.5885 0.418494 40 0.932814 40H42.0672C42.5815 40 43 39.5886 43 39.083V37.7859C43 36.9675 42.3228 36.3018 41.4902 36.3018ZM3.20577 14.908V13.6976H39.7942V14.908H3.20577ZM36.8439 32.5435V33.8439H32.525V32.5435H36.8439ZM33.6751 31.3033V18.6888H35.6938V31.3033H33.6751ZM32.525 17.4487V16.1482H36.8439V17.4487H32.525ZM28.1658 31.3067V18.6854C28.8059 18.6502 29.316 18.1287 29.316 17.4908V16.1481H31.2633V17.4908C31.2633 18.1287 31.7734 18.6502 32.4134 18.6854V31.3067C31.7734 31.342 31.2633 31.8635 31.2633 32.5013V33.844H29.316V32.5013C29.316 31.8635 28.8059 31.342 28.1658 31.3067ZM28.0543 32.5435V33.8439H23.7353V32.5435H28.0543ZM24.8855 31.3033V18.6888H26.9041V31.3033H24.8855ZM23.7353 17.4487V16.1482H28.0543V17.4487H23.7353ZM19.3762 31.3067V18.6854C20.0162 18.6502 20.5264 18.1287 20.5264 17.4908V16.1481H22.4736V17.4908C22.4736 18.1287 22.9838 18.6502 23.6238 18.6854V31.3067C22.9838 31.342 22.4736 31.8635 22.4736 32.5013V33.844H20.5264V32.5013C20.5264 31.8635 20.0162 31.342 19.3762 31.3067ZM18.7453 32.5435H19.2647V33.8439H14.9457V32.5435H15.4651H18.7453ZM16.0959 31.3033V18.6888H18.1145V31.3033H16.0959ZM14.9457 17.4487V16.1482H19.2647V17.4487H14.9457ZM10.5866 31.3067V18.6854C11.2266 18.6502 11.7367 18.1287 11.7367 17.4908V16.1481H13.684V17.4908C13.684 18.1287 14.1941 18.6502 14.8342 18.6854V31.3067C14.1941 31.342 13.684 31.8635 13.684 32.5013V33.844H11.7367V32.5013C11.7367 31.8635 11.2266 31.342 10.5866 31.3067ZM6.15605 17.4487V16.1482H10.475V17.4487H6.15605ZM6.15605 32.5435H6.67541H9.95576H10.4751V33.8439H6.15605V32.5435ZM2.84799 35.3281C2.84799 35.1936 2.95927 35.0842 3.09608 35.0842H39.9039C40.0407 35.0842 40.152 35.1936 40.152 35.3281V36.3018H2.84799V35.3281ZM41.7383 38.7598H1.2617V37.7859C1.2617 37.6515 1.37298 37.542 1.50979 37.542H41.4902C41.627 37.542 41.7383 37.6514 41.7383 37.7859V38.7598Z" fill="#363C43"/>
</svg>
