<svg width="205" height="41" viewBox="0 0 205 41" fill="none" xmlns="http://www.w3.org/2000/svg">
<path d="M159.359 14.1375L149.193 12.6601L144.649 3.44708C144.525 3.19484 144.32 2.99064 144.068 2.86652C143.436 2.55421 142.667 2.81447 142.351 3.44708L137.806 12.6601L127.64 14.1375C127.36 14.1776 127.104 14.3097 126.907 14.5099C126.67 14.7537 126.54 15.0816 126.544 15.4217C126.549 15.7618 126.688 16.0862 126.931 16.3236L134.287 23.4946L132.549 33.6205C132.508 33.8561 132.534 34.0983 132.624 34.3198C132.714 34.5413 132.864 34.7332 133.058 34.8736C133.251 35.0141 133.48 35.0976 133.718 35.1146C133.957 35.1316 134.195 35.0814 134.407 34.9698L143.5 30.1892L152.593 34.9698C152.841 35.102 153.129 35.146 153.405 35.098C154.102 34.9778 154.57 34.3172 154.45 33.6205L152.713 23.4946L160.068 16.3236C160.268 16.1275 160.4 15.8712 160.44 15.5909C160.548 14.8902 160.06 14.2416 159.359 14.1375V14.1375Z" fill="#E9E9E9"/>
<path d="M118.359 14.1375L108.193 12.6601L103.649 3.44708C103.525 3.19484 103.32 2.99064 103.068 2.86652C102.436 2.55421 101.667 2.81447 101.351 3.44708L96.8061 12.6601L86.6402 14.1375C86.3599 14.1776 86.1036 14.3097 85.9074 14.5099C85.6703 14.7537 85.5396 15.0816 85.5441 15.4217C85.5486 15.7618 85.6879 16.0862 85.9315 16.3236L93.2866 23.4946L91.5489 33.6205C91.5082 33.8561 91.5343 34.0983 91.6242 34.3198C91.7141 34.5413 91.8643 34.7332 92.0577 34.8736C92.2511 35.0141 92.48 35.0976 92.7185 35.1146C92.9569 35.1316 93.1954 35.0814 93.4068 34.9698L102.5 30.1892L111.593 34.9698C111.841 35.102 112.129 35.146 112.405 35.098C113.102 34.9778 113.57 34.3172 113.45 33.6205L111.713 23.4946L119.068 16.3236C119.268 16.1275 119.4 15.8712 119.44 15.5909C119.548 14.8902 119.06 14.2416 118.359 14.1375V14.1375Z" fill="#E9E9E9"/>
<path d="M77.3591 14.1375L67.1932 12.6601L62.6488 3.44708C62.5246 3.19484 62.3204 2.99064 62.0682 2.86652C61.4356 2.55421 60.6668 2.81447 60.3505 3.44708L55.8061 12.6601L45.6402 14.1375C45.3599 14.1776 45.1036 14.3097 44.9074 14.5099C44.6703 14.7537 44.5396 15.0816 44.5441 15.4217C44.5486 15.7618 44.6879 16.0862 44.9315 16.3236L52.2866 23.4946L50.5489 33.6205C50.5082 33.8561 50.5343 34.0983 50.6242 34.3198C50.7141 34.5413 50.8643 34.7332 51.0577 34.8736C51.2511 35.0141 51.48 35.0976 51.7185 35.1146C51.9569 35.1316 52.1954 35.0814 52.4068 34.9698L61.4996 30.1892L70.5925 34.9698C70.8407 35.102 71.129 35.146 71.4053 35.098C72.102 34.9778 72.5704 34.3172 72.4503 33.6205L70.7126 23.4946L78.0678 16.3236C78.268 16.1275 78.4001 15.8712 78.4402 15.5909C78.5483 14.8902 78.0598 14.2416 77.3591 14.1375V14.1375Z" fill="#E9E9E9"/>
<path d="M36.3591 14.1375L26.1932 12.6601L21.6488 3.44708C21.5246 3.19484 21.3204 2.99064 21.0682 2.86652C20.4356 2.55421 19.6668 2.81447 19.3505 3.44708L14.8061 12.6601L4.64015 14.1375C4.35988 14.1776 4.10363 14.3097 3.90744 14.5099C3.67025 14.7537 3.53955 15.0816 3.54406 15.4217C3.54856 15.7618 3.6879 16.0862 3.93146 16.3236L11.2866 23.4946L9.54894 33.6205C9.50819 33.8561 9.53426 34.0983 9.62418 34.3198C9.71411 34.5413 9.8643 34.7332 10.0577 34.8736C10.2511 35.0141 10.48 35.0976 10.7185 35.1146C10.9569 35.1316 11.1954 35.0814 11.4068 34.9698L20.4996 30.1892L29.5925 34.9698C29.8407 35.102 30.129 35.146 30.4053 35.098C31.102 34.9778 31.5704 34.3172 31.4503 33.6205L29.7126 23.4946L37.0678 16.3236C37.268 16.1275 37.4001 15.8712 37.4402 15.5909C37.5483 14.8902 37.0598 14.2416 36.3591 14.1375V14.1375Z" fill="#E9E9E9"/>
<path d="M200.359 14.1375L190.193 12.6601L185.649 3.44708C185.525 3.19484 185.32 2.99064 185.068 2.86652C184.436 2.55421 183.667 2.81447 183.351 3.44708L178.806 12.6601L168.64 14.1375C168.36 14.1776 168.104 14.3097 167.907 14.5099C167.67 14.7537 167.54 15.0816 167.544 15.4217C167.549 15.7618 167.688 16.0862 167.931 16.3236L175.287 23.4946L173.549 33.6205C173.508 33.8561 173.534 34.0983 173.624 34.3198C173.714 34.5413 173.864 34.7332 174.058 34.8736C174.251 35.0141 174.48 35.0976 174.718 35.1146C174.957 35.1316 175.195 35.0814 175.407 34.9698L184.5 30.1892L193.593 34.9698C193.841 35.102 194.129 35.146 194.405 35.098C195.102 34.9778 195.57 34.3172 195.45 33.6205L193.713 23.4946L201.068 16.3236C201.268 16.1275 201.4 15.8712 201.44 15.5909C201.548 14.8902 201.06 14.2416 200.359 14.1375V14.1375Z" fill="#E9E9E9"/>
</svg>
