<svg width="56" height="56" viewBox="0 0 56 56" fill="none" xmlns="http://www.w3.org/2000/svg">
<path d="M49 16.3333H7V7H49V16.3333ZM30.3333 44.3333C30.3333 45.9667 30.6367 47.53 31.15 49H9.33333V18.6667H46.6667V30.5433C45.8967 30.4267 45.1267 30.3333 44.3333 30.3333C36.61 30.3333 30.3333 36.61 30.3333 44.3333ZM35 30.3333V26.8333C35 26.18 34.4867 25.6667 33.8333 25.6667H22.1667C21.5133 25.6667 21 26.18 21 26.8333V30.3333H35ZM53.6667 41.7433L46.9233 41.16L44.3333 35L41.6967 41.16L35 41.7433L40.0867 46.13L38.5 52.6867L44.3333 49.21L50.05 52.6867L48.5333 46.13L53.6667 41.7433Z" fill="#FD9D08"/>
</svg>
