<svg width="41" height="34" viewBox="0 0 41 34" fill="none" xmlns="http://www.w3.org/2000/svg">
<path d="M20.7886 26.9463C20.3608 26.9463 20.0137 27.2935 20.0137 27.7212C20.0137 28.149 20.3608 28.4961 20.7886 28.4961C21.2164 28.4961 21.5635 28.149 21.5635 27.7212C21.5635 27.2935 21.2164 26.9463 20.7886 26.9463Z" fill="white"/>
<path d="M37.3001 1.7897C35.3932 1.02167 32.9139 0.598633 30.319 0.598633C27.7242 0.598633 25.2449 1.02167 23.3379 1.7897C22.211 2.24357 21.3506 2.79827 20.7874 3.42069C20.2242 2.79827 19.3638 2.24365 18.2369 1.78978C16.3299 1.02167 13.8506 0.598633 11.2558 0.598633C8.66092 0.598633 6.18162 1.02167 4.27467 1.7897C2.13021 2.65343 0.949219 3.8817 0.949219 5.24821V23.8465C0.949219 25.213 2.13021 26.4413 4.27467 27.305C6.04825 28.0193 8.31709 28.4347 10.7133 28.4894V28.4961C10.7133 31.1468 15.0442 33.1456 20.7874 33.1456C26.5306 33.1456 30.8615 31.1468 30.8615 28.4961V28.4894C33.2577 28.4347 35.5265 28.0193 37.3001 27.305C39.4446 26.4413 40.6256 25.213 40.6256 23.8465V5.24821C40.6256 3.8817 39.4446 2.65343 37.3001 1.7897ZM39.0757 19.1969C39.0757 19.8585 38.1735 20.6328 36.7211 21.2178C35.1492 21.8509 33.0387 22.2339 30.8615 22.289V19.1969C30.8615 19.1947 30.8613 19.1924 30.8613 19.1903C33.2576 19.1356 35.5265 18.7203 37.3002 18.0059C37.9963 17.7255 38.5901 17.4065 39.0758 17.057L39.0757 19.1969ZM20.0125 9.89778C20.0125 10.5593 19.1102 11.3336 17.6578 11.9186C15.9556 12.6043 13.6221 12.9975 11.2558 12.9975C8.88945 12.9975 6.55598 12.6043 4.8537 11.9186C3.40133 11.3336 2.49908 10.5593 2.49908 9.89778V7.75789C2.98472 8.10738 3.57855 8.42634 4.27467 8.70671C6.18162 9.47474 8.66092 9.89778 11.2558 9.89778C13.8506 9.89778 16.3299 9.47474 18.2369 8.70671C18.933 8.42634 19.5268 8.10738 20.0125 7.75789V9.89778ZM4.27467 13.3563C6.18162 14.1243 8.66092 14.5474 11.2558 14.5474C13.8506 14.5474 16.3299 14.1243 18.2369 13.3563C18.933 13.0759 19.5268 12.757 20.0125 12.4075V14.5611C18.0077 14.629 16.0851 14.958 14.5301 15.5056C12.9704 16.055 11.8481 16.7875 11.2377 17.6468C8.87759 17.6448 6.55164 17.2521 4.8537 16.5682C3.40133 15.9832 2.49908 15.2089 2.49908 14.5474V12.4075C2.98472 12.757 3.57855 13.0759 4.27467 13.3563ZM2.49908 17.057C2.98472 17.4065 3.57855 17.7255 4.27467 18.0059C6.04833 18.7202 8.31724 19.1355 10.7136 19.1903C10.7136 19.1925 10.7134 19.1948 10.7134 19.1969V22.289C8.53608 22.2339 6.42572 21.8509 4.85378 21.2178C3.40133 20.6328 2.49908 19.8585 2.49908 19.1969V17.057ZM12.3452 18.8162C12.9195 17.4797 16.2342 16.0972 20.7874 16.0972C25.3406 16.0972 28.6553 17.4797 29.229 18.8146C29.2846 18.9449 29.3116 19.0699 29.3116 19.1969C29.3116 19.8782 28.4717 20.635 27.0647 21.2213C25.4005 21.9148 23.1712 22.2966 20.7874 22.2966C18.4036 22.2966 16.1743 21.9148 14.5101 21.2213C13.1031 20.635 12.2632 19.8782 12.2632 19.1969C12.2632 19.0699 12.2902 18.9449 12.3452 18.8162ZM39.0757 14.5474C39.0757 15.2089 38.1735 15.9832 36.7211 16.5682C35.0232 17.2521 32.6974 17.6448 30.3373 17.6468C29.7274 16.788 28.605 16.0551 27.0447 15.5056C25.4897 14.9579 23.5671 14.629 21.5623 14.5611V12.4075C22.048 12.757 22.6418 13.0759 23.3379 13.3563C25.2449 14.1243 27.7242 14.5474 30.319 14.5474C32.9139 14.5474 35.3932 14.1243 37.3001 13.3563C37.9962 13.0759 38.5901 12.757 39.0757 12.4075V14.5474ZM39.0757 9.89778C39.0757 10.5593 38.1735 11.3336 36.7211 11.9186C35.0188 12.6043 32.6853 12.9975 30.319 12.9975C27.9527 12.9975 25.6192 12.6043 23.9169 11.9186C22.4646 11.3336 21.5623 10.5593 21.5623 9.89778V7.75789C22.048 8.10738 22.6418 8.42634 23.3379 8.70671C25.2449 9.47474 27.7242 9.89778 30.319 9.89778C32.9139 9.89778 35.3932 9.47474 37.3001 8.70671C37.9962 8.42634 38.5901 8.10738 39.0757 7.75789V9.89778ZM23.9169 3.22735C25.6192 2.54169 27.9527 2.14849 30.319 2.14849C32.6853 2.14849 35.0188 2.54169 36.7211 3.22735C38.1735 3.81234 39.0757 4.58665 39.0757 5.24821C39.0757 5.90976 38.1735 6.68407 36.7211 7.26906C35.0188 7.95472 32.6853 8.34792 30.319 8.34792C27.9527 8.34792 25.6192 7.95472 23.9169 7.26906C22.4646 6.68407 21.5623 5.90976 21.5623 5.24821C21.5623 4.58665 22.4646 3.81234 23.9169 3.22735ZM4.8537 3.22735C6.55598 2.54169 8.88945 2.14849 11.2558 2.14849C13.6221 2.14849 15.9556 2.54169 17.6578 3.22735C19.1102 3.81234 20.0125 4.58665 20.0125 5.24821C20.0125 5.90976 19.1102 6.68407 17.6578 7.26906C15.9556 7.95472 13.6221 8.34792 11.2558 8.34792C8.88945 8.34792 6.55598 7.95472 4.8537 7.26906C3.40133 6.68407 2.49908 5.90976 2.49908 5.24821C2.49908 4.58665 3.40133 3.81234 4.8537 3.22735ZM4.8537 25.8674C3.40133 25.2824 2.49908 24.5081 2.49908 23.8465V21.7066C2.98472 22.0561 3.57855 22.3751 4.27467 22.6554C6.04825 23.3698 8.31709 23.7851 10.7133 23.8398V26.9386C8.536 26.8835 6.42564 26.5005 4.8537 25.8674ZM27.0647 30.5204C25.4005 31.2139 23.1712 31.5958 20.7874 31.5958C18.4036 31.5958 16.1743 31.2139 14.5101 30.5204C13.1031 29.9342 12.2632 29.1774 12.2632 28.4961V26.4014C12.4387 26.5284 12.6327 26.6546 12.8478 26.7791C14.0512 27.4754 15.6885 27.9905 17.5829 28.2685C17.6211 28.2741 17.6589 28.2768 17.6964 28.2768C18.0746 28.2768 18.4056 27.9997 18.4621 27.6144C18.5243 27.1909 18.2314 26.7973 17.808 26.7351C14.2065 26.2064 12.2632 24.8523 12.2632 23.8465V21.7449C14.0172 23.0283 17.1132 23.8465 20.7874 23.8465C24.4616 23.8465 27.5576 23.0283 29.3116 21.7449V23.8465C29.3116 24.8523 27.3682 26.2064 23.7668 26.7351C23.3433 26.7973 23.0504 27.1909 23.1126 27.6144C23.1692 27.9997 23.5002 28.2768 23.8784 28.2768C23.9158 28.2768 23.9538 28.2741 23.9919 28.2685C25.8862 27.9905 27.5235 27.4755 28.727 26.7791C28.9421 26.6546 29.1361 26.5284 29.3116 26.4014V28.4961C29.3116 29.1774 28.4717 29.9342 27.0647 30.5204ZM36.7211 25.8674C35.1492 26.5005 33.0387 26.8835 30.8615 26.9385V23.8398C33.2577 23.785 35.5265 23.3697 37.3001 22.6554C37.9962 22.375 38.5901 22.056 39.0757 21.7065V23.8465C39.0757 24.5081 38.1735 25.2824 36.7211 25.8674Z" fill="#363C43"/>
</svg>
