<svg width="90" height="230" viewBox="0 0 90 230" fill="none" xmlns="http://www.w3.org/2000/svg">
<path d="M41.5231 24.7937L65.4972 49.064L61.5829 56.6843L33.4399 25.8949L35.9308 21.0456L41.5231 24.7937ZM74.3933 31.7449L40.6888 26.4181L34.3479 24.1272L36.8634 19.2301L78.3199 24.1007L74.3933 31.7449ZM61.225 25.5243L66.8387 28.4079L57.4027 46.778L51.789 43.8944L61.225 25.5243Z" fill="white"/>
<path d="M43.3884 184.247L45.046 183.418C47.7046 182.09 50.2709 181.258 52.7451 180.922C55.2193 180.587 57.5292 180.703 59.6749 181.272C61.8045 181.849 63.7179 182.855 65.415 184.288C67.104 185.706 68.5008 187.52 69.6052 189.73C70.7015 191.924 71.3135 194.13 71.4411 196.348C71.5606 198.55 71.2158 200.683 70.4066 202.749C69.5814 204.823 68.2958 206.756 66.5499 208.549C64.796 210.326 62.5898 211.879 59.9312 213.207L58.2736 214.036C55.599 215.372 53.0326 216.204 50.5745 216.532C48.1003 216.867 45.7904 216.751 43.6447 216.182C41.4911 215.597 39.5697 214.595 37.8806 213.178C36.1835 211.744 34.7868 209.93 33.6904 207.736C32.586 205.526 31.9741 203.32 31.8545 201.118C31.7269 198.9 32.0798 196.763 32.913 194.705C33.7382 192.631 35.0277 190.706 36.7817 188.929C38.5116 187.144 40.7138 185.583 43.3884 184.247ZM48.6833 190.698L46.9776 191.55C45.1198 192.478 43.5703 193.463 42.329 194.503C41.0877 195.544 40.1506 196.632 39.5178 197.769C38.885 198.906 38.5644 200.067 38.5561 201.252C38.5318 202.445 38.8238 203.65 39.432 204.867C40.0402 206.084 40.8286 207.041 41.7973 207.738C42.7419 208.427 43.8587 208.86 45.1478 209.036C46.4288 209.197 47.858 209.093 49.4355 208.725C51.0129 208.357 52.7305 207.709 54.5883 206.781L56.2939 205.928C58.1357 205.008 59.6853 204.023 60.9426 202.975C62.1839 201.934 63.1289 200.842 63.7778 199.697C64.4106 198.56 64.7392 197.395 64.7635 196.202C64.7878 195.009 64.4958 193.804 63.8876 192.587C63.2794 191.37 62.491 190.413 61.5223 189.716C60.5537 189.019 59.4289 188.59 58.1478 188.43C56.8508 188.277 55.4135 188.385 53.8361 188.753C52.2427 189.129 50.525 189.777 48.6833 190.698Z" fill="white"/>
<path d="M43.7202 161.809L46.2897 171.436L40.2181 173.056L37.6486 163.43C37.2515 161.942 36.6861 160.796 35.9525 159.991C35.2015 159.191 34.3272 158.693 33.3295 158.496C32.3319 158.299 31.2796 158.348 30.1725 158.643C29.0481 158.943 28.0593 159.439 27.206 160.13C26.3528 160.821 25.7568 161.712 25.418 162.803C25.0792 163.894 25.1083 165.184 25.5054 166.671L27.3546 173.599L59.0359 165.143L61.1137 172.927L23.3348 183.011L19.4078 168.299C18.6183 165.341 18.4781 162.664 18.9873 160.267C19.4745 157.858 20.5022 155.842 22.0702 154.218C23.6383 152.595 25.6245 151.463 28.029 150.821C30.468 150.17 32.7284 150.169 34.8102 150.818C36.892 151.467 38.7013 152.726 40.2379 154.595C41.7699 156.446 42.9306 158.851 43.7202 161.809Z" fill="white"/>
<path d="M12.9438 127.492L51.9291 124.479L52.548 132.484L13.5627 135.498L12.9438 127.492ZM12.0166 115.497L18.3089 115.01L20.7677 146.82L14.4755 147.306L12.0166 115.497Z" fill="white"/>
<path d="M13.2896 99.6418L52.3167 102.054L51.8213 110.069L12.7942 107.656L13.2896 99.6418Z" fill="white"/>
<path d="M14.4833 83.5692L16.117 76.9465L46.3955 74.0705L20.9281 57.4432L22.5618 50.8204L57.1422 73.9001L55.8301 79.2192L14.4833 83.5692ZM13.6022 87.1413L15.2294 80.5446L42.6943 86.0473L53.4889 88.7101L51.5657 96.5061L13.6022 87.1413ZM21.8157 53.845L23.4494 47.2222L61.4129 56.587L59.4834 64.4092L48.6888 61.7464L21.8157 53.845Z" fill="white"/>
</svg>
