<svg width="56" height="56" viewBox="0 0 56 56" fill="none" xmlns="http://www.w3.org/2000/svg">
<path d="M21 7.00001V2.33334H35V7.00001H21ZM25.6667 32.6667H30.3333V18.6667H25.6667V32.6667ZM28 51.3333C25.1222 51.3333 22.4093 50.7788 19.8613 49.6697C17.3133 48.5606 15.0873 47.054 13.1833 45.15C11.2778 43.2445 9.77045 41.0177 8.66134 38.4697C7.55223 35.9217 6.99845 33.2096 7 30.3333C7 27.4556 7.55456 24.7427 8.66367 22.1947C9.77278 19.6467 11.2793 17.4207 13.1833 15.5167C15.0889 13.6111 17.3157 12.1038 19.8637 10.9947C22.4117 9.88557 25.1238 9.33179 28 9.33334C30.4111 9.33334 32.725 9.72223 34.9417 10.5C37.1583 11.2778 39.2389 12.4056 41.1833 13.8833L44.45 10.6167L47.7167 13.8833L44.45 17.15C45.9278 19.0945 47.0556 21.175 47.8333 23.3917C48.6111 25.6083 49 27.9222 49 30.3333C49 33.2111 48.4454 35.924 47.3363 38.472C46.2272 41.02 44.7207 43.246 42.8167 45.15C40.9111 47.0556 38.6843 48.5629 36.1363 49.672C33.5883 50.7811 30.8762 51.3349 28 51.3333Z" fill="#FD9D08"/>
</svg>
