<svg width="38" height="36" viewBox="0 0 38 36" fill="none" xmlns="http://www.w3.org/2000/svg">
<path d="M35.0469 0H30.0121C28.5072 0 27.283 1.22426 27.283 2.72911V8.34659C27.283 8.76092 27.6189 9.09682 28.0332 9.09682C28.4475 9.09682 28.7834 8.76092 28.7834 8.34659V2.72911C28.7834 2.05161 29.3346 1.50045 30.0121 1.50045H35.0469C35.7243 1.50045 36.2755 2.05161 36.2755 2.72911V33.2706C36.2755 33.9481 35.7244 34.4993 35.0469 34.4993H30.0121C29.3347 34.4993 28.7834 33.9481 28.7834 33.2706V11.3252C28.7834 10.9109 28.4475 10.575 28.0332 10.575C27.6189 10.575 27.283 10.9109 27.283 11.3252V33.2706C27.283 34.7755 28.5072 35.9997 30.0121 35.9997H35.0469C36.5517 35.9997 37.776 34.7755 37.776 33.2706V2.72921C37.776 1.22437 36.5517 0 35.0469 0Z" fill="#363C43"/>
<path d="M14.5957 27.4314C14.1814 27.4314 13.8455 27.7673 13.8455 28.1816V33.2711C13.8455 34.776 15.0697 36.0003 16.5746 36.0003H21.6094C23.1142 36.0003 24.3385 34.776 24.3385 33.2711V12.5768C24.3385 11.0719 23.1142 9.84766 21.6094 9.84766H16.5746C15.0697 9.84766 13.8455 11.0719 13.8455 12.5768V25.1933C13.8455 25.6077 14.1814 25.9436 14.5957 25.9436C15.01 25.9436 15.3459 25.6077 15.3459 25.1933V12.5768C15.3459 11.8993 15.8971 11.3481 16.5746 11.3481H21.6094C22.2869 11.3481 22.838 11.8993 22.838 12.5768V33.2712C22.838 33.9488 22.2869 34.4999 21.6094 34.4999H16.5746C15.8971 34.4999 15.3459 33.9488 15.3459 33.2712V28.1817C15.3459 27.7673 15.01 27.4314 14.5957 27.4314Z" fill="#363C43"/>
<path d="M7.76367 4.92383H2.72887C1.22402 4.92383 -0.000244141 6.14809 -0.000244141 7.65294V33.2709C-0.000244141 34.7757 1.22402 36 2.72887 36H7.76367C9.26852 36 10.4928 34.7757 10.4928 33.2709V7.65294C10.4928 6.14809 9.26852 4.92383 7.76367 4.92383ZM8.99234 33.2709C8.99234 33.9484 8.44118 34.4996 7.76367 34.4996H2.72887C2.05137 34.4996 1.5002 33.9484 1.5002 33.2709V7.65294C1.5002 6.97544 2.05137 6.42428 2.72887 6.42428H7.76367C8.44118 6.42428 8.99234 6.97544 8.99234 7.65294V33.2709Z" fill="#363C43"/>
</svg>
