<svg width="42" height="42" viewBox="0 0 42 42" fill="none" xmlns="http://www.w3.org/2000/svg">
<path d="M10.3048 39.5756H13.9458C16.0564 39.5756 16.0595 36.2871 13.9458 36.2871H10.3048C8.19423 36.2871 8.19111 39.5756 10.3048 39.5756ZM10.3048 37.5176H13.9458C14.4806 37.5176 14.4806 38.3451 13.9458 38.3451H10.3048C9.77005 38.3451 9.77005 37.5176 10.3048 37.5176Z" fill="#363C43"/>
<path d="M14.8211 21.1467L10.8132 25.1548L9.42512 23.7666C8.86247 23.2044 7.99253 24.0742 8.55502 24.6367L10.3782 26.4599C10.6682 26.7001 10.9583 26.7001 11.2483 26.4599L15.6913 22.0168C16.2537 21.4542 15.3838 20.5845 14.8211 21.1467Z" fill="#363C43"/>
<path d="M41.5424 27.2176C41.294 26.7435 41.1141 26.2241 40.9918 25.7028C40.3919 23.1931 39.4803 20.7617 38.2829 18.476L36.2808 14.6545C35.1474 12.491 31.8026 12.8507 31.1711 15.2236C29.6733 14.6847 27.9825 15.5704 27.5729 17.1087C26.3347 16.6631 24.9048 17.1879 24.2483 18.3268V4.81712V2.40376C24.2482 1.07838 23.1699 0 21.8443 0H7.51185C6.71639 0 6.71639 1.23047 7.51185 1.23047H21.8443C22.4913 1.23047 23.0177 1.75678 23.0177 2.40376V4.20189H1.23047V2.40376C1.23047 1.75678 1.75678 1.23047 2.40376 1.23047H4.06662C4.86207 1.23047 4.86207 0 4.06662 0H2.40376C1.07838 0 0 1.07838 0 2.40376V4.81712V34.4702V39.5962C0 40.9216 1.07838 42 2.40376 42H21.8443C23.1698 42 24.2482 40.9216 24.2482 39.5962V34.4702V32.0059L26.4467 33.0933C26.99 33.362 27.4365 33.8094 27.7041 34.3533C28.6808 36.338 31.184 37.1609 33.1503 36.1307L36.8159 34.2103C37.5205 33.8412 36.9495 32.7513 36.2449 33.1204L32.5793 35.0407C31.2177 35.7544 29.4869 35.1892 28.8081 33.81C28.4217 33.0247 27.7768 32.3785 26.9922 31.9903L17.6626 27.3756C15.9103 26.5245 17.1775 23.7755 18.9571 24.6055L22.3447 26.3888C22.8673 26.6639 23.4503 26.0822 23.1762 25.559L17.2914 14.3263C16.325 12.5096 18.9129 10.8327 19.9 12.7171L24.0596 20.6568L25.1461 22.7307C25.5047 23.4156 26.6042 22.8625 26.2361 22.1597L25.1783 20.1406C24.7499 18.7132 26.5122 17.5623 27.6464 18.5574L28.8235 20.8041C29.1821 21.489 30.2816 20.9359 29.9134 20.2331L28.7166 17.9487C28.6046 16.6363 30.2118 15.7917 31.2277 16.6573L32.4124 18.9188C32.7711 19.6037 33.8705 19.0506 33.5024 18.3478L32.3174 16.086C32.1563 14.4753 34.4232 13.7603 35.1907 15.2254L37.1928 19.0469C38.3431 21.2425 39.2186 23.5781 39.795 25.9886C39.9349 26.6139 40.155 27.2208 40.4524 27.7885C41.1613 29.1415 40.6371 30.819 39.2842 31.5279C38.5796 31.8972 39.1507 32.9871 39.8552 32.6178C41.8093 31.5942 42.5662 29.1716 41.5424 27.2176ZM23.0177 39.5962C23.0177 40.2432 22.4913 40.7695 21.8443 40.7695H2.40376C1.75678 40.7695 1.23047 40.2432 1.23047 39.5962V35.0854H23.0177V39.5962ZM15.8191 24.8059C15.4015 25.6838 15.4826 26.7353 16.0268 27.5404C15.0093 28.6051 13.6135 29.2085 12.1241 29.2085C9.14369 29.2085 6.71902 26.7838 6.71902 23.8034C6.71902 20.8231 9.14369 18.3984 12.1241 18.3984C14.9519 18.3984 17.278 20.5817 17.5087 23.351C16.78 23.5733 16.1466 24.1172 15.8191 24.8059ZM20.2862 11.2845C20.0179 11.0668 19.7084 10.8992 19.3686 10.7931C17.3979 10.1773 15.4132 11.9844 15.847 14.0026H4.16702C4.0539 14.0026 3.96195 13.9106 3.96195 13.7975V9.40078C3.96195 9.28766 4.0539 9.1957 4.16702 9.1957H20.0811C20.1942 9.1957 20.2862 9.28766 20.2862 9.40078V11.2845ZM23.0177 16.0168L21.5166 13.1517V9.40078C21.5166 8.60926 20.8726 7.96523 20.0811 7.96523H4.16702C3.3755 7.96523 2.73148 8.60926 2.73148 9.40078V13.7976C2.73148 14.5891 3.3755 15.2331 4.16702 15.2331H16.3772L21.1692 24.3797L19.5183 23.5106C19.511 23.5067 19.5035 23.5029 19.496 23.4994C19.2516 23.3831 18.9959 23.3047 18.7358 23.2638C18.46 19.8566 15.601 17.1679 12.1241 17.1679C8.4653 17.1679 5.48863 20.1446 5.48863 23.8034C5.48863 27.4623 8.4653 30.4389 12.1241 30.4389C13.9592 30.4389 15.6799 29.6948 16.9299 28.3791C18.8817 29.5039 20.9982 30.3983 23.0177 31.3972V33.8549H1.23047V5.43236H23.0177V16.0168Z" fill="#363C43"/>
</svg>
