<svg width="19" height="19" viewBox="0 0 19 19" fill="none" xmlns="http://www.w3.org/2000/svg">
<path fill-rule="evenodd" clip-rule="evenodd" d="M1.99423 4.19306C1.94119 4.47414 1.94119 4.81158 1.94119 5.48646V10.8778C1.94119 13.7617 1.94119 15.2037 2.8371 16.0996C3.73301 16.9955 5.17495 16.9955 8.05884 16.9955H11.1177C14.0016 16.9955 15.4435 16.9955 16.3394 16.0996C17.2353 15.2037 17.2353 13.7617 17.2353 10.8778V9.19387C17.2353 7.18088 17.2353 6.17439 16.6469 5.52017C16.5928 5.45999 16.5355 5.40272 16.4753 5.34859C15.8211 4.76018 14.8146 4.76018 12.8016 4.76018H12.5159C11.6336 4.76018 11.1925 4.76018 10.7815 4.64301C10.5557 4.57864 10.338 4.48849 10.1328 4.37433C9.75929 4.16651 9.44738 3.8546 8.82355 3.23077L8.40277 2.80999C8.19368 2.6009 8.08913 2.49635 7.97927 2.40528C7.50559 2.01262 6.92451 1.77193 6.31192 1.71464C6.16984 1.70135 6.02199 1.70135 5.72629 1.70135C5.05142 1.70135 4.71398 1.70135 4.4329 1.75439C3.19555 1.98784 2.22768 2.95571 1.99423 4.19306ZM11.4987 8.91975C11.7354 9.13019 11.7568 9.4927 11.5463 9.72945L9.50711 12.0236C9.39827 12.146 9.24227 12.2161 9.07845 12.2161C8.91463 12.2161 8.75862 12.146 8.64979 12.0236L7.63018 10.8765C7.41974 10.6398 7.44107 10.2773 7.67781 10.0668C7.91455 9.85637 8.27706 9.8777 8.4875 10.1144L9.07845 10.7793L10.689 8.96738C10.8994 8.73064 11.262 8.70932 11.4987 8.91975Z" fill="#1B1F25"/>
</svg>
