<svg width="24" height="24" viewBox="0 0 24 24" fill="none" xmlns="http://www.w3.org/2000/svg">
<g clip-path="url(#clip0_1_317)">
<path fill-rule="evenodd" clip-rule="evenodd" d="M16.242 3.515C16.7925 2.96462 17.5354 2.64977 18.3137 2.63697C19.0921 2.62416 19.8449 2.91439 20.4132 3.44636C20.9815 3.97832 21.3208 4.71037 21.3594 5.48785C21.398 6.26533 21.1329 7.02737 20.62 7.613L20.485 7.757L19.778 8.464L20.485 9.171C20.8392 9.52496 21.0478 9.99893 21.0695 10.4992C21.0911 10.9995 20.9243 11.4897 20.602 11.873L20.485 12L16.242 16.242C16.0621 16.4213 15.8206 16.5255 15.5666 16.5332C15.3127 16.541 15.0653 16.4518 14.8747 16.2837C14.6842 16.1157 14.5647 15.8814 14.5406 15.6285C14.5165 15.3756 14.5896 15.123 14.745 14.922L14.828 14.828L19.071 10.586L18.364 9.879L8.48502 19.757C8.36267 19.879 8.2133 19.9705 8.04902 20.024L7.92302 20.057L4.43302 20.756C4.27964 20.7869 4.12118 20.7817 3.97015 20.7409C3.81911 20.7 3.67962 20.6247 3.56269 20.5207C3.44575 20.4168 3.35456 20.2871 3.29631 20.1419C3.23806 19.9967 3.21434 19.8399 3.22702 19.684L3.24402 19.567L3.94202 16.076C3.97609 15.9062 4.04975 15.7469 4.15702 15.611L4.24302 15.514L16.243 3.514L16.242 3.515ZM17.657 4.929L16.949 5.636L18.364 7.05L19.071 6.343C19.2585 6.15536 19.3638 5.90092 19.3637 5.63565C19.3636 5.37037 19.2582 5.11601 19.0705 4.9285C18.8829 4.74099 18.6284 4.6357 18.3632 4.6358C18.0979 4.63589 17.8445 4.74136 17.657 4.929Z" fill="white"/>
</g>
<defs>
<clipPath id="clip0_1_317">
<rect width="24" height="24" fill="white"/>
</clipPath>
</defs>
</svg>
